<?xml version="1.0" encoding="UTF-8"?>
<svg width="113px" height="114px" viewBox="0 0 113 114" version="1.1" xmlns="http://www.w3.org/2000/svg" xmlns:xlink="http://www.w3.org/1999/xlink">
    <!-- Generator: Sketch 63.1 (92452) - https://sketch.com -->
    <title>Group 5</title>
    <desc>Created with Sketch.</desc>
    <g id="Page-1" stroke="none" stroke-width="1" fill="none" fill-rule="evenodd">
        <g id="ABOUT-GSBOR" transform="translate(-666.000000, -982.000000)">
            <g id="Group-5" transform="translate(666.000000, 982.000000)">
                <path d="M0,57 C0,41.5154319 6.33874954,27.4883417 16.6129429,17.3379338 C26.820931,7.2529335 40.9189506,1 56.5,1 C72.0810494,1 86.179069,7.2529335 96.3870571,17.3379338 C106.66125,27.4883417 113,41.5154319 113,57 C113,72.4845681 106.66125,86.5116583 96.3870571,96.6620662 C86.179069,106.747066 72.0810494,113 56.5,113 C40.9189506,113 26.820931,106.747066 16.6129429,96.6620662 C6.33874954,86.5116583 0,72.4845681 0,57 Z" id="Oval-Copy-11" fill="#F5F5F5" transform="translate(56.500000, 57.000000) rotate(-270.000000) translate(-56.500000, -57.000000) "></path>
                <g id="Award" transform="translate(32.000000, 30.000000)" fill="#05568B" fill-rule="nonzero">
                    <path d="M16.3024783,43.9194154 C14.7461639,43.9194154 13.3313325,43.065579 12.6239169,41.7848245 L9.51128802,35.5233579 L8.37942298,34.9541337 L0.173401417,52.4577789 C-0.109564844,53.0270031 0.314884547,53.5962274 0.880817069,53.4539213 L9.08683863,51.8885547 C9.36980489,51.8885547 9.65277116,51.8885547 9.79425429,52.1731668 L13.7557819,59.4307758 C14.0387482,60 14.7461639,59.8576939 14.887647,59.4307758 L23.0936685,41.7848245 L17.4343433,43.6348033 C17.0098939,43.9194154 16.7269277,43.9194154 16.3024783,43.9194154 Z M47.9946995,52.4577789 L39.7886779,34.9541337 L38.6568129,35.5233579 L35.544184,41.7848245 C34.8367684,43.2078851 33.4219371,43.9194154 31.8656226,43.9194154 C31.4411732,43.9194154 31.0167238,43.9194154 30.5922745,43.7771093 L24.9329492,41.9271306 L33.1389708,59.5730818 C33.4219371,60.1423061 34.1293527,60.1423061 34.2708358,59.5730818 L38.2323635,52.3154728 C38.3738466,52.0308607 38.6568129,51.8885547 38.9397792,52.0308607 L47.1458007,53.5962274 C47.8532164,53.5962274 48.2776658,53.0270031 47.9946995,52.4577789 Z M24.0840505,10.6197977 C18.5662084,10.6197977 14.0387482,15.1735916 14.0387482,20.7235279 C14.0387482,26.2734641 18.5662084,30.9695641 24.0840505,30.9695641 C29.6018925,30.9695641 34.1293527,26.4157702 34.1293527,20.8658339 C34.1293527,15.3158976 29.6018925,10.6197977 24.0840505,10.6197977 Z M33.4219371,40.646376 L36.6760491,34.2426034 C36.8175322,33.9579913 37.1004985,33.6733792 37.3834647,33.5310731 L43.7502056,30.2580338 C44.4576212,29.8311156 44.8820706,28.9772792 44.5991044,28.265749 L42.4768574,21.2927521 C42.3353743,21.00814 42.3353743,20.5812218 42.4768574,20.1543036 L44.5991044,13.3236128 C44.8820706,12.4697765 44.4576212,11.6159401 43.7502056,11.331328 L37.3834647,8.05828864 C37.1004985,7.91598259 36.8175322,7.63137047 36.6760491,7.34675835 L33.4219371,1.08529178 C32.9974877,0.373761484 32.1485889,-0.0531566912 31.4411732,0.231455426 L24.649983,2.3660463 C24.3670167,2.50835236 23.9425673,2.50835236 23.5181179,2.3660463 L16.7269277,0.0891493673 C15.8780289,-0.19546275 15.0291301,0.231455426 14.7461639,0.942985718 L11.4920519,7.48906441 C11.3505687,7.77367653 11.0676025,8.05828864 10.7846362,8.2005947 L4.41789533,11.473634 C3.56899655,11.9005522 3.28603029,12.7543886 3.56899655,13.4659189 L5.6912435,20.4389157 C5.83272663,20.7235279 5.83272663,21.150446 5.6912435,21.5773642 L3.56899655,28.408055 C3.28603029,29.2618914 3.71047968,30.1157277 4.41789533,30.4003398 L10.7846362,33.6733792 C11.0676025,33.8156852 11.3505687,34.1002974 11.4920519,34.3849095 L14.7461639,40.7886821 C15.1706132,41.5002124 16.019512,41.9271306 16.7269277,41.6425185 L23.5181179,39.5079276 C23.8010842,39.3656215 24.2255336,39.3656215 24.649983,39.5079276 L31.4411732,41.6425185 C32.1485889,41.7848245 32.9974877,41.3579063 33.4219371,40.646376 Z M24.0840505,33.3887671 C17.1513771,33.3887671 11.633535,27.8388308 11.633535,20.8658339 C11.633535,13.892837 17.1513771,8.34290076 24.0840505,8.34290076 C31.0167238,8.34290076 36.5345659,13.892837 36.5345659,20.8658339 C36.5345659,27.6965247 31.0167238,33.3887671 24.0840505,33.3887671 Z" id="Shape"></path>
                </g>
            </g>
        </g>
    </g>
</svg>