<?xml version="1.0" encoding="UTF-8"?>
<svg width="113px" height="114px" viewBox="0 0 113 114" version="1.1" xmlns="http://www.w3.org/2000/svg" xmlns:xlink="http://www.w3.org/1999/xlink">
    <!-- Generator: Sketch 63.1 (92452) - https://sketch.com -->
    <title>Group 7</title>
    <desc>Created with Sketch.</desc>
    <g id="Page-1" stroke="none" stroke-width="1" fill="none" fill-rule="evenodd">
        <g id="ABOUT-GSBOR" transform="translate(-1003.000000, -982.000000)">
            <g id="Group-7" transform="translate(1003.000000, 982.000000)">
                <path d="M0,57 C0,41.5154319 6.33874954,27.4883417 16.6129429,17.3379338 C26.820931,7.2529335 40.9189506,1 56.5,1 C72.0810494,1 86.179069,7.2529335 96.3870571,17.3379338 C106.66125,27.4883417 113,41.5154319 113,57 C113,72.4845681 106.66125,86.5116583 96.3870571,96.6620662 C86.179069,106.747066 72.0810494,113 56.5,113 C40.9189506,113 26.820931,106.747066 16.6129429,96.6620662 C6.33874954,86.5116583 0,72.4845681 0,57 Z" id="Oval-Copy-12" fill="#F5F5F5" transform="translate(56.500000, 57.000000) rotate(-270.000000) translate(-56.500000, -57.000000) "></path>
                <g id="Archive" transform="translate(31.000000, 34.000000)" fill="#05568B" fill-rule="nonzero">
                    <path d="M0.678571429,51 L12.0651694,51 L12.0651694,0 L0.678571429,0 L0.678571429,51 Z M6.3718704,7.65 C7.46207658,7.65 8.31001473,8.5 8.31001473,9.59285714 C8.31001473,10.6857143 7.46207658,11.4142857 6.3718704,11.4142857 C5.28166421,11.4142857 4.55486009,10.5642857 4.55486009,9.59285714 C4.55486009,8.62142857 5.40279823,7.65 6.3718704,7.65 L6.3718704,7.65 Z M2.61671576,20.4 L10.2481591,20.4 L10.2481591,21.7357143 L2.61671576,21.7357143 L2.61671576,20.4 Z M2.61671576,24.2857143 L10.2481591,24.2857143 L10.2481591,25.5 L2.61671576,25.5 L2.61671576,24.2857143 Z M2.61671576,28.05 L10.2481591,28.05 L10.2481591,29.2642857 L2.61671576,29.2642857 L2.61671576,28.05 Z M13.3976436,51 L23.5729013,51 L23.5729013,0 L13.3976436,0 L13.3976436,51 Z M18.4852725,7.65 C19.5754786,7.65 20.4234168,8.5 20.4234168,9.59285714 C20.4234168,10.6857143 19.5754786,11.5357143 18.4852725,11.5357143 C17.3950663,11.5357143 16.5471281,10.6857143 16.5471281,9.59285714 C16.5471281,8.5 17.3950663,7.65 18.4852725,7.65 L18.4852725,7.65 Z M14.7301178,20.4 L22.3615611,20.4 L22.3615611,21.7357143 L14.7301178,21.7357143 L14.7301178,20.4 L14.7301178,20.4 Z M14.7301178,24.2857143 L22.3615611,24.2857143 L22.3615611,25.5 L14.7301178,25.5 L14.7301178,24.2857143 L14.7301178,24.2857143 Z M14.7301178,28.05 L22.3615611,28.05 L22.3615611,29.2642857 L14.7301178,29.2642857 L14.7301178,28.05 L14.7301178,28.05 Z M24.9053756,51 L35.0806333,51 L35.0806333,0 L24.9053756,0 L24.9053756,51 Z M29.8718704,7.65 C30.9620766,7.65 31.8100147,8.5 31.8100147,9.59285714 C31.8100147,10.6857143 30.9620766,11.4142857 29.8718704,11.4142857 C28.7816642,11.4142857 27.9337261,10.5642857 27.9337261,9.47142857 C27.9337261,8.37857143 28.9027982,7.65 29.8718704,7.65 L29.8718704,7.65 Z M26.1167158,20.4 L33.7481591,20.4 L33.7481591,21.7357143 L26.1167158,21.7357143 L26.1167158,20.4 Z M26.1167158,24.2857143 L33.7481591,24.2857143 L33.7481591,25.5 L26.1167158,25.5 L26.1167158,24.2857143 Z M26.1167158,28.05 L33.7481591,28.05 L33.7481591,29.2642857 L26.1167158,29.2642857 L26.1167158,28.05 Z M36.2919735,0 L36.2919735,51 L47.6785714,51 L47.6785714,0 L36.2919735,0 Z M41.9852725,7.65 C43.0754786,7.65 43.9234168,8.5 43.9234168,9.59285714 C43.9234168,10.6857143 43.0754786,11.4142857 41.9852725,11.4142857 C40.8950663,11.4142857 40.0471281,10.5642857 40.0471281,9.47142857 C40.0471281,8.37857143 41.0162003,7.65 41.9852725,7.65 L41.9852725,7.65 Z M45.8615611,29.2642857 L38.2301178,29.2642857 L38.2301178,28.05 L45.8615611,28.05 L45.8615611,29.2642857 Z M45.8615611,25.5 L38.2301178,25.5 L38.2301178,24.2857143 L45.8615611,24.2857143 L45.8615611,25.5 Z M45.8615611,21.7357143 L38.2301178,21.7357143 L38.2301178,20.4 L45.8615611,20.4 L45.8615611,21.7357143 Z" id="Shape"></path>
                </g>
            </g>
        </g>
    </g>
</svg>