<?xml version="1.0" encoding="UTF-8"?>
<svg width="113px" height="114px" viewBox="0 0 113 114" version="1.1" xmlns="http://www.w3.org/2000/svg" xmlns:xlink="http://www.w3.org/1999/xlink">
    <!-- Generator: Sketch 63.1 (92452) - https://sketch.com -->
    <title>Group 6</title>
    <desc>Created with Sketch.</desc>
    <g id="Page-1" stroke="none" stroke-width="1" fill="none" fill-rule="evenodd">
        <g id="ABOUT-GSBOR" transform="translate(-667.000000, -1485.000000)">
            <g id="Group-6" transform="translate(667.000000, 1485.000000)">
                <path d="M0,57 C0,41.5154319 6.33874954,27.4883417 16.6129429,17.3379338 C26.820931,7.2529335 40.9189506,1 56.5,1 C72.0810494,1 86.179069,7.2529335 96.3870571,17.3379338 C106.66125,27.4883417 113,41.5154319 113,57 C113,72.4845681 106.66125,86.5116583 96.3870571,96.6620662 C86.179069,106.747066 72.0810494,113 56.5,113 C40.9189506,113 26.820931,106.747066 16.6129429,96.6620662 C6.33874954,86.5116583 0,72.4845681 0,57 Z" id="Oval-Copy-13" fill="#F5F5F5" transform="translate(56.500000, 57.000000) rotate(-270.000000) translate(-56.500000, -57.000000) "></path>
                <g id="noun_leader_925240" transform="translate(35.428571, 29.000000)" fill="#05568B" fill-rule="nonzero">
                    <g id="Group" transform="translate(0.571429, 0.000000)">
                        <path d="M45.8505936,0.152196923 L26.3064841,0.151532308 L26.3064841,22.5942646 L7.04920207,22.5942646 C3.24475352,22.5942646 0.149406366,25.6927015 0.149406366,29.5009477 L0.149406366,41.4653538 C0.149406366,43.1282215 1.50121392,44.4813785 3.16242339,44.4813785 L3.88745966,44.4813785 L3.88745966,56.9508923 C3.88745966,58.61376 5.23926721,59.9662523 6.90047668,59.9662523 L12.599846,59.9662523 C14.2610555,59.9662523 15.6128631,58.61376 15.6128631,56.9508923 L15.6128631,29.0736 L25.6013664,29.0736 C25.8357417,29.0736 26.0714449,29.0589785 26.3064841,29.0297354 L26.3064841,41.8043077 L29.8592946,41.8043077 L29.8592946,27.2306215 C30.8665107,26.1652431 31.4321984,24.78816 31.4600844,23.31936 L31.4733634,22.5949292 L29.8586306,22.5949292 L29.8586306,13.1926154 L45.8499297,13.1926154 L41.0761103,6.88740923 C40.9805011,6.76046769 40.9805011,6.58368 41.0761103,6.45740308 L45.8505936,0.152196923 Z" id="Path"></path>
                        <path d="M9.75016136,20.1119262 C13.3939334,20.1119262 16.3584819,17.1444185 16.3584819,13.4976738 C16.3584819,9.85092923 13.3939334,6.88342154 9.75016136,6.88342154 C6.10638934,6.88342154 3.14184086,9.85092923 3.14184086,13.4976738 C3.14184086,17.1444185 6.10638934,20.1119262 9.75016136,20.1119262 Z" id="Path"></path>
                    </g>
                </g>
            </g>
        </g>
    </g>
</svg>