<svg id="Layer_1" data-name="Layer 1" xmlns="http://www.w3.org/2000/svg" xmlns:xlink="http://www.w3.org/1999/xlink" viewBox="0 0 320.02 77"><defs><style>.cls-1{fill:none;}.cls-2{clip-path:url(#clip-path);}.cls-3{fill:#1f6a95;}.cls-4{fill:#f2b826;}.cls-5{fill:#009c77;}.cls-6{font-size:20.85px;}.cls-11,.cls-6,.cls-7,.cls-8{fill:#010101;}.cls-11,.cls-6,.cls-8{font-family:Arial-BoldMT, Arial;font-weight:700;}.cls-7,.cls-8{font-size:19.29px;}.cls-7{font-family:ArialMT, Arial;}.cls-9{letter-spacing:-0.07em;}.cls-10{letter-spacing:-0.02em;}.cls-11{font-size:11.24px;}</style><clipPath id="clip-path" transform="translate(0 0)"><rect class="cls-1" width="320.02" height="77"/></clipPath></defs><title>gsbor_logo</title><g class="cls-2"><path class="cls-3" d="M64.76,17.6V0H41.25V18.59a16.77,16.77,0,0,1,5.43,2.56,11.29,11.29,0,0,1,5,9v21a77.6,77.6,0,0,1,15.92-2c7.85,0,12.19,2.32,12.19,2.32V17.6Z" transform="translate(0 0)"/><path class="cls-4" d="M28.18,57l0-13.27L14.22,35.89,0,43.93v9.54a44.13,44.13,0,0,0,18.29,4.47,61.53,61.53,0,0,0,9.89-.9" transform="translate(0 0)"/><path class="cls-3" d="M31.11,56.52c4.65-.92,8-2,8-2s3.81-1.29,9.17-2.62V30.17c0-4.92-5.49-8.91-12.27-8.91s-12.26,4-12.26,8.91v7.75l7.31,4.14Z" transform="translate(0 0)"/><path class="cls-5" d="M30.34,59.33a66.72,66.72,0,0,1-12,1.28A44.05,44.05,0,0,1,0,56.13V77H49.07C44.83,64.39,32.69,60.06,30.34,59.33" transform="translate(0 0)"/><path class="cls-5" d="M39.12,57.24s-2.58.79-6.35,1.6c7.66.74,34.11,4.24,47,18.16V54.14s-4.34-2.32-12.19-2.32c-12.54,0-28.46,5.42-28.46,5.42" transform="translate(0 0)"/></g><text class="cls-6" transform="translate(87.35 42.15)">Greater Springfield</text><text class="cls-7" transform="translate(87.35 63.9)">Board of </text><text class="cls-8" transform="translate(165.62 63.9)">REA<tspan class="cls-9" x="40.72" y="0">L</tspan><tspan class="cls-10" x="51.08" y="0">T</tspan><tspan x="62.51" y="0">ORS</tspan></text><text class="cls-11" transform="translate(269.93 57.48)">®</text><g class="cls-2"><text class="cls-7" transform="translate(278.21 63.9)">, Inc.</text></g></svg>