<?xml version="1.0" encoding="UTF-8"?>
<svg width="318px" height="77px" viewBox="0 0 318 77" version="1.1" xmlns="http://www.w3.org/2000/svg" xmlns:xlink="http://www.w3.org/1999/xlink">
    <!-- Generator: Sketch 63.1 (92452) - https://sketch.com -->
    <title>Group 2 Copy 3</title>
    <desc>Created with Sketch.</desc>
    <g id="Menu" stroke="none" stroke-width="1" fill="none" fill-rule="evenodd">
        <g id="01-NAVBAR" transform="translate(-46.000000, -58.000000)" fill-rule="nonzero">
            <g id="Group-2-Copy-3" transform="translate(46.000000, 58.000000)">
                <path d="M64.8,17.6 L64.8,0 L41.2,0 L41.2,18.6 C43.2,19.1 45.1,20 46.6,21.2 C49.8,23.5 51.6,26.8 51.6,30.2 L51.6,51.2 C56.6,50.1 62.3,49.2 67.5,49.2 C75.3,49.2 79.7,51.5 79.7,51.5 L79.7,17.6 L64.8,17.6 Z" id="Path" fill="#05568B"></path>
                <path d="M28.2,57 L28.2,43.7 L14.3,35.8 L3.64153152e-13,43.9 L3.64153152e-13,53.4 C3.64153152e-13,53.4 8.5,57.9 18.3,57.9 C21.6,57.9 25.1,57.6 28.2,57 Z" id="Path" fill="#FFD100"></path>
                <path d="M31.1,56.5 C35.8,55.6 39.1,54.6 39.1,54.6 C39.1,54.6 42.9,53.3 48.3,52 L48.3,30.2 C48.3,25.3 42.8,21.3 36,21.3 C29.2,21.3 23.7,25.3 23.7,30.2 L23.7,37.9 L31,42 L31.1,56.5 Z" id="Path" fill="#05568B"></path>
                <path d="M30.3,59.3 C26.7,60 22.3,60.6 18.2,60.6 C8.5,60.6 -7.28306304e-13,56.1 -7.28306304e-13,56.1 L-7.28306304e-13,77 L49.1,77 C44.8,64.4 32.7,60.1 30.3,59.3 Z" id="Path" fill="#01835E"></path>
                <path d="M39.1,57.2 C39.1,57.2 36.5,58 32.8,58.8 C40.5,59.5 66.9,63 79.8,77 L79.8,77 L79.8,54.1 C79.8,54.1 75.5,51.8 67.6,51.8 C55,51.8 39.1,57.2 39.1,57.2 Z" id="Path" fill="#01835E"></path>
                <g id="Group" transform="translate(87.992920, 26.893433)" fill="#2C2C2C">
                    <path d="M7.53808594,15.3598633 C8.76066081,15.3598633 9.96803792,15.1285197 11.1602173,14.6658325 C12.3523966,14.2031453 13.2625732,13.6678467 13.8907471,13.0599365 L13.8907471,13.0599365 L13.8907471,7.14294434 L7.42663574,7.14294434 L7.42663574,9.64550781 L10.8613281,9.64550781 L10.8613281,11.5300293 C10.4087728,11.8812663 9.86671956,12.1801554 9.23516846,12.4266968 C8.60361735,12.6732381 7.97375488,12.7965088 7.34558105,12.7965088 C6.07572428,12.7965088 5.04903158,12.3557739 4.26550293,11.4743042 C3.48197428,10.5928345 3.09020996,9.27062988 3.09020996,7.50769043 C3.09020996,5.87308757 3.47690837,4.64038086 4.25030518,3.80957031 C5.02370199,2.97875977 6.06559245,2.56335449 7.37597656,2.56335449 C8.2405599,2.56335449 8.96160889,2.77443441 9.53912354,3.19659424 C10.1166382,3.61875407 10.5100911,4.19458008 10.7194824,4.92407227 L10.7194824,4.92407227 L13.6982422,4.36682129 C13.4010417,3.00240072 12.7340291,1.93349202 11.6972046,1.16009521 C10.66038,0.386698405 9.2199707,0 7.37597656,0 C5.95751953,0 4.77209473,0.246541341 3.81970215,0.739624023 C2.57010905,1.38130697 1.62109375,2.30330404 0.97265625,3.50561523 C0.32421875,4.70792643 0,6.08247884 0,7.62927246 C0,9.05448405 0.290445964,10.3733114 0.871337891,11.5857544 C1.45222982,12.7981974 2.32019043,13.7303263 3.47521973,14.3821411 C4.63024902,15.0339559 5.98453776,15.3598633 7.53808594,15.3598633 Z M19.3619385,15.1065674 L19.3619385,11.7833252 C19.3619385,9.95284017 19.4413045,8.75052897 19.6000366,8.1763916 C19.7587687,7.60225423 19.9766032,7.20542399 20.25354,6.98590088 C20.5304769,6.76637777 20.8682048,6.65661621 21.2667236,6.65661621 C21.6787516,6.65661621 22.1245524,6.81197103 22.604126,7.12268066 L22.604126,7.12268066 L23.4855957,4.64038086 C22.8844401,4.28238932 22.2596436,4.10339355 21.6112061,4.10339355 C21.1518962,4.10339355 20.7415568,4.21822103 20.380188,4.44787598 C20.0188192,4.67753092 19.6118571,5.15372721 19.1593018,5.87646484 L19.1593018,5.87646484 L19.1593018,4.34655762 L16.5148926,4.34655762 L16.5148926,15.1065674 L19.3619385,15.1065674 Z M29.0986328,15.3497314 C30.2806803,15.3497314 31.2651571,15.0778605 32.052063,14.5341187 C32.8389689,13.9903768 33.4147949,13.1984049 33.779541,12.1582031 L33.779541,12.1582031 L30.942627,11.6820068 C30.7872721,12.2223714 30.5576172,12.6141357 30.2536621,12.8572998 C29.949707,13.1004639 29.5748291,13.2220459 29.1290283,13.2220459 C28.4738363,13.2220459 27.9267171,12.987325 27.4876709,12.5178833 C27.0486247,12.0484416 26.8189697,11.3915609 26.7987061,10.5472412 L26.7987061,10.5472412 L33.9315186,10.5472412 C33.9720459,8.36551921 33.5296224,6.7461141 32.604248,5.68902588 C31.6788737,4.63193766 30.4157715,4.10339355 28.8149414,4.10339355 C27.3897298,4.10339355 26.2110596,4.60829671 25.2789307,5.61810303 C24.3468018,6.62790934 23.8807373,8.02441406 23.8807373,9.80761719 C23.8807373,11.3003743 24.2353516,12.5364583 24.9445801,13.5158691 C25.8429362,14.738444 27.2276204,15.3497314 29.0986328,15.3497314 Z M31.1047363,8.80456543 L26.8493652,8.80456543 C26.8426107,8.02779134 27.0418701,7.41312663 27.4471436,6.96057129 C27.852417,6.50801595 28.3657633,6.28173828 28.9871826,6.28173828 C29.5680745,6.28173828 30.0611572,6.49619548 30.4664307,6.92510986 C30.8717041,7.35402425 31.0844727,7.98050944 31.1047363,8.80456543 L31.1047363,8.80456543 Z M39.0784912,15.3497314 C39.706665,15.3497314 40.2976888,15.2315267 40.8515625,14.9951172 C41.4054362,14.7587077 41.9255371,14.4040934 42.4118652,13.9312744 C42.4321289,13.9853109 42.4659017,14.0967611 42.5131836,14.265625 C42.6212565,14.6371257 42.712443,14.9174398 42.7867432,15.1065674 L42.7867432,15.1065674 L45.6033936,15.1065674 C45.3534749,14.593221 45.1829224,14.1119588 45.0917358,13.6627808 C45.0005493,13.2136027 44.9549561,12.5161947 44.9549561,11.5705566 L44.9549561,11.5705566 L44.9853516,8.24731445 C44.9853516,7.01123047 44.8587036,6.16184489 44.6054077,5.69915771 C44.3521118,5.23647054 43.9147542,4.85483805 43.293335,4.55426025 C42.6719157,4.25368245 41.7262777,4.10339355 40.4564209,4.10339355 C39.0582275,4.10339355 38.0045166,4.35331217 37.2952881,4.85314941 C36.5860596,5.35298665 36.0862223,6.12300618 35.7957764,7.16320801 L35.7957764,7.16320801 L38.3793945,7.62927246 C38.555013,7.12943522 38.784668,6.77988688 39.0683594,6.58062744 C39.3520508,6.381368 39.7471924,6.28173828 40.2537842,6.28173828 C41.00354,6.28173828 41.5135091,6.39825439 41.7836914,6.63128662 C42.0538737,6.86431885 42.1889648,7.25439453 42.1889648,7.80151367 L42.1889648,7.80151367 L42.1889648,8.08520508 C41.6756185,8.30135091 40.7536214,8.53438314 39.4229736,8.78430176 C38.4368083,8.97342936 37.6819865,9.19464111 37.1585083,9.44793701 C36.6350301,9.70123291 36.228068,10.065979 35.9376221,10.5421753 C35.6471761,11.0183716 35.5019531,11.5604248 35.5019531,12.168335 C35.5019531,13.0869548 35.821106,13.8468424 36.4594116,14.447998 C37.0977173,15.0491536 37.9707438,15.3497314 39.0784912,15.3497314 Z M39.9295654,13.3436279 C39.4702555,13.3436279 39.0920003,13.1984049 38.7947998,12.907959 C38.4975993,12.617513 38.348999,12.2730306 38.348999,11.8745117 C38.348999,11.4692383 38.5347493,11.1348877 38.90625,10.87146 C39.1494141,10.7093506 39.6661377,10.5438639 40.4564209,10.375 C41.2467041,10.2061361 41.8242188,10.0609131 42.1889648,9.93933105 L42.1889648,9.93933105 L42.1889648,10.5067139 C42.1889648,11.1889242 42.1518148,11.6516113 42.0775146,11.8947754 C41.9694417,12.266276 41.7431641,12.580363 41.3986816,12.8370361 C40.9326172,13.174764 40.4429118,13.3436279 39.9295654,13.3436279 Z M50.7098389,15.3497314 C51.547404,15.3497314 52.2971598,15.2078857 52.9591064,14.9241943 L52.9591064,14.9241943 L52.7159424,12.7154541 C52.2161051,12.8978271 51.8344727,12.9890137 51.5710449,12.9890137 C51.3819173,12.9890137 51.2214966,12.9417318 51.0897827,12.847168 C50.9580688,12.7526042 50.8736369,12.6327108 50.8364868,12.4874878 C50.7993368,12.3422648 50.7807617,11.8306071 50.7807617,10.9525146 L50.7807617,10.9525146 L50.7807617,6.61608887 L52.7260742,6.61608887 L52.7260742,4.34655762 L50.7807617,4.34655762 L50.7807617,0.547119141 L47.923584,2.20874023 L47.923584,4.34655762 L46.6165771,4.34655762 L46.6165771,6.61608887 L47.923584,6.61608887 L47.923584,11.3071289 C47.923584,12.3135579 47.9539795,12.9822591 48.0147705,13.3132324 C48.0890706,13.7792969 48.2224731,14.1491089 48.414978,14.4226685 C48.6074829,14.696228 48.9097493,14.9191284 49.3217773,15.0913696 C49.7338053,15.2636108 50.1964925,15.3497314 50.7098389,15.3497314 Z M59.0888672,15.3497314 C60.2709147,15.3497314 61.2553914,15.0778605 62.0422974,14.5341187 C62.8292033,13.9903768 63.4050293,13.1984049 63.7697754,12.1582031 L63.7697754,12.1582031 L60.9328613,11.6820068 C60.7775065,12.2223714 60.5478516,12.6141357 60.2438965,12.8572998 C59.9399414,13.1004639 59.5650635,13.2220459 59.1192627,13.2220459 C58.4640706,13.2220459 57.9169515,12.987325 57.4779053,12.5178833 C57.038859,12.0484416 56.8092041,11.3915609 56.7889404,10.5472412 L56.7889404,10.5472412 L63.9217529,10.5472412 C63.9622803,8.36551921 63.5198568,6.7461141 62.5944824,5.68902588 C61.6691081,4.63193766 60.4060059,4.10339355 58.8051758,4.10339355 C57.3799642,4.10339355 56.2012939,4.60829671 55.269165,5.61810303 C54.3370361,6.62790934 53.8709717,8.02441406 53.8709717,9.80761719 C53.8709717,11.3003743 54.2255859,12.5364583 54.9348145,13.5158691 C55.8331706,14.738444 57.2178548,15.3497314 59.0888672,15.3497314 Z M61.0949707,8.80456543 L56.8395996,8.80456543 C56.8328451,8.02779134 57.0321045,7.41312663 57.4373779,6.96057129 C57.8426514,6.50801595 58.3559977,6.28173828 58.977417,6.28173828 C59.5583089,6.28173828 60.0513916,6.49619548 60.456665,6.92510986 C60.8619385,7.35402425 61.074707,7.98050944 61.0949707,8.80456543 L61.0949707,8.80456543 Z M68.9674072,15.1065674 L68.9674072,11.7833252 C68.9674072,9.95284017 69.0467733,8.75052897 69.2055054,8.1763916 C69.3642375,7.60225423 69.5820719,7.20542399 69.8590088,6.98590088 C70.1359456,6.76637777 70.4736735,6.65661621 70.8721924,6.65661621 C71.2842204,6.65661621 71.7300212,6.81197103 72.2095947,7.12268066 L72.2095947,7.12268066 L73.0910645,4.64038086 C72.4899089,4.28238932 71.8651123,4.10339355 71.2166748,4.10339355 C70.7573649,4.10339355 70.3470256,4.21822103 69.9856567,4.44787598 C69.6242879,4.67753092 69.2173258,5.15372721 68.7647705,5.87646484 L68.7647705,5.87646484 L68.7647705,4.34655762 L66.1203613,4.34655762 L66.1203613,15.1065674 L68.9674072,15.1065674 Z M85.472168,15.3699951 C86.7622884,15.3699951 87.8396403,15.1893107 88.7042236,14.8279419 C89.568807,14.4665731 90.2375081,13.914388 90.7103271,13.1713867 C91.1831462,12.4283854 91.4195557,11.6313477 91.4195557,10.7802734 C91.4195557,9.84138997 91.2219849,9.05279541 90.8268433,8.41448975 C90.4317017,7.77618408 89.8845825,7.27296956 89.1854858,6.90484619 C88.4863892,6.53672282 87.4073486,6.18041992 85.9483643,5.8359375 C84.4893799,5.49145508 83.5707601,5.16048177 83.1925049,4.84301758 C82.8953044,4.59309896 82.7467041,4.29252116 82.7467041,3.94128418 C82.7467041,3.55627441 82.9054362,3.24894206 83.2229004,3.01928711 C83.7159831,2.66129557 84.3981934,2.4822998 85.2695312,2.4822998 C86.1138509,2.4822998 86.7470907,2.6494751 87.1692505,2.98382568 C87.5914103,3.31817627 87.8666585,3.86698405 87.9949951,4.63024902 L87.9949951,4.63024902 L90.9940186,4.49853516 C90.9467367,3.13411458 90.4519653,2.04325358 89.5097046,1.22595215 C88.5674438,0.408650716 87.1641846,0 85.2999268,0 C84.1584066,0 83.1840617,0.172241211 82.3768921,0.516723633 C81.5697225,0.861206055 80.9516805,1.36273193 80.5227661,2.02130127 C80.0938517,2.67987061 79.8793945,3.38741048 79.8793945,4.1439209 C79.8793945,5.31921387 80.3353271,6.31551107 81.2471924,7.1328125 C81.8956299,7.71370443 83.023641,8.20340983 84.6312256,8.60192871 C85.8808187,8.91263835 86.6812337,9.12878418 87.0324707,9.25036621 C87.5458171,9.43273926 87.9054972,9.64719645 88.1115112,9.89373779 C88.3175252,10.1402791 88.4205322,10.4391683 88.4205322,10.7904053 C88.4205322,11.3375244 88.1756795,11.8154093 87.6859741,12.2240601 C87.1962687,12.6327108 86.4684652,12.8370361 85.5025635,12.8370361 C84.5906982,12.8370361 83.866272,12.6073812 83.3292847,12.1480713 C82.7922974,11.6887614 82.4359945,10.969401 82.260376,9.98999023 L82.260376,9.98999023 L79.3424072,10.2736816 C79.5382894,11.9353027 80.139445,13.2000936 81.145874,14.0680542 C82.1523031,14.9360148 83.594401,15.3699951 85.472168,15.3699951 Z M96.6881104,19.1998291 L96.6881104,13.7792969 C97.2217204,14.3534342 97.7300008,14.7587077 98.2129517,14.9951172 C98.6959025,15.2315267 99.2345785,15.3497314 99.8289795,15.3497314 C101.078573,15.3497314 102.142415,14.8515828 103.020508,13.8552856 C103.8986,12.8589884 104.337646,11.4624837 104.337646,9.66577148 C104.337646,7.91634115 103.901978,6.55192057 103.03064,5.57250977 C102.159302,4.59309896 101.098836,4.10339355 99.8492432,4.10339355 C99.1332601,4.10339355 98.4814453,4.27225749 97.8937988,4.60998535 C97.3061523,4.94771322 96.8400879,5.38675944 96.4956055,5.92712402 L96.4956055,5.92712402 L96.4956055,4.34655762 L93.8410645,4.34655762 L93.8410645,19.1998291 L96.6881104,19.1998291 Z M99.1298828,13.090332 C98.440918,13.090332 97.8566488,12.8015747 97.3770752,12.2240601 C96.8975016,11.6465454 96.6577148,10.7532552 96.6577148,9.54418945 C96.6577148,8.49047852 96.8873698,7.69512939 97.3466797,7.15814209 C97.8059896,6.62115479 98.3835042,6.35266113 99.0792236,6.35266113 C99.7479248,6.35266113 100.308553,6.6262207 100.761108,7.17333984 C101.213664,7.72045898 101.439941,8.55802409 101.439941,9.68603516 C101.439941,10.8951009 101.220418,11.7647502 100.781372,12.2949829 C100.342326,12.8252157 99.7918294,13.090332 99.1298828,13.090332 Z M109.32251,15.1065674 L109.32251,11.7833252 C109.32251,9.95284017 109.401876,8.75052897 109.560608,8.1763916 C109.71934,7.60225423 109.937174,7.20542399 110.214111,6.98590088 C110.491048,6.76637777 110.828776,6.65661621 111.227295,6.65661621 C111.639323,6.65661621 112.085124,6.81197103 112.564697,7.12268066 L112.564697,7.12268066 L113.446167,4.64038086 C112.845011,4.28238932 112.220215,4.10339355 111.571777,4.10339355 C111.112467,4.10339355 110.702128,4.21822103 110.340759,4.44787598 C109.97939,4.67753092 109.572428,5.15372721 109.119873,5.87646484 L109.119873,5.87646484 L109.119873,4.34655762 L106.475464,4.34655762 L106.475464,15.1065674 L109.32251,15.1065674 Z M117.519165,2.88757324 L117.519165,0.253295898 L114.672119,0.253295898 L114.672119,2.88757324 L117.519165,2.88757324 Z M117.519165,15.1065674 L117.519165,4.34655762 L114.672119,4.34655762 L114.672119,15.1065674 L117.519165,15.1065674 Z M123.263916,15.1065674 L123.263916,10.2331543 C123.263916,9.0308431 123.336528,8.20678711 123.48175,7.76098633 C123.626973,7.31518555 123.895467,6.95719401 124.287231,6.68701172 C124.678996,6.41682943 125.121419,6.28173828 125.614502,6.28173828 C125.999512,6.28173828 126.328796,6.37630208 126.602356,6.56542969 C126.875916,6.75455729 127.073486,7.01967367 127.195068,7.36077881 C127.31665,7.70188395 127.377441,8.45332845 127.377441,9.6151123 L127.377441,9.6151123 L127.377441,15.1065674 L130.224487,15.1065674 L130.224487,8.41955566 C130.224487,7.58874512 130.172139,6.95043945 130.067444,6.50463867 C129.962748,6.05883789 129.776998,5.66031901 129.510193,5.30908203 C129.243388,4.95784505 128.849935,4.66908773 128.329834,4.44281006 C127.809733,4.21653239 127.235596,4.10339355 126.607422,4.10339355 C125.18221,4.10339355 124.000163,4.71130371 123.061279,5.92712402 L123.061279,5.92712402 L123.061279,4.34655762 L120.41687,4.34655762 L120.41687,15.1065674 L123.263916,15.1065674 Z M137.863892,19.4733887 C138.829793,19.4733887 139.62852,19.3720703 140.260071,19.1694336 C140.891622,18.9667969 141.396525,18.6864827 141.77478,18.3284912 C142.153035,17.9704997 142.446859,17.477417 142.65625,16.8492432 C142.865641,16.2210693 142.970337,15.272054 142.970337,14.0021973 L142.970337,14.0021973 L142.970337,4.34655762 L140.305664,4.34655762 L140.305664,5.85620117 C139.441081,4.68766276 138.343465,4.10339355 137.012817,4.10339355 C135.722697,4.10339355 134.643656,4.57958984 133.775696,5.53198242 C132.907735,6.484375 132.473755,7.86230469 132.473755,9.66577148 C132.473755,11.1044922 132.804728,12.3068034 133.466675,13.2727051 C134.310994,14.4952799 135.455892,15.1065674 136.901367,15.1065674 C138.198242,15.1065674 139.272217,14.5256755 140.123291,13.3638916 L140.123291,13.3638916 L140.123291,14.9343262 C140.123291,15.5692546 140.079386,16.0049235 139.991577,16.241333 C139.863241,16.5723063 139.674113,16.8120931 139.424194,16.9606934 C139.052694,17.1835938 138.495443,17.2950439 137.752441,17.2950439 C137.171549,17.2950439 136.746012,17.1937256 136.47583,16.9910889 C136.279948,16.8492432 136.154989,16.5891927 136.100952,16.2109375 L136.100952,16.2109375 L132.848633,15.8157959 C132.841878,15.950887 132.838501,16.0657145 132.838501,16.1602783 C132.838501,17.1194255 133.220133,17.9113973 133.983398,18.5361938 C134.746663,19.1609904 136.040161,19.4733887 137.863892,19.4733887 Z M137.69165,12.8066406 C137.043213,12.8066406 136.497782,12.5415243 136.055359,12.0112915 C135.612935,11.4810588 135.391724,10.6451823 135.391724,9.50366211 C135.391724,8.41617839 135.612935,7.60732015 136.055359,7.0770874 C136.497782,6.54685465 137.060099,6.28173828 137.74231,6.28173828 C138.444784,6.28173828 139.025675,6.55192057 139.484985,7.09228516 C139.944295,7.63264974 140.17395,8.46008301 140.17395,9.57458496 C140.17395,10.641805 139.934163,11.447286 139.45459,11.9910278 C138.975016,12.5347697 138.38737,12.8066406 137.69165,12.8066406 Z M148.968384,15.1065674 L148.968384,6.58569336 L151.096069,6.58569336 L151.096069,4.34655762 L148.968384,4.34655762 L148.968384,3.58666992 C148.968384,3.03955078 149.057882,2.66973877 149.236877,2.47723389 C149.415873,2.284729 149.711385,2.18847656 150.123413,2.18847656 C150.542196,2.18847656 150.977865,2.24251302 151.43042,2.35058594 L151.43042,2.35058594 L151.81543,0.364746094 C151.038656,0.121582031 150.244995,0 149.434448,0 C148.644165,0 147.990662,0.140157064 147.473938,0.420471191 C146.957214,0.700785319 146.6026,1.06384277 146.410095,1.50964355 C146.21759,1.95544434 146.121338,2.63090007 146.121338,3.53601074 L146.121338,3.53601074 L146.121338,4.34655762 L144.540771,4.34655762 L144.540771,6.58569336 L146.121338,6.58569336 L146.121338,15.1065674 L148.968384,15.1065674 Z M155.543945,2.88757324 L155.543945,0.253295898 L152.696899,0.253295898 L152.696899,2.88757324 L155.543945,2.88757324 Z M155.543945,15.1065674 L155.543945,4.34655762 L152.696899,4.34655762 L152.696899,15.1065674 L155.543945,15.1065674 Z M162.848999,15.3497314 C164.031047,15.3497314 165.015523,15.0778605 165.802429,14.5341187 C166.589335,13.9903768 167.165161,13.1984049 167.529907,12.1582031 L167.529907,12.1582031 L164.692993,11.6820068 C164.537638,12.2223714 164.307983,12.6141357 164.004028,12.8572998 C163.700073,13.1004639 163.325195,13.2220459 162.879395,13.2220459 C162.224202,13.2220459 161.677083,12.987325 161.238037,12.5178833 C160.798991,12.0484416 160.569336,11.3915609 160.549072,10.5472412 L160.549072,10.5472412 L167.681885,10.5472412 C167.722412,8.36551921 167.279989,6.7461141 166.354614,5.68902588 C165.42924,4.63193766 164.166138,4.10339355 162.565308,4.10339355 C161.140096,4.10339355 159.961426,4.60829671 159.029297,5.61810303 C158.097168,6.62790934 157.631104,8.02441406 157.631104,9.80761719 C157.631104,11.3003743 157.985718,12.5364583 158.694946,13.5158691 C159.593302,14.738444 160.977987,15.3497314 162.848999,15.3497314 Z M164.855103,8.80456543 L160.599731,8.80456543 C160.592977,8.02779134 160.792236,7.41312663 161.19751,6.96057129 C161.602783,6.50801595 162.11613,6.28173828 162.737549,6.28173828 C163.318441,6.28173828 163.811523,6.49619548 164.216797,6.92510986 C164.62207,7.35402425 164.834839,7.98050944 164.855103,8.80456543 L164.855103,8.80456543 Z M172.849121,15.1065674 L172.849121,0.253295898 L170.002075,0.253295898 L170.002075,15.1065674 L172.849121,15.1065674 Z M179.627319,15.3497314 C180.235229,15.3497314 180.838074,15.1994425 181.435852,14.8988647 C182.03363,14.5982869 182.552043,14.1406657 182.991089,13.526001 L182.991089,13.526001 L182.991089,15.1065674 L185.635498,15.1065674 L185.635498,0.253295898 L182.788452,0.253295898 L182.788452,5.60290527 C181.91036,4.60323079 180.870158,4.10339355 179.667847,4.10339355 C178.357463,4.10339355 177.273356,4.5779012 176.415527,5.5269165 C175.557699,6.4759318 175.128784,7.86230469 175.128784,9.68603516 C175.128784,11.4692383 175.569519,12.8589884 176.450989,13.8552856 C177.332458,14.8515828 178.391235,15.3497314 179.627319,15.3497314 Z M180.437866,13.1004639 C179.61381,13.1004639 178.972127,12.7289632 178.512817,11.9859619 C178.195353,11.4726156 178.036621,10.641805 178.036621,9.49353027 C178.036621,8.42631022 178.264587,7.62420654 178.72052,7.08721924 C179.176453,6.55023193 179.742147,6.28173828 180.417603,6.28173828 C181.113322,6.28173828 181.684082,6.55360921 182.129883,7.09735107 C182.575684,7.64109294 182.798584,8.53100586 182.798584,9.76708984 C182.798584,10.8748372 182.568929,11.7073364 182.109619,12.2645874 C181.650309,12.8218384 181.093058,13.1004639 180.437866,13.1004639 Z" id="GreaterSpringfield"></path>
                    <path d="M5.67126465,37.1065674 C6.54854329,37.1065674 7.28953044,37.0298055 7.89422607,36.8762817 C8.49892171,36.722758 9.00179036,36.4956055 9.40283203,36.1948242 C9.8038737,35.894043 10.140686,35.4663696 10.413269,34.9118042 C10.6858521,34.3572388 10.8221436,33.7572428 10.8221436,33.1118164 C10.8221436,32.3097331 10.5981242,31.6141764 10.1500854,31.0251465 C9.70204671,30.4361165 9.06131999,30.0194092 8.22790527,29.7750244 C8.87333171,29.4554443 9.35583496,29.0356038 9.67541504,28.5155029 C9.99499512,27.995402 10.1547852,27.4408366 10.1547852,26.8518066 C10.1547852,26.2189128 9.97462972,25.6126506 9.61431885,25.03302 C9.25400798,24.4533895 8.75583903,24.0241496 8.11981201,23.7453003 C7.48378499,23.466451 6.6394043,23.3270264 5.58666992,23.3270264 L5.58666992,23.3270264 L0.416992188,23.3270264 L0.416992188,37.1065674 L5.67126465,37.1065674 Z M5.22009277,29.1170654 L2.24047852,29.1170654 L2.24047852,24.953125 L4.99450684,24.953125 C5.98457845,24.953125 6.68326823,25.0173543 7.09057617,25.145813 C7.49788411,25.2742716 7.81119792,25.5123901 8.03051758,25.8601685 C8.24983724,26.2079468 8.35949707,26.610555 8.35949707,27.0679932 C8.35949707,27.5504964 8.24200439,27.9515381 8.00701904,28.2711182 C7.77203369,28.5906982 7.4226888,28.8194173 6.95898438,28.9572754 C6.60807292,29.0638021 6.02844238,29.1170654 5.22009277,29.1170654 L5.22009277,29.1170654 Z M5.67126465,35.4804688 L2.24047852,35.4804688 L2.24047852,30.7431641 L5.42687988,30.7431641 C6.30415853,30.7431641 6.97621663,30.8199259 7.4430542,30.9734497 C7.90989176,31.1269735 8.27490234,31.3932902 8.53808594,31.7723999 C8.80126953,32.1515096 8.93286133,32.5979818 8.93286133,33.1118164 C8.93286133,33.5504557 8.84200033,33.9373983 8.66027832,34.272644 C8.47855632,34.6078898 8.2467041,34.8632406 7.96472168,35.0386963 C7.68273926,35.214152 7.3318278,35.3394775 6.9119873,35.4146729 C6.67386882,35.4585368 6.2602946,35.4804688 5.67126465,35.4804688 L5.67126465,35.4804688 Z M17.166748,37.3321533 C18.0377604,37.3321533 18.8414103,37.1284993 19.5776978,36.7211914 C20.3139852,36.3138835 20.8748169,35.7420858 21.2601929,35.0057983 C21.6455688,34.2695109 21.8382568,33.2590739 21.8382568,31.9744873 C21.8382568,30.3891195 21.4027507,29.1468302 20.5317383,28.2476196 C19.6607259,27.348409 18.5390625,26.8988037 17.166748,26.8988037 C15.9322917,26.8988037 14.8858236,27.268514 14.0273438,28.0079346 C12.9996745,28.8977458 12.4858398,30.2669271 12.4858398,32.1154785 C12.4858398,33.8011068 12.9166463,35.0919596 13.7782593,35.9880371 C14.6398722,36.8841146 15.7693685,37.3321533 17.166748,37.3321533 Z M17.166748,35.94104 C16.3208008,35.94104 15.6189779,35.6230265 15.0612793,34.9869995 C14.5035807,34.3509725 14.2247314,33.3937988 14.2247314,32.1154785 C14.2247314,30.8371582 14.5035807,29.8815511 15.0612793,29.2486572 C15.6189779,28.6157633 16.3208008,28.2993164 17.166748,28.2993164 C18.0001628,28.2993164 18.697286,28.6173299 19.2581177,29.2533569 C19.8189494,29.889384 20.0993652,30.8246257 20.0993652,32.059082 C20.0993652,33.3687337 19.820516,34.3431396 19.2628174,34.9822998 C18.7051188,35.62146 18.006429,35.94104 17.166748,35.94104 Z M26.6601563,37.3321533 C27.3243815,37.3321533 27.9463094,37.2224935 28.5259399,37.0031738 C29.1055705,36.7838542 29.7086995,36.4078776 30.3353271,35.8752441 C30.3854574,36.3452148 30.4982503,36.7556559 30.6737061,37.1065674 L30.6737061,37.1065674 L32.4407959,37.1065674 C32.2277425,36.7243245 32.0851847,36.3248494 32.0131226,35.9081421 C31.9410604,35.4914347 31.9050293,34.4966634 31.9050293,32.9238281 L31.9050293,32.9238281 L31.9050293,30.6679688 C31.9050293,29.9160156 31.8768311,29.3959147 31.8204346,29.107666 C31.7201742,28.6439616 31.5447184,28.2601522 31.2940674,27.9562378 C31.0434163,27.6523234 30.6517741,27.4001058 30.1191406,27.199585 C29.5865072,26.9990641 28.8940837,26.8988037 28.0418701,26.8988037 C27.1833903,26.8988037 26.428304,27.0162964 25.7766113,27.2512817 C25.1249186,27.4862671 24.6267497,27.8215129 24.2821045,28.257019 C23.9374593,28.6925252 23.6899414,29.2643229 23.5395508,29.9724121 L23.5395508,29.9724121 L25.1938477,30.197998 C25.3755697,29.4899089 25.6559855,28.9964396 26.0350952,28.7175903 C26.4142049,28.438741 27.0016683,28.2993164 27.7974854,28.2993164 C28.6496989,28.2993164 29.2919922,28.4904378 29.7243652,28.8726807 C30.0439453,29.1546631 30.2037354,29.6402995 30.2037354,30.3295898 C30.2037354,30.3922526 30.2006022,30.5395101 30.1943359,30.7713623 C29.5489095,30.9969482 28.5431722,31.1912028 27.177124,31.354126 C26.5066325,31.4355876 26.0053304,31.5201823 25.6732178,31.6079102 C25.2220459,31.7332357 24.8163045,31.9180908 24.4559937,32.1624756 C24.0956828,32.4068604 23.8043009,32.7311401 23.5818481,33.1353149 C23.3593953,33.5394897 23.2481689,33.9859619 23.2481689,34.4747314 C23.2481689,35.3081462 23.5426839,35.9927368 24.1317139,36.5285034 C24.7207438,37.06427 25.5635579,37.3321533 26.6601563,37.3321533 Z M27.0643311,36.0068359 C26.4063721,36.0068359 25.9066366,35.8564453 25.5651245,35.5556641 C25.2236125,35.2548828 25.0528564,34.8789062 25.0528564,34.4277344 C25.0528564,34.1332194 25.1311849,33.8653361 25.2878418,33.6240845 C25.4444987,33.3828328 25.6669515,33.1995443 25.9552002,33.0742188 C26.2434489,32.9488932 26.7353516,32.8361003 27.4309082,32.7358398 C28.6590983,32.5603841 29.5802409,32.3473307 30.1943359,32.0966797 L30.1943359,32.0966797 L30.1943359,32.717041 C30.1943359,33.4627279 30.1034749,34.0266927 29.9217529,34.4089355 C29.6836344,34.9039714 29.310791,35.294047 28.8032227,35.5791626 C28.2956543,35.8642782 27.7160238,36.0068359 27.0643311,36.0068359 Z M36.2005615,37.1065674 L36.2005615,31.8804932 C36.2005615,31.1661377 36.2945557,30.5081787 36.4825439,29.9066162 C36.6078695,29.5118408 36.8177897,29.2032267 37.1123047,28.9807739 C37.4068197,28.7583211 37.7389323,28.6470947 38.1086426,28.6470947 C38.5222168,28.6470947 38.935791,28.7692871 39.3493652,29.0136719 L39.3493652,29.0136719 L39.9321289,27.4439697 C39.343099,27.0805257 38.7634684,26.8988037 38.1932373,26.8988037 C37.7984619,26.8988037 37.4365845,27.0115967 37.107605,27.2371826 C36.7786255,27.4627686 36.4198812,27.9296061 36.0313721,28.6376953 L36.0313721,28.6376953 L36.0313721,27.1243896 L34.508667,27.1243896 L34.508667,37.1065674 L36.2005615,37.1065674 Z M44.6224365,37.3321533 C45.8506266,37.3321533 46.7811686,36.8371175 47.4140625,35.8470459 L47.4140625,35.8470459 L47.4140625,37.1065674 L48.9837646,37.1065674 L48.9837646,23.3270264 L47.3012695,23.3270264 L47.3012695,28.2711182 C47.0067546,27.8638102 46.6245117,27.5332642 46.154541,27.27948 C45.6845703,27.0256958 45.1488037,26.8988037 44.5472412,26.8988037 C43.726359,26.8988037 42.9838053,27.1149902 42.3195801,27.5473633 C41.6553548,27.9797363 41.1571859,28.6016642 40.8250732,29.413147 C40.4929606,30.2246297 40.3269043,31.12854 40.3269043,32.1248779 C40.3269043,33.1462809 40.5101929,34.0501912 40.87677,34.8366089 C41.2433472,35.6230265 41.7603149,36.235555 42.4276733,36.6741943 C43.0950317,37.1128337 43.8266195,37.3321533 44.6224365,37.3321533 Z M44.7822266,35.94104 C44.0490723,35.94104 43.4130452,35.6245931 42.8741455,34.9916992 C42.3352458,34.3588053 42.0657959,33.4031982 42.0657959,32.1248779 C42.0657959,30.8026937 42.3180135,29.834554 42.8224487,29.220459 C43.326884,28.6063639 43.9550781,28.2993164 44.7070313,28.2993164 C45.4777832,28.2993164 46.1263428,28.6188965 46.65271,29.2580566 C47.1790771,29.8972168 47.4422607,30.899821 47.4422607,32.2658691 C47.4422607,33.5065918 47.1837769,34.4293009 46.6668091,35.0339966 C46.1498413,35.6386922 45.5216471,35.94104 44.7822266,35.94104 Z M61.0432129,37.3321533 C61.9142253,37.3321533 62.7178752,37.1284993 63.4541626,36.7211914 C64.19045,36.3138835 64.7512817,35.7420858 65.1366577,35.0057983 C65.5220337,34.2695109 65.7147217,33.2590739 65.7147217,31.9744873 C65.7147217,30.3891195 65.2792155,29.1468302 64.4082031,28.2476196 C63.5371908,27.348409 62.4155273,26.8988037 61.0432129,26.8988037 C59.8087565,26.8988037 58.7622884,27.268514 57.9038086,28.0079346 C56.8761393,28.8977458 56.3623047,30.2669271 56.3623047,32.1154785 C56.3623047,33.8011068 56.7931112,35.0919596 57.6547241,35.9880371 C58.5163371,36.8841146 59.6458333,37.3321533 61.0432129,37.3321533 Z M61.0432129,35.94104 C60.1972656,35.94104 59.4954427,35.6230265 58.9377441,34.9869995 C58.3800456,34.3509725 58.1011963,33.3937988 58.1011963,32.1154785 C58.1011963,30.8371582 58.3800456,29.8815511 58.9377441,29.2486572 C59.4954427,28.6157633 60.1972656,28.2993164 61.0432129,28.2993164 C61.8766276,28.2993164 62.5737508,28.6173299 63.1345825,29.2533569 C63.6954142,29.889384 63.9758301,30.8246257 63.9758301,32.059082 C63.9758301,33.3687337 63.6969808,34.3431396 63.1392822,34.9822998 C62.5815837,35.62146 61.8828939,35.94104 61.0432129,35.94104 Z M69.784668,37.1065674 L69.784668,28.4403076 L71.7303467,28.4403076 L71.7303467,27.1243896 L69.784668,27.1243896 L69.784668,26.2032471 C69.784668,25.6016846 69.8911947,25.1912435 70.104248,24.9719238 C70.3173014,24.7526042 70.6807454,24.6429443 71.1945801,24.6429443 C71.5078939,24.6429443 71.8400065,24.6742757 72.190918,24.7369385 L72.190918,24.7369385 L72.4447021,23.2612305 C71.8682048,23.1484375 71.3418376,23.092041 70.8656006,23.092041 C70.12618,23.092041 69.5512492,23.2283325 69.1408081,23.5009155 C68.730367,23.7734985 68.4436849,24.1291097 68.2807617,24.567749 C68.1617025,24.8935954 68.1021729,25.3917643 68.1021729,26.0622559 L68.1021729,26.0622559 L68.1021729,27.1243896 L66.607666,27.1243896 L66.607666,28.4403076 L68.1021729,28.4403076 L68.1021729,37.1065674 L69.784668,37.1065674 Z M81.317749,37.1065674 L81.317749,31.354126 L81.8817139,31.354126 C82.520874,31.354126 82.9877116,31.4058228 83.2822266,31.5092163 C83.5767415,31.6126099 83.8555908,31.8037313 84.1187744,32.0825806 C84.381958,32.3614299 84.8707275,33.0366211 85.585083,34.1081543 L85.585083,34.1081543 L87.5965576,37.1065674 L90.9239502,37.1065674 L89.2414551,34.418335 C88.5772298,33.3468018 88.0492961,32.6011149 87.6576538,32.1812744 C87.2660116,31.7614339 86.7694092,31.3760579 86.1678467,31.0251465 C87.377238,30.8496908 88.285848,30.4251506 88.8936768,29.7515259 C89.5015055,29.0779012 89.8054199,28.2241211 89.8054199,27.1901855 C89.8054199,26.3755697 89.6048991,25.6518148 89.2038574,25.0189209 C88.8028158,24.386027 88.2686157,23.9458211 87.6012573,23.6983032 C86.9338989,23.4507853 85.8639323,23.3270264 84.3913574,23.3270264 L84.3913574,23.3270264 L78.5355225,23.3270264 L78.5355225,37.1065674 L81.317749,37.1065674 Z M83.3762207,29.1546631 L81.317749,29.1546631 L81.317749,25.6580811 L83.7238072,25.6583208 C84.7113211,25.6603989 85.3098145,25.6759847 85.5192871,25.7050781 C85.970459,25.7802734 86.3198039,25.9604289 86.5673218,26.2455444 C86.8148397,26.53066 86.9385986,26.90507 86.9385986,27.3687744 C86.9385986,27.7823486 86.8446045,28.1269938 86.6566162,28.40271 C86.4686279,28.6784261 86.2085775,28.8726807 85.8764648,28.9854736 C85.5443522,29.0982666 84.7109375,29.1546631 83.3762207,29.1546631 L83.3762207,29.1546631 Z M102.908203,37.1065674 L102.908203,34.7849121 L95.210083,34.7849121 L95.210083,31.0345459 L102.128052,31.0345459 L102.128052,28.7128906 L95.210083,28.7128906 L95.210083,25.6580811 L102.64502,25.6580811 L102.64502,23.3270264 L92.4278564,23.3270264 L92.4278564,37.1065674 L102.908203,37.1065674 Z M106.818359,37.1065674 L107.955688,33.9765625 L113.463745,33.9765625 L114.66687,37.1065674 L117.693481,37.1065674 L112.176025,23.3270264 L109.234009,23.3270264 L103.866943,37.1065674 L106.818359,37.1065674 Z M112.570801,31.6549072 L108.811035,31.6549072 L110.672119,26.541626 L112.570801,31.6549072 Z M128.94458,37.1065674 L128.94458,34.7849121 L122.026611,34.7849121 L122.026611,23.4398193 L119.244385,23.4398193 L119.244385,37.1065674 L128.94458,37.1065674 Z M135.686159,37.1065674 L135.686159,25.6580811 L139.765504,25.6580811 L139.765504,23.3270264 L128.815187,23.3270264 L128.815187,25.6580811 L132.903932,25.6580811 L132.903932,37.1065674 L135.686159,37.1065674 Z M147.69861,37.3415527 C149.722617,37.3415527 151.339316,36.7133586 152.548707,35.4569702 C153.758099,34.2005819 154.362794,32.4601237 154.362794,30.2355957 C154.362794,27.9922689 153.753399,26.2408447 152.534608,24.9813232 C151.315818,23.7218018 149.691286,23.092041 147.661012,23.092041 C146.539349,23.092041 145.549277,23.273763 144.690797,23.637207 C144.045371,23.9066569 143.451641,24.3202311 142.909608,24.8779297 C142.367575,25.4356283 141.939902,26.065389 141.626588,26.7672119 C141.206748,27.7196859 140.996828,28.8977458 140.996828,30.3013916 C140.996828,32.4945882 141.601523,34.2162476 142.810915,35.4663696 C144.020306,36.7164917 145.649538,37.3415527 147.69861,37.3415527 Z M147.68921,34.963501 C146.58008,34.963501 145.665203,34.5608927 144.944582,33.7556763 C144.22396,32.9504598 143.863649,31.7677002 143.863649,30.2073975 C143.863649,28.6220296 144.21456,27.4361369 144.916383,26.6497192 C145.618206,25.8633016 146.542482,25.4700928 147.68921,25.4700928 C148.835939,25.4700928 149.755515,25.8586019 150.447938,26.6356201 C151.140362,27.4126383 151.486574,28.5906982 151.486574,30.1697998 C151.486574,31.7677002 151.130963,32.9661255 150.41974,33.7650757 C149.708518,34.5640259 148.798341,34.963501 147.68921,34.963501 Z M159.325685,37.1065674 L159.325685,31.354126 L159.88965,31.354126 C160.52881,31.354126 160.995648,31.4058228 161.290163,31.5092163 C161.584678,31.6126099 161.863527,31.8037313 162.12671,32.0825806 C162.389894,32.3614299 162.878664,33.0366211 163.593019,34.1081543 L163.593019,34.1081543 L165.604494,37.1065674 L168.931886,37.1065674 L167.249391,34.418335 C166.585166,33.3468018 166.057232,32.6011149 165.66559,32.1812744 C165.273948,31.7614339 164.777345,31.3760579 164.175783,31.0251465 C165.385174,30.8496908 166.293784,30.4251506 166.901613,29.7515259 C167.509442,29.0779012 167.813356,28.2241211 167.813356,27.1901855 C167.813356,26.3755697 167.612835,25.6518148 167.211793,25.0189209 C166.810752,24.386027 166.276552,23.9458211 165.609193,23.6983032 C164.941835,23.4507853 163.871868,23.3270264 162.399293,23.3270264 L162.399293,23.3270264 L156.543458,23.3270264 L156.543458,37.1065674 L159.325685,37.1065674 Z M161.384157,29.1546631 L159.325685,29.1546631 L159.325685,25.6580811 L161.731743,25.6583208 C162.719257,25.6603989 163.31775,25.6759847 163.527223,25.7050781 C163.978395,25.7802734 164.32774,25.9604289 164.575258,26.2455444 C164.822776,26.53066 164.946535,26.90507 164.946535,27.3687744 C164.946535,27.7823486 164.85254,28.1269938 164.664552,28.40271 C164.476564,28.6784261 164.216513,28.8726807 163.884401,28.9854736 C163.552288,29.0982666 162.718873,29.1546631 161.384157,29.1546631 L161.384157,29.1546631 Z M175.417482,37.3509521 C176.614341,37.3509521 177.613812,37.1833293 178.415895,36.8480835 C179.217978,36.5128377 179.83834,36.0005697 180.276979,35.3112793 C180.715618,34.6219889 180.934938,33.8825684 180.934938,33.0930176 C180.934938,32.2220052 180.751649,31.4904175 180.385072,30.8982544 C180.018495,30.3060913 179.510927,29.8392537 178.862367,29.4977417 C178.213808,29.1562297 177.21277,28.8256836 175.859254,28.5061035 C174.505739,28.1865234 173.653525,27.8794759 173.302614,27.5849609 C173.026898,27.3531087 172.88904,27.0742594 172.88904,26.7484131 C172.88904,26.3912354 173.036297,26.1061198 173.330812,25.8930664 C173.78825,25.5609538 174.421144,25.3948975 175.229494,25.3948975 C176.012778,25.3948975 176.600241,25.5499878 176.991884,25.8601685 C177.383526,26.1703491 177.638877,26.679484 177.757936,27.3875732 L177.757936,27.3875732 L180.540163,27.2653809 C180.496299,25.9995931 180.037294,24.9875895 179.163148,24.2293701 C178.289003,23.4711507 176.987184,23.092041 175.257692,23.092041 C174.198691,23.092041 173.294781,23.2518311 172.545961,23.5714111 C171.797141,23.8909912 171.223777,24.3562622 170.825868,24.9672241 C170.42796,25.578186 170.229005,26.2345785 170.229005,26.9364014 C170.229005,28.0267334 170.651979,28.9510091 171.497926,29.7092285 C172.099489,30.2481283 173.145957,30.7024333 174.637331,31.0721436 C175.796592,31.3603923 176.539145,31.5609131 176.864992,31.6737061 C177.341229,31.8428955 177.674908,32.0418498 177.866029,32.2705688 C178.057151,32.4992879 178.152711,32.7765706 178.152711,33.102417 C178.152711,33.6099854 177.925559,34.0533244 177.471254,34.4324341 C177.016949,34.8115438 176.341758,35.0010986 175.44568,35.0010986 C174.599733,35.0010986 173.927675,34.7880452 173.429506,34.3619385 C172.931337,33.9358317 172.600791,33.2684733 172.437868,32.3598633 L172.437868,32.3598633 L169.730836,32.6230469 C169.912558,34.1645508 170.470257,35.337911 171.403932,36.1431274 C172.337607,36.9483439 173.675457,37.3509521 175.417482,37.3509521 Z" id="BoardofREALTORS"></path>
                    <path d="M192.06958,39.8253174 C192.61333,39.5878174 193.010205,39.2518799 193.260205,38.8175049 C193.510205,38.3831299 193.635205,37.8128174 193.635205,37.1065674 L193.635205,37.1065674 L193.635205,35.1846924 L191.71333,35.1846924 L191.71333,37.1065674 L192.66958,37.1065674 C192.65083,37.6753174 192.55708,38.1112549 192.38833,38.4143799 C192.21958,38.7175049 191.95708,38.9471924 191.60083,39.1034424 L191.60083,39.1034424 L192.06958,39.8253174 Z M204.285205,37.1065674 L204.285205,23.3628174 L202.466455,23.3628174 L202.466455,37.1065674 L204.285205,37.1065674 Z M208.96333,37.1065674 L208.96333,31.6690674 C208.96333,30.3940674 209.224268,29.5284424 209.746143,29.0721924 C210.268018,28.6159424 210.88833,28.3878174 211.60708,28.3878174 C212.05708,28.3878174 212.449268,28.4893799 212.783643,28.6925049 C213.118018,28.8956299 213.35083,29.1675049 213.48208,29.5081299 C213.61333,29.8487549 213.678955,30.3628174 213.678955,31.0503174 L213.678955,31.0503174 L213.678955,37.1065674 L215.366455,37.1065674 L215.366455,30.9846924 C215.366455,30.2034424 215.335205,29.6565674 215.272705,29.3440674 C215.172705,28.8628174 214.997705,28.4471924 214.747705,28.0971924 C214.497705,27.7471924 214.121143,27.4643799 213.618018,27.2487549 C213.114893,27.0331299 212.56333,26.9253174 211.96333,26.9253174 C210.58208,26.9253174 209.52583,27.4721924 208.79458,28.5659424 L208.79458,28.5659424 L208.79458,27.1503174 L207.27583,27.1503174 L207.27583,37.1065674 L208.96333,37.1065674 Z M221.966455,37.3315674 C223.053955,37.3315674 223.971143,37.0081299 224.718018,36.3612549 C225.464893,35.7143799 225.928955,34.8190674 226.110205,33.6753174 L226.110205,33.6753174 L224.45083,33.4596924 C224.33208,34.3034424 224.05083,34.9284424 223.60708,35.3346924 C223.16333,35.7409424 222.610205,35.9440674 221.947705,35.9440674 C221.122705,35.9440674 220.453955,35.6409424 219.941455,35.0346924 C219.428955,34.4284424 219.172705,33.4565674 219.172705,32.1190674 C219.172705,30.8003174 219.43833,29.8362549 219.96958,29.2268799 C220.50083,28.6175049 221.191455,28.3128174 222.041455,28.3128174 C222.603955,28.3128174 223.083643,28.4815674 223.480518,28.8190674 C223.877393,29.1565674 224.153955,29.6596924 224.310205,30.3284424 L224.310205,30.3284424 L225.95083,30.0753174 C225.75708,29.0690674 225.316455,28.2925049 224.628955,27.7456299 C223.941455,27.1987549 223.05708,26.9253174 221.97583,26.9253174 C221.11958,26.9253174 220.327393,27.1268799 219.599268,27.5300049 C218.871143,27.9331299 218.328955,28.5378174 217.972705,29.3440674 C217.616455,30.1503174 217.43833,31.0909424 217.43833,32.1659424 C217.43833,33.8284424 217.852393,35.1050049 218.680518,35.9956299 C219.508643,36.8862549 220.603955,37.3315674 221.966455,37.3315674 Z M229.953955,37.1065674 L229.953955,35.1846924 L228.03208,35.1846924 L228.03208,37.1065674 L229.953955,37.1065674 Z" id=",Inc."></path>
                    <path d="M186.072998,30.2999268 C186.789144,30.2999268 187.472168,30.1182048 188.12207,29.7547607 C188.771973,29.3913167 189.278646,28.8846436 189.64209,28.2347412 C190.005534,27.5848389 190.187256,26.9018148 190.187256,26.1856689 C190.187256,25.4659424 190.001953,24.776652 189.631348,24.1177979 C189.260742,23.4589437 188.751383,22.9531657 188.103271,22.6004639 C187.45516,22.247762 186.778402,22.0714111 186.072998,22.0714111 C185.367594,22.0714111 184.690837,22.247762 184.042725,22.6004639 C183.394613,22.9531657 182.885254,23.4589437 182.514648,24.1177979 C182.144043,24.776652 181.95874,25.4659424 181.95874,26.1856689 C181.95874,26.9018148 182.140462,27.5848389 182.503906,28.2347412 C182.86735,28.8846436 183.374023,29.3913167 184.023926,29.7547607 C184.673828,30.1182048 185.356852,30.2999268 186.072998,30.2999268 Z M186.078369,29.4996338 C185.505452,29.4996338 184.957601,29.3528239 184.434814,29.0592041 C183.912028,28.7655843 183.50472,28.3573812 183.212891,27.8345947 C182.921061,27.3118083 182.775146,26.7621663 182.775146,26.1856689 C182.775146,25.6055908 182.924642,25.0505778 183.223633,24.5206299 C183.522624,23.990682 183.931722,23.5842692 184.450928,23.3013916 C184.970133,23.018514 185.512614,22.8770752 186.078369,22.8770752 C186.644124,22.8770752 187.1875,23.018514 187.708496,23.3013916 C188.229492,23.5842692 188.639486,23.990682 188.938477,24.5206299 C189.237467,25.0505778 189.386963,25.6055908 189.386963,26.1856689 C189.386963,26.7621663 189.240153,27.3118083 188.946533,27.8345947 C188.652913,28.3573812 188.245605,28.7655843 187.724609,29.0592041 C187.203613,29.3528239 186.654867,29.4996338 186.078369,29.4996338 Z M185.10083,28.3878174 L185.10083,26.5938721 L185.331787,26.5938721 C185.578857,26.5938721 185.782959,26.6556396 185.944092,26.7791748 C186.105225,26.90271 186.309326,27.202596 186.556396,27.678833 L186.556396,27.678833 L186.921631,28.3878174 L188.017334,28.3878174 L187.501709,27.506958 C187.319092,27.1954346 187.21167,27.0181885 187.179443,26.9752197 C187.054118,26.8105062 186.955648,26.6986084 186.884033,26.6395264 C186.812419,26.5804443 186.710368,26.5258382 186.577881,26.475708 C186.950277,26.4219971 187.239421,26.2832438 187.445312,26.0594482 C187.651204,25.8356527 187.75415,25.5662028 187.75415,25.2510986 C187.75415,25.021932 187.699544,24.8133545 187.590332,24.6253662 C187.48112,24.4373779 187.345052,24.2977295 187.182129,24.2064209 C187.019206,24.1151123 186.790934,24.0569255 186.497314,24.0318604 C186.413764,24.0258925 186.076579,24.0224112 185.485758,24.0214166 L184.2146,24.0211182 L184.2146,28.3878174 L185.10083,28.3878174 Z M185.460693,25.9063721 L185.10083,25.9063721 L185.10083,24.7139893 L185.460693,24.7139893 C185.965576,24.7139893 186.282471,24.7345785 186.411377,24.7757568 C186.540283,24.8169352 186.639648,24.8849691 186.709473,24.9798584 C186.779297,25.0747477 186.814209,25.1830648 186.814209,25.3048096 C186.814209,25.4301351 186.778402,25.5420329 186.706787,25.6405029 C186.635173,25.738973 186.537598,25.807902 186.414062,25.84729 C186.290527,25.8866781 185.972738,25.9063721 185.460693,25.9063721 L185.460693,25.9063721 Z" id="®"></path>
                </g>
            </g>
        </g>
    </g>
</svg>