<?xml version="1.0" encoding="UTF-8"?>
<svg width="324px" height="324px" viewBox="0 0 324 324" version="1.1" xmlns="http://www.w3.org/2000/svg" xmlns:xlink="http://www.w3.org/1999/xlink">
    <!-- Generator: Sketch 63.1 (92452) - https://sketch.com -->
    <title>Clock</title>
    <desc>Created with Sketch.</desc>
    <g id="Page-1" stroke="none" stroke-width="1" fill="none" fill-rule="evenodd">
        <g id="REALTOR-EDUCATION" transform="translate(-770.000000, -3513.000000)" fill="#F5F5F5">
            <g id="Clock" transform="translate(770.000000, 3513.000000)">
                <g id="noun_clock_1579364">
                    <path d="M161.996262,324 C251.473288,324 324,251.473288 324,161.996262 C324,72.5267117 251.473288,0 161.996262,0 C72.5267117,0 0,72.5267117 0,161.996262 C0,251.473288 72.5267117,324 161.996262,324 Z M86.9348533,40.3869107 L97.5222579,58.7279441 L104.808575,54.5221425 L94.206217,36.1661551 C113.220179,25.8965223 134.832391,19.8513835 157.797937,19.1859322 L157.797937,58.7391595 L166.20954,58.7391595 L166.20954,19.1859322 C189.175086,19.8513835 210.78356,25.8965223 229.797522,36.1624166 L219.198902,54.5296195 L226.477742,58.735421 L237.076362,40.3869107 C255.966954,52.0734313 271.926569,68.0367849 283.613089,86.9311149 L265.272056,97.5222579 L269.477858,104.808575 L287.841322,94.206217 C298.103478,113.220179 304.148617,134.832391 304.814068,157.79046 L265.264579,157.79046 L265.257102,166.205802 L304.814068,166.202063 C304.148617,189.167609 298.103478,210.779821 287.837583,229.793783 L269.477858,219.198902 L265.272056,226.477742 L283.613089,237.068885 C271.926569,255.963215 255.963215,271.92283 237.072624,283.609351 L226.477742,265.272056 L219.198902,269.477858 L229.797522,287.837583 C210.78356,298.103478 189.175086,304.144878 166.20954,304.814068 L166.20954,265.26084 L157.797937,265.26084 L157.797937,304.810329 C134.832391,304.144878 113.220179,298.099739 94.206217,287.830106 L104.801098,269.474119 L97.5222579,265.268317 L86.9385918,283.605612 C68.0442619,271.919092 52.0846468,255.955738 40.3943876,237.061408 L58.7279441,226.470265 L54.5221425,219.191425 L36.1698936,229.786306 C25.9039993,210.779821 19.8588605,189.167609 19.1934092,166.202063 L58.742898,166.205802 L58.735421,157.79046 L19.1934092,157.794198 C19.8588605,134.832391 25.9039993,113.220179 36.1698936,94.206217 L54.5221425,104.801098 L58.7279441,97.5185194 L40.3906492,86.9385918 C52.0809083,68.0405234 68.0405234,52.0771698 86.9348533,40.3869107 Z" id="Shape" fill-rule="nonzero"></path>
                    <polygon id="Path" fill-rule="nonzero" points="137.131563 171.144347 141.782244 179.249394 159.984954 168.807791 176.355803 181.503704 184.210371 171.368657 172.015416 161.910276 255.051023 114.285648 250.400342 106.173124 164.026262 155.715598 99.780306 105.896476 91.9219994 116.031523 151.999538 162.616851"></polygon>
                </g>
            </g>
        </g>
    </g>
</svg>