<svg xmlns="http://www.w3.org/2000/svg" xmlns:xlink="http://www.w3.org/1999/xlink" id="Layer_1" x="0px" y="0px" viewBox="0 0 1506.9 389.5" style="enable-background:new 0 0 1506.9 389.5;" xml:space="preserve">
<style type="text/css">
	.st0{fill:#3F7CBB;}
	.st1{fill:#61CCF0;}
	.st2{fill:url(#SVGID_1_);}
	.st3{fill:url(#SVGID_2_);}
	.st4{fill:url(#SVGID_3_);}
	.st5{fill:url(#SVGID_4_);}
	.st6{enable-background:new    ;}
</style>
<g>
	<g>
		<path class="st0" d="M525.6,142.8h-37.9V228h-10.9v-85.2H439v-10.3h48.7h37.9V142.8z"></path>
		<path class="st0" d="M570.6,219.9c8.9,0,16.2-3,22.6-8.8l4.5,8.3c-7.3,6.1-15.6,9.9-26.8,9.9c-23.1,0-37.2-14.9-37.2-34.9    c0-18.9,13.1-34.6,34.4-34.6c21.3,0,35.5,16,33,39.7h-57C546.1,212,555.6,219.9,570.6,219.9z M591.4,190.6    c-1.2-13.5-10.1-21.4-23.2-21.4c-13.6,0-22.6,8.8-24.2,21.4H591.4z"></path>
		<path class="st0" d="M627.5,194.6c0-19.4,13.5-34.8,35.8-34.8c14.2,0,25.3,7,30.1,17.2l-8.5,4.9c-3.8-7.8-11.5-12.5-21.4-12.5    c-16,0-25.4,10.8-25.4,25.3s9.7,25.1,25.6,25.1c10.2,0,18.2-4.7,21.6-12.4l8.5,4.9c-4.7,10.2-15.6,17.2-30.3,17.2    C641.3,229.3,627.5,213.8,627.5,194.6z"></path>
		<path class="st0" d="M786.4,186.9v41.3h-10.2v-41.3c0-10.6-7.1-17.4-18.2-17.4c-9,0-16.4,4.5-23.2,14.1v44.6h-10.3v-95.5h10.3    v39.7c6.5-8.2,14.3-12.4,25.3-12.4C776.5,159.8,786.4,170.1,786.4,186.9z"></path>
		<path class="st0" d="M901.1,132.5V228h-10.9v-43.9h-61.3V228h-10.9v-95.5h10.9v41.3h61.3v-41.3H901.1z"></path>
		<path class="st0" d="M972.5,219.9c8.9,0,16.2-3,22.6-8.8l4.5,8.3c-7.3,6.1-15.6,9.9-26.8,9.9c-23.1,0-37.2-14.9-37.2-34.9    c0-18.9,13.1-34.6,34.4-34.6c21.3,0,35.5,16,33,39.7h-57C947.9,212,957.3,219.9,972.5,219.9z M993.3,190.6    c-1.2-13.5-10.1-21.4-23.2-21.4c-13.6,0-22.6,8.8-24.2,21.4H993.3z"></path>
		<path class="st0" d="M1034.3,129.7h10.3V228h-10.3V129.7z"></path>
		<path class="st0" d="M1150.9,194.6c0,19-14.2,34.8-34.6,34.8c-10.3,0-19.5-4.1-25.3-11.5v37.5h-10.3v-94.2h10.3v10.2    c5.8-7.7,14.9-11.5,25.3-11.5C1136.8,159.8,1150.9,175.7,1150.9,194.6z M1140.4,194.6c0-14.4-9.7-25.3-25.7-25.3    c-10.1,0-18.2,4.3-23.6,12.3v26c5.4,7.9,13.5,12.1,23.6,12.1C1130.7,219.7,1140.4,209,1140.4,194.6z"></path>
		<path class="st0" d="M1182.6,129.7h10.3V228h-10.3V129.7z"></path>
		<path class="st0" d="M1226.5,140.1c0-4.1,3.4-7.3,7.7-7.3c4.3,0,7.7,3.2,7.7,7.3s-3.2,7.3-7.7,7.3    C1229.8,147.4,1226.5,144.2,1226.5,140.1z M1239.2,228h-10.3v-66.9h10.3V228z"></path>
		<path class="st0" d="M1337.2,186.9v41.3H1327v-41.3c0-10.6-7.1-17.4-18.2-17.4c-9,0-16.4,4.5-23.2,14.1v44.6h-10.3v-67h10.3v11.1    c6.5-8.2,14.3-12.4,25.3-12.4C1327.4,159.8,1337.2,170.1,1337.2,186.9z"></path>
		<path class="st0" d="M1404.8,219.9c8.9,0,16.2-3,22.6-8.8l4.5,8.3c-7.3,6.1-15.6,9.9-26.8,9.9c-23.1,0-37-14.9-37-34.9    c0-18.9,13.1-34.6,34.4-34.6s35.5,16,33,39.7h-57C1380.3,212,1389.7,219.9,1404.8,219.9z M1425.6,190.6    c-1.2-13.5-10.1-21.4-23.2-21.4c-13.6,0-22.6,8.8-24.2,21.4H1425.6z"></path>
	</g>
	<g>
		<path class="st1" d="M470.8,279.3v0.4l-21,35.7h-8.5v-0.4l7-11.1l-7.2-24.4v-0.4h7.9l4.3,16.2l8.8-16.2h8.8V279.3z"></path>
		<path class="st1" d="M475.4,291.5c1.2-7.2,7.3-12.9,16-12.9c9.4,0,14.1,6.5,12.7,14.1c-1.2,6.7-6.9,12.9-16.1,12.9    C478.9,305.6,474,299.2,475.4,291.5z M496.4,292c0.7-3.8-1.2-6.6-5.2-6.6c-4,0-7.2,2.8-8.1,6.9c-0.7,3.8,1.2,6.6,5.3,6.6    C492.4,298.8,495.7,296.2,496.4,292z"></path>
		<path class="st1" d="M542.1,279.3l-4.5,25.6H530l0.5-2.6c-2.8,2.4-5.3,3.2-8.3,3.2c-5.9,0-9.5-4.2-8.4-10.5l2.8-15.9h7.7    l-2.8,15.6c-0.5,2.4,0.8,3.8,3.4,3.8c2.2,0,4.3-1.1,6.7-3.1l2.9-16.4h7.7V279.3z"></path>
		<path class="st1" d="M571.2,278.7l-1.4,7.9c-4.1-0.2-8.4,1.8-10.3,4.9l-2.3,13.4h-7.7l4.5-25.6h7.7l-0.7,4.1    C563.7,279.8,567.3,278.6,571.2,278.7z"></path>
		<path class="st1" d="M606,297.7c-0.5,2.9,1.1,4.1,4,4.1c2,0,3.7-0.4,5.5-1.3l-0.6,3.7c-1.7,0.8-3.5,1.2-5.5,1.2    c-4.9,0-8.2-2.8-7.2-7.8l2.5-14.8h-4.9l0.6-3.6h4.9l1.3-7.8h4l-1.4,7.8h10.3l-0.6,3.6h-10.3L606,297.7z"></path>
		<path class="st1" d="M651.9,294h-3.8h-18c-0.1,4.7,2.8,7.8,8.5,7.8c3.5,0,6.4-1,9.1-3.2l1.6,3.2c-3.1,2.4-6.6,3.6-10.7,3.6    c-8.5,0-13.6-5.7-12.1-13.6c1.3-7.2,7.2-13,15.2-13C649.8,278.7,654.5,284.9,651.9,294z M648.8,290.7c0.5-5.2-2.3-8.2-7.2-8.2    c-5.2,0-9.4,3.2-10.8,8.2H648.8z"></path>
		<path class="st1" d="M662.8,291.9c1.2-7.3,7.3-13,15.5-13c5.8,0,9.6,2.8,10.8,6.7l-3.4,1.6c-1.2-2.9-3.6-4.6-7.5-4.6    c-6,0-10.6,4.1-11.5,9.7c-1,5.2,1.7,9.6,7.9,9.6c3.7,0,7.2-1.7,9.3-4.8l3,2.2c-2.6,4.1-7.2,6.4-12.5,6.4    C665.9,305.4,661.6,299.2,662.8,291.9z"></path>
		<path class="st1" d="M724.5,289.3l-2.8,15.6h-4l2.8-15.9c0.7-4.1-1.4-6.6-5.5-6.6c-3.6,0-6.7,1.8-10.1,5.3l-3,17.2h-4l6.4-36.6h4    l-2.5,14.7c3.1-2.8,6.4-4.2,10.1-4.2C722.1,278.7,725.7,283,724.5,289.3z"></path>
		<path class="st1" d="M755.2,301.8l2.2-3.1c2.5,2.3,5.7,3.1,9.6,3.1c4.8,0,7.9-1.3,8.5-4.1c0.5-2.6-1.8-3.2-7.3-4    c-5.9-0.8-10.7-2-9.7-7.3c0.8-4.8,5.7-7.7,12.1-7.7c6.3,0,9.5,2.9,10.3,6.4l-3.4,1.3c-0.6-2.6-3.1-4.1-7.2-4.1    c-4.3,0-7.5,1.6-7.9,4.1c-0.5,2.4,1.8,3.2,6.7,4c6.4,0.8,11.3,2,10.3,7.6c-0.8,4.9-5.8,7.6-12.9,7.6    C761.9,305.4,758.3,304.1,755.2,301.8z"></path>
		<path class="st1" d="M818.3,279.3l-4.5,25.6h-4l0.6-3.6c-3.1,2.8-6.4,4.2-10.1,4.2c-6.1,0-9.6-4.1-8.5-10.5l2.8-15.6h4l-2.8,15.9    c-0.7,4.1,1.3,6.5,5.5,6.5c3.5,0,6.7-1.7,10-5.2l3-17.2h4V279.3z"></path>
		<path class="st1" d="M857.1,292.7c-1.2,6.9-7.2,12.7-15.2,12.7c-4.3,0-7.6-1.7-9.3-4.5l-2.5,14.4h-4l6.4-36.1h4l-0.7,3.6    c2.8-2.8,6.4-4.2,10-4.2C853.7,278.7,858.3,285.2,857.1,292.7z M845.2,282.5c-3.8,0-7.5,1.8-10.1,5.1l-1.7,9.5    c1.4,3.2,4.1,4.8,8.1,4.8c6.3,0,10.7-4,11.7-9.5S851.2,282.5,845.2,282.5z"></path>
		<path class="st1" d="M896.6,292.7c-1.2,6.9-7.2,12.7-15.2,12.7c-4.3,0-7.6-1.7-9.3-4.5l-2.5,14.4h-4l6.4-36.1h4l-0.7,3.6    c2.8-2.8,6.4-4.2,10-4.2C893.3,278.7,897.8,285.2,896.6,292.7z M884.7,282.5c-3.8,0-7.5,1.8-10.1,5.1l-1.7,9.5    c1.4,3.2,4.1,4.8,8.1,4.8c6.3,0,10.7-4,11.7-9.5S890.7,282.5,884.7,282.5z"></path>
		<path class="st1" d="M907.6,291.9c1.2-7.2,7.6-13,15.8-13c8.4,0,13,6.3,11.8,13.6c-1.2,7.2-7.5,13.1-15.8,13.1    C910.9,305.4,906.3,299.2,907.6,291.9z M931.1,292.1c1-5.5-2-9.6-7.9-9.6c-5.8,0-10.6,4-11.5,9.7c-1,5.5,2,9.6,7.8,9.6    C925.2,301.7,930,297.9,931.1,292.1z"></path>
		<path class="st1" d="M964.6,278.7l-0.7,4c-4.3,0-9.1,2-11.8,6.1l-2.8,16.1h-4l4.5-25.6h4l-0.8,4.6    C956.3,280.2,960.2,278.7,964.6,278.7z"></path>
		<path class="st1" d="M979,297.7c-0.5,2.9,1.1,4.1,4,4.1c2,0,3.7-0.4,5.5-1.3l-0.6,3.7c-1.7,0.8-3.5,1.2-5.5,1.2    c-4.9,0-8.2-2.8-7.2-7.8l2.5-14.8h-4.9l0.6-3.6h4.9l1.3-7.8h4l-1.4,7.8h10.3l-0.6,3.6h-10.3L979,297.7z"></path>
		<path class="st1" d="M1028.5,297.7c-0.5,2.9,1.1,4.1,4,4.1c2,0,3.7-0.4,5.5-1.3l-0.6,3.7c-1.7,0.8-3.5,1.2-5.5,1.2    c-4.9,0-8.2-2.8-7.2-7.8l2.5-14.8h-4.9l0.6-3.6h4.9l1.3-7.8h4l-1.4,7.8h10.3l-0.6,3.6H1031L1028.5,297.7z"></path>
		<path class="st1" d="M1074.4,294h-3.8h-18c-0.1,4.7,2.8,7.8,8.5,7.8c3.5,0,6.4-1,9.1-3.2l1.6,3.2c-3.1,2.4-6.6,3.6-10.7,3.6    c-8.5,0-13.6-5.7-12.1-13.6c1.3-7.2,7.2-13,15.2-13C1072.3,278.7,1077.1,284.9,1074.4,294z M1071.4,290.7c0.5-5.2-2.3-8.2-7.2-8.2    c-5.2,0-9.4,3.2-10.8,8.2H1071.4z"></path>
		<path class="st1" d="M1114.5,279.3l-4.5,25.6h-4l0.6-3.5c-2.8,2.8-6.4,4-10,4c-8.1,0-12.6-6.3-11.3-13.6c1.2-7,7.1-13,15.2-13    c4.1,0,7.6,1.6,9.3,4.6l0.7-4.1H1114.5z M1107.4,297l1.7-9.6c-1.6-3.2-4.2-5.1-8.2-5.1c-6.3,0-10.6,4.2-11.5,9.6    c-1.1,5.8,2,9.6,8.1,9.6C1101.4,301.7,1105,300,1107.4,297z"></path>
		<path class="st1" d="M1166.5,289.2l-2.8,15.6h-4l2.8-16c0.6-3.6-0.7-6.5-5.2-6.5c-3,0-5.9,1.6-8.4,4.5c0,0.7,0,1.6-0.1,2.3    l-2.8,15.8h-4l2.8-16c0.6-3.4-0.8-6.4-4.9-6.4c-3.1,0-6.1,1.8-8.8,5.2l-3,17.3h-4l4.4-25.6h4l-0.6,3.4c2.6-2.5,5.3-4,8.7-4    c3.5,0,6.1,1.6,7.5,4.1c3.1-2.9,6.3-4.1,9.5-4.1C1163.7,278.7,1167.5,283.1,1166.5,289.2z"></path>
	</g>
	<g>
		<path class="st1" d="M1353.7,290.3c-0.4,0-171.1,0-171.1,0c-1.1,0-1.9,0.8-1.9,1.9c0,1.1,0.8,1.9,1.9,1.9h171.1    c1.1,0,1.9-0.8,1.9-1.9C1355.6,291.1,1354.8,290.3,1353.7,290.3z"></path>
		<path class="st1" d="M1392,290.3c-0.1,0-14.3,0-27.3,0c-1.1,0-1.9,0.8-1.9,1.9c0,1.1,0.8,1.9,1.9,1.9h27.3c1.1,0,1.9-0.8,1.9-1.9    C1394,291.1,1393.1,290.3,1392,290.3z"></path>
		<path class="st1" d="M1410.3,290.3c-2.2,0-4.6,0-7.1,0c-1,0-1.8,0.6-1.9,1.4c-0.4,1.3,0.6,2.4,1.9,2.4c2.6,0,5.1,0,7.2,0    c1.1,0,1.9-0.8,1.9-1.9C1412.2,291.1,1411.3,290.3,1410.3,290.3z"></path>
		<path class="st1" d="M1422.9,290.3c-0.5,0-0.7,0-0.8,0c0.1,0,0.8,0-0.8,0c-1,0-1.8,0.6-1.9,1.4c-0.4,1.3,0.6,2.4,1.9,2.4    c1.7,0,1.1,0,0.8,0c0.1,0,0.2,0,0.7,0c1.1,0,1.9-0.8,1.9-1.9C1424.8,291.1,1424,290.3,1422.9,290.3z"></path>
		<circle class="st1" cx="1433.7" cy="292.2" r="1.9"></circle>
	</g>
	<g>
		<g>
			
				<linearGradient id="SVGID_1_" gradientUnits="userSpaceOnUse" x1="99.4147" y1="270.1479" x2="1496.9856" y2="1041.097" gradientTransform="matrix(1 0 0 -1 0 551.36)">
				<stop offset="0" style="stop-color:#3F7CBB"></stop>
				<stop offset="8.926151e-02" style="stop-color:#459AD3"></stop>
				<stop offset="0.1718" style="stop-color:#4AB1E5"></stop>
				<stop offset="0.2108" style="stop-color:#5CBBE8"></stop>
				<stop offset="0.2738" style="stop-color:#71C7EB"></stop>
				<stop offset="0.343" style="stop-color:#81D0ED"></stop>
				<stop offset="0.4226" style="stop-color:#8AD5EF"></stop>
				<stop offset="0.5359" style="stop-color:#8DD7EF"></stop>
				<stop offset="0.6371" style="stop-color:#8AD3ED"></stop>
				<stop offset="0.7332" style="stop-color:#80C8E6"></stop>
				<stop offset="0.8273" style="stop-color:#70B5DB"></stop>
				<stop offset="0.9195" style="stop-color:#599ACC"></stop>
				<stop offset="1" style="stop-color:#3F7CBB"></stop>
			</linearGradient>
			<path class="st2" d="M246.1,389.5c2.4-0.6,5.8-1.3,8.9-2.4l-0.8-57V330c-0.4-7.8,0.2-12.6,2-14.4c1.7-1.7,6.4-1.4,12.1-1.1     c4.7,0.2,10.6,0.6,17.4,0c9.9-0.8,17-4,21.3-9.4c4.8-6,5.1-13.6,4.5-19.6c4,0.5,7.9,0.8,10.2,0.8l0.5-8.2c0,0-5.1-0.2-11.5-1     c-0.2-3.1,0.2-4.6,0.4-4.9c0.1-0.1,0.4-0.4,0.5-0.6c3.8-5.3,4.9-10.3,3.2-15c-0.5-1.4-1.2-2.6-2-3.8c0.7-0.5,1.4-1,2.2-1.6     c5.5-5.2,4.2-14.1,3.8-16.2v-0.2c-0.2-4.1-0.2-4.9,7.8-7.3c5.5-1.6,7.7-4.9,8.7-7.3c2.5-6.7-2.2-14.2-2.6-15     c-0.1-0.1-0.1-0.2-0.2-0.4l-18-22.9c-0.1-0.1-0.1-0.1-0.2-0.2c-2.3-2.5-3.6-7.3-4-9.5c0.1-4.2,0.2-8.8,0.2-13.6     c0.1-21.8-5.4-42.7-15.9-60.6c-17.6-29.9-43.4-43.4-61.9-49.6c-20.1-6.5-36-6-36.6-5.9c-0.1,0-0.2,0-0.4,0     c-5.9,0-11.5,0.4-11.5,0.4V101h-0.1l-0.2,93.6h8.7l-0.1-94.8l0,0v-49c1.3-0.1,2.6-0.1,3.8-0.1c0.1,0,0.2,0,0.2,0     c0.6,0,60-1.6,90.9,51.4c9.7,16.6,14.8,36.1,14.7,56.3c0,4.8-0.1,9.4-0.2,13.7c0,0.2,0,0.5,0,0.8c0.1,1,1.6,9.1,6,14.1l17.8,22.5     c1,1.6,2.5,5.3,1.8,7.5c-0.1,0.4-0.6,1.4-3.1,2.2c-12.4,3.6-14.3,8.1-13.8,16v0.5c0,0.2,0,0.5,0.1,0.6c0.4,1.9,0.7,6.9-1.3,8.7     c-1.8,1.7-5.8,0.8-7.9,0.2c-2.3-0.6-4.6,0.7-5.2,2.9c-0.1,0.4-0.1,0.7-0.1,1.1c0,1.8,1.2,3.5,3.1,4.1c1.3,0.4,6.7,2.5,7.9,6     c0.6,1.8,0,4.2-1.8,7c-1.6,1.4-2.8,4.3-2.8,9.7c-1.6-0.2-3.2-0.5-4.8-0.8c-33.7-6.3-57.1-20.3-71.1-31c0,0-4.6,3.5-7.5,4.8     c14.8,12.1,41.4,28.7,80.9,35.1c0,0,1.2,0.1,3.1,0.5c0.7,5.8,0.7,11.4-2.5,15.5c-2.8,3.5-7.9,5.5-15.4,6.3     c-6.1,0.5-11.4,0.2-16.2,0c-7.9-0.5-14.2-0.8-18.5,3.5c-3.7,3.7-5.1,9.9-4.5,20.7l0.5,40.8c0,0,0,0-0.1,0v18.4H246.1z"></path>
			
				<linearGradient id="SVGID_2_" gradientUnits="userSpaceOnUse" x1="81.0948" y1="303.3582" x2="1478.6655" y2="1074.3074" gradientTransform="matrix(1 0 0 -1 0 551.36)">
				<stop offset="0" style="stop-color:#3F7CBB"></stop>
				<stop offset="8.926151e-02" style="stop-color:#459AD3"></stop>
				<stop offset="0.1718" style="stop-color:#4AB1E5"></stop>
				<stop offset="0.2108" style="stop-color:#5CBBE8"></stop>
				<stop offset="0.2738" style="stop-color:#71C7EB"></stop>
				<stop offset="0.343" style="stop-color:#81D0ED"></stop>
				<stop offset="0.4226" style="stop-color:#8AD5EF"></stop>
				<stop offset="0.5359" style="stop-color:#8DD7EF"></stop>
				<stop offset="0.6371" style="stop-color:#8AD3ED"></stop>
				<stop offset="0.7332" style="stop-color:#80C8E6"></stop>
				<stop offset="0.8273" style="stop-color:#70B5DB"></stop>
				<stop offset="0.9195" style="stop-color:#599ACC"></stop>
				<stop offset="1" style="stop-color:#3F7CBB"></stop>
			</linearGradient>
			<path class="st3" d="M82.6,127c-6.4,22.7-6.5,45,4.8,66.5c2.5,4.8,4.5,10,6.6,14.9c11.4,25.3,19.8,51.1,23.6,78.8     c3.2,24.4,1.6,61.6,1.6,61.6l-1.1,29.7c2.4,1.1,5.4,2.4,9.3,3.8l1.4-39.1c3.1-56.9-7.3-104.5-31.4-148.5     c-27.9-51.1,7.2-115.6,54-134c5.3-2,10.6-3.8,15.9-5.3v-9.6C126.3,54.9,94.1,86.4,82.6,127z"></path>
			
				<linearGradient id="SVGID_3_" gradientUnits="userSpaceOnUse" x1="86.9923" y1="292.6675" x2="1484.563" y2="1063.6166" gradientTransform="matrix(1 0 0 -1 0 551.36)">
				<stop offset="0" style="stop-color:#3F7CBB"></stop>
				<stop offset="8.926151e-02" style="stop-color:#459AD3"></stop>
				<stop offset="0.1718" style="stop-color:#4AB1E5"></stop>
				<stop offset="0.2108" style="stop-color:#5CBBE8"></stop>
				<stop offset="0.2738" style="stop-color:#71C7EB"></stop>
				<stop offset="0.343" style="stop-color:#81D0ED"></stop>
				<stop offset="0.4226" style="stop-color:#8AD5EF"></stop>
				<stop offset="0.5359" style="stop-color:#8DD7EF"></stop>
				<stop offset="0.6371" style="stop-color:#8AD3ED"></stop>
				<stop offset="0.7332" style="stop-color:#80C8E6"></stop>
				<stop offset="0.8273" style="stop-color:#70B5DB"></stop>
				<stop offset="0.9195" style="stop-color:#599ACC"></stop>
				<stop offset="1" style="stop-color:#3F7CBB"></stop>
			</linearGradient>
			<path class="st4" d="M335.4,56C296.8,18.5,245.8-1.4,191.9,0.1C141.3,1.5,93.5,22.2,57.5,58.5c-36,36.2-56.4,84.1-57.5,134.7     c-1.7,73.4,37.3,141.3,101.6,177.2l3.6,2v-16.2l-1.2-0.7c-27.2-16.2-49.8-39.2-65.5-66.5c-16.2-28.3-24.7-60.5-24.3-93.2     c0.5-47.5,19.2-92.5,52.7-126.5c33.4-34.2,78.1-53.6,125.6-55.1c50-1.4,97.3,17,133.3,51.8s55.7,81.7,55.7,131.6     c0,73.7-43.9,140-111.9,169l-1.4,0.6v15.2l3.2-1.3c36.2-14.6,67.1-39.3,89.2-71.6c22.7-33.1,34.8-71.7,34.8-111.9     C395.4,144,374.1,93.6,335.4,56z"></path>
		</g>
		<g>
			
				<linearGradient id="SVGID_4_" gradientUnits="userSpaceOnUse" x1="82.8372" y1="300.1996" x2="1480.408" y2="1071.1487" gradientTransform="matrix(1 0 0 -1 0 551.36)">
				<stop offset="0" style="stop-color:#3F7CBB"></stop>
				<stop offset="8.926151e-02" style="stop-color:#459AD3"></stop>
				<stop offset="0.1718" style="stop-color:#4AB1E5"></stop>
				<stop offset="0.2108" style="stop-color:#5CBBE8"></stop>
				<stop offset="0.2738" style="stop-color:#71C7EB"></stop>
				<stop offset="0.343" style="stop-color:#81D0ED"></stop>
				<stop offset="0.4226" style="stop-color:#8AD5EF"></stop>
				<stop offset="0.5359" style="stop-color:#8DD7EF"></stop>
				<stop offset="0.6371" style="stop-color:#8AD3ED"></stop>
				<stop offset="0.7332" style="stop-color:#80C8E6"></stop>
				<stop offset="0.8273" style="stop-color:#70B5DB"></stop>
				<stop offset="0.9195" style="stop-color:#599ACC"></stop>
				<stop offset="1" style="stop-color:#3F7CBB"></stop>
			</linearGradient>
			<path class="st5" d="M206.8,147.6v14.9c10.3,6.5,17.2,17.9,17.2,31c0,20.2-16.5,36.7-36.7,36.7s-36.7-16.5-36.7-36.7     c0-12.7,6.6-24.1,16.6-30.7v-15c-17.6,7.7-29.8,25.3-29.8,45.6c0,27.5,22.4,49.9,49.9,49.9s49.9-22.4,49.9-49.9     C237.2,172.9,224.7,155.2,206.8,147.6z"></path>
		</g>
	</g>
	<g class="st6">
		<path class="st1" d="M1434.2,118.9l2.7-4.1c3.1,3,7.3,4.4,13,4.4c6.1,0,9.8-2.4,9.8-6.1c0-2.7-1.9-3.3-11-4.4    c-6.8-0.9-14.1-1.9-14.1-9.2c0-6.4,5.7-10.7,14.1-10.7c7.5,0,12.4,3.4,14.4,7.6l-4.1,2.4c-1.2-2.9-4.3-5.4-10.5-5.4    c-6.2,0-9,2.4-9,5.7c0,2.9,2.1,3.8,9.8,4.7c7.6,0.9,15.3,1.4,15.3,9.1c0,7.1-6.5,10.9-14.8,10.9    C1443.9,123.9,1438.5,122.5,1434.2,118.9z"></path>
		<path class="st1" d="M1506.9,89.3v34.1h-4.9V97.5l-12.4,16.5h-0.6l-12.4-16.5v25.8h-4.9V89.3h4.4l13.2,17.5l13.2-17.5H1506.9z"></path>
	</g>
</g>
</svg>