<?xml version="1.0" encoding="UTF-8"?>
<svg width="95px" height="26px" viewBox="0 0 95 26" version="1.1" xmlns="http://www.w3.org/2000/svg" xmlns:xlink="http://www.w3.org/1999/xlink">
    <!-- Generator: Sketch 62 (91390) - https://sketch.com -->
    <title>Group 2 Copy 3</title>
    <desc>Created with Sketch.</desc>
    <g id="Symbols" stroke="none" stroke-width="1" fill="none" fill-rule="evenodd">
        <g id="FOOTER-DARK-BLUE" transform="translate(-281.000000, -934.000000)">
            <g id="Group-3" transform="translate(0.000000, 557.000000)">
                <g id="Group-2-Copy-3" transform="translate(281.000000, 377.000000)">
                    <path d="M0.33067826,22.6199807 L0.837718259,22.6199807 C1.1002289,22.5811797 1.3685631,22.6386792 1.58725565,22.7805938 C1.7517271,22.9205223 1.84242397,23.1213625 1.83526434,23.3297873 C1.83589806,23.5068035 1.75754418,23.6759582 1.61926105,23.7961072 C1.48097792,23.9162562 1.29543845,23.9763885 1.10777217,23.9618779 L0.771582607,23.9618779 L1.7856626,25.5161991 L2.18247652,25.5161991 L1.35578087,24.26238 C1.84879733,24.2033141 2.20958047,23.7963158 2.18247652,23.3297873 C2.18421769,23.0018094 2.02068514,22.6924201 1.74157217,22.495635 C1.4962647,22.352148 1.20832225,22.2867466 0.920387824,22.3091164 L0,22.3091164 L0,25.5161991 L0.33067826,25.5161991 L0.33067826,22.6199807 Z" id="Path" fill="#006BB6" fill-rule="nonzero"></path>
                    <polygon id="Path" fill="#006BB6" fill-rule="nonzero" points="3.68958378 23.7470873 3.68958378 22.6212889 5.45977011 22.6212889 5.45977011 22.3048202 3.27586207 22.3048202 3.27586207 25.5161991 5.45977011 25.5161991 5.45977011 25.2101064 3.68958378 25.2101064 3.68958378 24.063556 5.45977011 24.063556 5.45977011 23.7470873"></polygon>
                    <path d="M7.0129466,24.2191963 L6.09444375,24.2191963 L6.55172414,22.6057249 L7.0129466,24.2191963 Z M5.71994689,25.5161991 L6.01166023,24.5097249 L7.09573011,24.5097249 L7.38744346,25.5161991 L7.64367816,25.5161991 L6.69758081,22.3048202 L6.40980954,22.3048202 L5.45977011,25.5161991 L5.71994689,25.5161991 Z" id="Shape" fill="#006BB6"></path>
                    <polygon id="Path" fill="#006BB6" fill-rule="nonzero" points="12.0114943 25.5161991 12.0114943 25.2054205 10.3050715 25.2054205 10.3050715 22.3048202 9.82758621 22.3048202 9.82758621 25.5161991"></polygon>
                    <polygon id="Path" fill="#006BB6" fill-rule="nonzero" points="12.2242126 25.5161991 12.2242126 22.6207785 13.1034483 22.6207785 13.1034483 22.3048202 10.9195402 22.3048202 10.9195402 22.6207785 11.7916853 22.6207785 11.7916853 25.5161991"></polygon>
                    <path d="M13.1137609,23.8954826 C13.1025467,24.3240942 13.2708463,24.738739 13.5800391,25.0442669 C13.8892319,25.3497948 14.3127711,25.5199735 14.7534655,25.5157513 C15.214356,25.5264874 15.6577014,25.3437294 15.9703532,25.0141201 C16.250378,24.7068936 16.3964757,24.3056879 16.3777012,23.8954826 C16.3822831,23.4665401 16.2051118,23.0546878 15.8878523,22.7567798 C15.587278,22.4581854 15.1726048,22.2946388 14.7431529,22.3053117 C14.3208194,22.3001969 13.9147023,22.4633079 13.6190787,22.7567798 C13.2940674,23.0536568 13.1078061,23.4668027 13.1034483,23.9004989 M13.4334517,23.9004989 C13.4488886,23.5094661 13.6367878,23.1438704 13.9490821,22.8972365 C14.1687196,22.7001363 14.454731,22.5877676 14.7534655,22.5812089 C15.3062596,22.5627976 15.8151497,22.8728436 16.0394571,23.3647113 C16.2637644,23.856579 16.1585316,24.4316841 15.7735281,24.8180317 C15.3885247,25.2043793 14.8009163,25.3245344 14.2886113,25.1216698 C13.7763063,24.9188053 13.4419851,24.4335808 13.4437643,23.8954826" id="Shape" fill="#006BB6"></path>
                    <path d="M18.8930643,22.6199807 L19.387833,22.6199807 C19.6496829,22.5811797 19.9173416,22.6386792 20.1354837,22.7805938 C20.2995411,22.9205223 20.3900097,23.1213625 20.3828681,23.3297873 C20.3835002,23.5068035 20.3053435,23.6759582 20.1674085,23.7961072 C20.0294735,23.9162562 19.844401,23.9763885 19.6572072,23.9618779 L19.3383562,23.9618779 L20.3498835,25.5161991 L20.7456985,25.5161991 L19.9210839,24.26238 C20.4128593,24.2033141 20.7727342,23.7963158 20.7456985,23.3297873 C20.7474353,23.0018094 20.5843144,22.6924201 20.305904,22.495635 C20.0612141,22.352148 19.7739964,22.2867466 19.4867868,22.3091164 L18.5632184,22.3091164 L18.5632184,25.5161991 L18.8930643,25.5161991 L18.8930643,22.6199807 Z" id="Path" fill="#006BB6" fill-rule="nonzero"></path>
                    <path d="M11.1069991,10.9970084 L11.1069991,3.58874446 L13.4415302,3.58874446 C14.5696523,3.55154786 15.6652931,3.9382675 16.4738584,4.65904129 C17.2824237,5.37981508 17.7335116,6.37188518 17.7223028,7.40472409 C17.7223028,10.3522394 14.8125279,11.0145531 13.4079743,10.9970084 L11.1069991,10.9970084 Z M11.1069991,11.0935044 L19.1939682,18.4403617 L11.1069991,18.4403617 L11.1069991,11.0935044 Z M2.95771188,3.57119973 L8.84916714,3.57119973 L8.84916714,18.4008861 L2.95771188,18.4008861 L2.95771188,3.57119973 Z M0,0.895627809 L20.7471264,0.895627809 L20.7471264,21.2343606 L0,21.2343606 L0,0.895627809 Z" id="Shape" fill="#006BB6"></path>
                    <path d="M21.2908964,22.3048732 C21.1474295,22.3028497 21.0094422,22.3588229 20.9093816,22.4596308 C20.8052984,22.560772 20.7468646,22.6985594 20.7471273,22.8422259 C20.7495134,23.1356495 20.991575,23.3729417 21.2908964,23.3752798 C21.4373537,23.3750623 21.5777316,23.3178528 21.6811816,23.2162234 C21.7835807,23.1178459 21.8405982,22.9827688 21.8390497,22.8422259 C21.8397921,22.7005734 21.7829887,22.5644567 21.6811816,22.4639296 C21.5788708,22.3606453 21.437747,22.3031319 21.2908964,22.3048732 M21.7776565,22.8422259 C21.783402,22.9666584 21.733808,23.0874163 21.6417145,23.1732352 C21.5523214,23.272214 21.4256388,23.3312026 21.2908964,23.3365904 C21.0230585,23.3342564 20.8065171,23.1219817 20.8041362,22.8594212 C20.8050667,22.7319938 20.8570387,22.6100275 20.9488486,22.5198143 C21.038079,22.4314974 21.1597099,22.3819454 21.2865111,22.382252 C21.4159668,22.381093 21.5404643,22.4309938 21.6320071,22.5207328 C21.7235499,22.6104719 21.7744536,22.7325163 21.7732713,22.8594212 M21.304052,22.5413084 L21.071635,22.5413084 L21.071635,23.1560399 L21.16811,23.1560399 L21.16811,22.8852142 L21.3128225,22.8852142 L21.4443793,23.1560399 L21.55401,23.1560399 L21.4136827,22.8723177 C21.4991512,22.8676919 21.5652883,22.7971373 21.5627804,22.7132613 C21.5627804,22.5928943 21.4750759,22.5413084 21.304052,22.5413084 M21.304052,22.6057908 C21.4268384,22.6057908 21.4838463,22.6358825 21.4838463,22.7175601 C21.4838463,22.7992377 21.4268384,22.8250307 21.304052,22.8250307 L21.1856509,22.8250307 L21.1856509,22.6057908 L21.304052,22.6057908 Z" id="Shape" fill="#006BB6"></path>
                    <path d="M31.0131025,4.78105186 C31.0131025,5.01625797 31.0131025,5.95708242 31.0347208,6.16062617 C31.0115647,6.22005668 30.9527957,6.25545491 30.8920398,6.24656686 C30.8012428,6.11087103 30.5807357,5.83495617 29.9278619,5.05696672 L28.1983948,2.97629726 C27.9951825,2.73204476 27.480666,2.07165837 27.3336613,1.91334656 L27.3336613,1.91334656 C27.2903969,2.08302356 27.2685926,2.25790416 27.2688063,2.43351393 L27.2688063,4.15232783 C27.2439266,4.70043154 27.2890015,5.24955911 27.40284,5.78520103 C27.4460767,5.87114172 27.597405,5.92089686 27.7876464,5.93446645 L28.0211245,5.95708242 C28.071637,6.01289941 28.071637,6.10028599 28.0211245,6.15610297 C27.6838784,6.15610297 27.415811,6.133487 27.1563909,6.133487 C26.8969709,6.133487 26.6375508,6.133487 26.3738071,6.15610297 C26.3232945,6.10028599 26.3232945,6.01289941 26.3738071,5.95708242 L26.5770195,5.93446645 C26.7499662,5.91185047 26.8710289,5.86209533 26.9099419,5.77615464 C26.9984498,5.24015031 27.0317883,4.69576572 27.0093862,4.15232783 L27.0093862,1.89073059 C27.0352957,1.68489664 26.9754589,1.47733444 26.8450869,1.32080809 C26.7122886,1.20789556 26.5489573,1.14144665 26.3781307,1.13083392 L26.2484207,1.13083392 C26.2219444,1.10515509 26.2068966,1.06909388 26.2068966,1.03132364 C26.2068966,0.993553402 26.2219444,0.957492192 26.2484207,0.931813365 C26.5640485,0.954429337 26.9661496,0.954429337 27.1131543,0.954429337 C27.2288169,0.955406496 27.3444014,0.947849091 27.4590477,0.931813365 C27.8339651,1.55532103 28.2685715,2.1372889 28.756148,2.66872004 L29.4306401,3.48741824 C29.9494802,4.0935263 30.3213157,4.53679935 30.6758564,4.91674769 L30.6758564,4.91674769 C30.7079953,4.81012747 30.7183076,4.69762114 30.7061221,4.58655449 L30.7061221,2.88583337 C30.7334067,2.33670218 30.6824051,1.78638072 30.5547937,1.25296017 C30.511557,1.18058906 30.3904943,1.13535712 30.0878376,1.09464837 L29.9581276,1.09464837 C29.9062436,1.04941642 29.9148909,0.922766976 29.9581276,0.895627809 C30.304021,0.895627809 30.5634411,0.918243782 30.8488031,0.918243782 C31.1341652,0.918243782 31.3676432,0.918243782 31.6270633,0.895627809 C31.6524109,0.92195273 31.6666667,0.957772692 31.6666667,0.995138087 C31.6666667,1.03250348 31.6524109,1.06832344 31.6270633,1.09464837 L31.5232953,1.09464837 C31.2811699,1.13535712 31.1298415,1.19868184 31.0909285,1.26200656 C30.9986831,1.7975694 30.9725274,2.34330369 31.0131025,2.88583337 L31.0131025,4.78105186 Z" id="Path" fill="#231F20" fill-rule="nonzero"></path>
                    <path d="M35.173398,4.39472936 C35.1170708,4.22296968 35.0842133,4.19584973 34.8401286,4.19584973 L33.6009297,4.19584973 C33.3943965,4.19584973 33.3474572,4.21844969 33.2911299,4.38568938 L33.0047999,5.21284784 C32.9199583,5.42416634 32.860124,5.64402057 32.8264303,5.86824662 C32.8264303,5.96316644 32.8686757,6.00836636 33.065821,6.02644632 L33.3380693,6.04904628 C33.3697224,6.07304313 33.3881981,6.10969325 33.3881981,6.14848609 C33.3881981,6.18727894 33.3697224,6.22392906 33.3380693,6.24792591 C33.1268422,6.24792591 32.8686757,6.24792591 32.488467,6.22532595 C32.2162187,6.22532595 31.9251947,6.22532595 31.7045798,6.24792591 C31.654029,6.19056838 31.654029,6.1064038 31.7045798,6.04904628 L31.976828,6.02644632 C32.2007204,6.00411676 32.3872658,5.85142907 32.4462216,5.64224704 C32.5917336,5.28064771 32.8217364,4.76536867 33.1643937,3.88397031 L33.9999142,1.75505427 C34.0964008,1.583099 34.14492,1.3899847 34.1407322,1.19457531 C34.3098052,1.13650484 34.4580444,1.0329749 34.5678804,0.89625587 C34.6208981,0.890868824 34.6710247,0.920572839 34.6899227,0.968575735 C34.7978832,1.31661509 34.9293134,1.67821441 35.0513557,2.02625377 L36.1732063,5.19024788 C36.412597,5.86824662 36.5158636,5.9857664 36.8679087,6.02644632 L37.0885237,6.04904628 C37.1390745,6.1064038 37.1390745,6.19056838 37.0885237,6.24792591 C36.7552543,6.24792591 36.4689242,6.22532595 36.0981033,6.22532595 C35.7272824,6.22532595 35.394013,6.22532595 35.1593162,6.24792591 C35.1292054,6.22302386 35.1118814,6.18670682 35.1118814,6.14848609 C35.1118814,6.11026536 35.1292054,6.07394833 35.1593162,6.04904628 L35.3987069,6.02644632 C35.5723825,6.02644632 35.685037,5.96316644 35.685037,5.88632658 C35.668359,5.74371679 35.6320537,5.60387716 35.5770765,5.47048736 L35.173398,4.39472936 Z M33.5305206,3.69413066 C33.4648055,3.87493033 33.4741934,3.88397031 33.7041962,3.88397031 L34.7086984,3.88397031 C34.9480891,3.88397031 34.9621709,3.85233037 34.887068,3.63989076 L34.4693077,2.35169316 C34.4155889,2.18297861 34.3529208,2.01702768 34.2815503,1.85449409 L34.2815503,1.85449409 C34.208015,2.00188585 34.142217,2.15274242 34.084405,2.30649325 L33.5305206,3.69413066 Z" id="Shape" fill="#231F20" fill-rule="nonzero"></path>
                    <path d="M40.6869869,5.0710558 C40.6869869,5.87767464 40.6869869,5.99227622 41.0769704,6.031946 L41.2953612,6.05398477 C41.3343596,6.08483904 41.3226601,6.22147939 41.2953612,6.24792591 C40.9053777,6.24792591 40.6752874,6.22588714 40.4061987,6.22588714 C40.13711,6.22588714 39.8953202,6.22588714 39.4624384,6.24792591 C39.4385574,6.22290246 39.4249847,6.18776161 39.4249847,6.15095534 C39.4249847,6.11414907 39.4385574,6.07900822 39.4624384,6.05398477 L39.7081281,6.031946 C40.0981117,5.99227622 40.1293103,5.87767464 40.1293103,5.0710558 L40.1293103,1.63300829 C40.1293103,1.39498961 40.1293103,1.38617411 39.9265189,1.38617411 L39.5365353,1.38617411 C39.2459631,1.34971726 38.95261,1.41757131 38.6980706,1.58011525 C38.5624321,1.72801047 38.4584018,1.90890159 38.3938834,2.10904564 C38.3322076,2.14657283 38.2553448,2.12340657 38.2183908,2.0561526 C38.3287026,1.68172078 38.4147268,1.29870125 38.47578,0.91013676 C38.5169709,0.890791492 38.5632836,0.890791492 38.6044745,0.91013676 C38.6434729,1.15697094 38.8696634,1.14815543 39.1816502,1.14815543 L41.9349343,1.14815543 C42.3015189,1.14815543 42.3639163,1.14815543 42.465312,0.932175526 C42.5004105,0.932175526 42.5745074,0.932175526 42.5862069,0.954214292 C42.508897,1.33716314 42.4748271,1.72963988 42.4848112,2.1222689 C42.4353839,2.17433789 42.3587459,2.17433789 42.3093186,2.1222689 C42.2898194,1.92832775 42.2430213,1.64623155 42.1377258,1.56248424 C41.9008312,1.4108845 41.6290733,1.3433111 41.3577586,1.36854309 L40.8819787,1.36854309 C40.6791872,1.36854309 40.683087,1.36854309 40.683087,1.62860053 L40.6869869,5.0710558 Z" id="Path" fill="#231F20" fill-rule="nonzero"></path>
                    <path d="M45.5319694,2.12864213 C45.5319694,1.27430636 45.5319694,1.14038346 45.0211009,1.09882118 L44.8090423,1.09882118 C44.7608472,1.06649496 44.7753057,0.923335996 44.8090423,0.895627809 C45.22834,0.895627809 45.5175108,0.918717965 45.8693353,0.918717965 C46.2211598,0.918717965 46.4910525,0.918717965 46.9103502,0.895627809 C46.9585453,0.918717965 46.9778234,1.06649496 46.9103502,1.09882118 L46.6982916,1.09882118 C46.2163403,1.14038346 46.1874232,1.27430636 46.1874232,2.12864213 L46.1874232,4.99643947 C46.1874232,5.85077523 46.1874232,5.96160798 46.6982916,6.02164238 L46.9103502,6.04473254 C46.9585453,6.07705876 46.9440868,6.22021772 46.9103502,6.24792591 C46.4910525,6.24792591 46.2018817,6.22483575 45.8693353,6.22483575 C45.5367889,6.22483575 45.22834,6.22483575 44.8090423,6.24792591 C44.7571391,6.18932429 44.7571391,6.10333416 44.8090423,6.04473254 L45.0211009,6.02164238 C45.5030523,5.96622601 45.5319694,5.85077523 45.5319694,4.99643947 L45.5319694,2.12864213 Z" id="Path" fill="#231F20" fill-rule="nonzero"></path>
                    <path d="M48.046973,3.62235361 C48.0268529,2.89038864 48.3123038,2.18273063 48.8356889,1.66705743 C49.359074,1.15138422 50.0738164,0.8735864 50.8105596,0.899487485 C51.5321821,0.859931423 52.2369023,1.12585016 52.750059,1.63133716 C53.2632157,2.13682416 53.5367772,2.83456554 53.5029426,3.55162981 C53.5137538,4.2657379 53.2341469,4.9539962 52.7273916,5.46066516 C52.2206364,5.96733412 51.5295672,6.24958658 50.8105596,6.24355427 C50.0872529,6.28528827 49.3789841,6.02677125 48.8549899,5.52977439 C48.3309957,5.03277753 48.038348,4.3419473 48.046973,3.62235361 L48.046973,3.62235361 Z M52.7286044,3.78590238 C52.7286044,2.51287407 52.1634264,1.13376006 50.6815032,1.13376006 C49.8760134,1.13376006 48.8257615,1.68186947 48.8257615,3.37040009 C48.8257615,4.51082129 49.3864892,5.99162173 50.9129147,5.99162173 C51.8385604,5.99602099 52.7241542,5.30204375 52.7241542,3.78590238 L52.7286044,3.78590238 Z" id="Shape" fill="#231F20" fill-rule="nonzero"></path>
                    <path d="M59.3932171,4.78105186 C59.3932171,5.01625797 59.3932171,5.95708242 59.4146226,6.16062617 C59.3916945,6.22005668 59.3335041,6.25545491 59.2733463,6.24656686 C59.1834432,6.11087103 58.9693882,5.83495617 58.3186609,5.05696672 L56.6062208,2.97629726 C56.4050091,2.73204476 55.8955581,2.07165837 55.7500007,1.91334656 L55.7500007,1.91334656 C55.6941938,2.08119069 55.6596454,2.25609673 55.6472543,2.43351393 L55.6472543,4.15232783 C55.6227724,4.70042845 55.6674018,5.24953464 55.7799684,5.78520103 C55.8227794,5.87114172 55.9726179,5.92089686 56.1609864,5.93446645 L56.3921658,5.95708242 C56.442181,6.01289941 56.442181,6.10028599 56.3921658,6.15610297 C56.0582399,6.15610297 55.7970928,6.133487 55.5359457,6.133487 C55.2747986,6.133487 55.0222137,6.133487 54.7610665,6.15610297 C54.7110513,6.10028599 54.7110513,6.01289941 54.7610665,5.95708242 L54.9622782,5.93446645 C55.1335223,5.91185047 55.2533931,5.86209533 55.291923,5.77615464 C55.3795268,5.24014623 55.4125369,4.69576535 55.3903883,4.15232783 L55.3903883,1.89073059 C55.4160427,1.68489664 55.356795,1.47733444 55.2277065,1.32080809 C55.0960697,1.20816105 54.9344302,1.14174658 54.7653476,1.13083392 L54.6369146,1.13083392 C54.6118165,1.104509 54.5977011,1.06868904 54.5977011,1.03132364 C54.5977011,0.993958248 54.6118165,0.958138286 54.6369146,0.931813365 C54.9494349,0.954429337 55.3475773,0.954429337 55.4931347,0.954429337 C55.6076586,0.955406496 55.7221052,0.947849091 55.8356227,0.931813365 C56.2069944,1.55521314 56.6373109,2.13716599 57.1199528,2.66872004 L57.8434588,3.52812699 C58.3571908,4.13423505 58.7253655,4.57750811 59.0764157,4.95745644 L59.0764157,4.95745644 C59.1084935,4.85089124 59.1187096,4.73832715 59.1063834,4.62726324 L59.1063834,2.88583337 C59.1333994,2.33670218 59.0828999,1.78638072 58.9565449,1.25296017 C58.9137339,1.18058906 58.7938631,1.13535712 58.4941861,1.09464837 L58.365753,1.09464837 C58.3143798,1.04941642 58.322942,0.922766976 58.365753,0.895627809 C58.7082411,0.895627809 58.9651071,0.918243782 59.2476597,0.918243782 C59.5302124,0.918243782 59.7613918,0.918243782 60.0182578,0.895627809 C60.0433559,0.92195273 60.0574713,0.957772692 60.0574713,0.995138087 C60.0574713,1.03250348 60.0433559,1.06832344 60.0182578,1.09464837 L59.9155114,1.09464837 C59.6757698,1.13535712 59.5259313,1.19868184 59.4874013,1.26200656 C59.3843218,1.79596705 59.3469098,2.34175231 59.3760927,2.88583337 L59.3932171,4.78105186 Z" id="Path" fill="#231F20" fill-rule="nonzero"></path>
                    <path d="M64.6737405,4.39472936 C64.6168261,4.22296968 64.583626,4.19584973 64.3322541,4.19584973 L63.0848802,4.19584973 C62.8761941,4.19584973 62.8287654,4.21844969 62.771851,4.38568938 L62.5015076,5.21284784 C62.41582,5.42417815 62.3553632,5.64402821 62.3212787,5.86824662 C62.3212787,5.96316644 62.3639645,6.00836636 62.5631649,6.02644632 L62.8382511,6.04904628 C62.8702342,6.07304313 62.8889025,6.10969325 62.8889025,6.14848609 C62.8889025,6.18727894 62.8702342,6.22392906 62.8382511,6.24792591 C62.6248222,6.24792591 62.3639645,6.24792591 61.9797923,6.22532595 C61.704706,6.22532595 61.4106483,6.22532595 61.1877336,6.24792591 C61.1366559,6.19056838 61.1366559,6.1064038 61.1877336,6.04904628 L61.4628199,6.02644632 C61.6890462,6.00411676 61.8775362,5.85142907 61.9371065,5.64224704 C62.0841354,5.28064771 62.3165358,4.76536867 62.6627651,3.88397031 L63.4500809,1.75505427 C63.547778,1.5831739 63.5968163,1.39000725 63.5923669,1.19457531 C63.7632024,1.13650484 63.9129868,1.0329749 64.0239678,0.89625587 C64.0775382,0.890868824 64.1281873,0.920572839 64.1472823,0.968575735 C64.2563682,1.31661509 64.3891685,1.67821441 64.512483,2.02625377 L65.6460281,5.19024788 C65.8879143,5.86824662 65.9922574,5.9857664 66.3479724,6.02644632 L66.5708871,6.04904628 C66.6219648,6.1064038 66.6219648,6.19056838 66.5708871,6.24792591 C66.2294007,6.24792591 65.9400858,6.22532595 65.5701423,6.22532595 C65.2001987,6.22532595 64.8587123,6.22532595 64.621569,6.24792591 C64.5911442,6.22302386 64.5736396,6.18670682 64.5736396,6.14848609 C64.5736396,6.11026536 64.5911442,6.07394833 64.621569,6.04904628 L64.8634551,6.02644632 C65.0389412,6.02644632 65.15277,5.96316644 65.15277,5.88632658 C65.1362566,5.74365877 65.0995617,5.60377658 65.0436841,5.47048736 L64.6737405,4.39472936 Z M63.0374515,3.69413066 C62.9710514,3.87493033 62.9805371,3.88397031 63.2129376,3.88397031 L64.2326539,3.88397031 C64.4745401,3.88397031 64.4887687,3.85233037 64.4128828,3.63989076 L63.9670534,2.35621315 C63.9127353,2.18751114 63.8494147,2.02156211 63.7773387,1.85901408 L63.7773387,1.85901408 C63.7028198,2.00631266 63.6363311,2.15717989 63.5781383,2.31101324 L63.0374515,3.69413066 Z" id="Shape" fill="#231F20" fill-rule="nonzero"></path>
                    <path d="M68.4991415,2.11689548 C68.4991415,1.27033494 68.4991415,1.14080655 67.9495636,1.09917242 L67.7355687,1.09917242 C67.6869335,1.06679032 67.7015241,0.923383893 67.7355687,0.895627809 C68.2219208,0.895627809 68.4991415,0.918757879 68.8395879,0.918757879 C69.1800343,0.918757879 69.457255,0.918757879 69.8803813,0.895627809 C69.9290165,0.918757879 69.9484706,1.06679032 69.8803813,1.09917242 L69.6761134,1.09917242 C69.1897614,1.14080655 69.1605803,1.27033494 69.1605803,2.11689548 L69.1605803,4.92488593 C69.1605803,5.43374746 69.1848979,5.64191809 69.335667,5.79457655 C69.4864361,5.94723501 69.5885701,5.9796171 70.2597359,5.9796171 C70.9309017,5.9796171 71.1594872,5.94723501 71.2956658,5.87321878 C71.5580143,5.66221102 71.7519722,5.38467968 71.8549706,5.07291838 C71.9036058,5.03128425 72.0689655,5.07291838 72.0689655,5.11917851 C71.9869208,5.5049064 71.8680836,5.88271847 71.7139285,6.24792591 C71.2810752,6.24792591 70.4737308,6.22479584 69.6031606,6.22479584 L68.8444514,6.22479584 C68.4894144,6.22479584 68.2170573,6.22479584 67.7404323,6.24792591 C67.6880551,6.18922299 67.6880551,6.10308422 67.7404323,6.0443813 L67.9933353,6.02125123 C68.4796874,5.97499109 68.4796874,5.85934074 68.4796874,5.01278019 L68.4991415,2.11689548 Z" id="Path" fill="#231F20" fill-rule="nonzero"></path>
                    <path d="M29.708934,12.9764863 C29.6432189,12.8047266 29.6432189,12.7595267 29.3756646,12.7595267 L28.1411596,12.7595267 C27.9346264,12.7595267 27.887687,12.7821266 27.8313598,12.9493663 L27.5450298,13.7765248 C27.4601501,13.9878315 27.4003147,14.2076899 27.3666602,14.4319236 C27.3666602,14.5268434 27.4089056,14.5720433 27.6060509,14.5901233 L27.8782992,14.6127232 C27.9099522,14.6367201 27.928428,14.6733702 27.928428,14.7121631 C27.928428,14.7509559 27.9099522,14.787606 27.8782992,14.8116029 C27.6670721,14.8116029 27.4089056,14.8116029 27.0286969,14.7890029 C26.7564486,14.7890029 26.4654246,14.7890029 26.2448096,14.8116029 C26.1942589,14.7542453 26.1942589,14.6700808 26.2448096,14.6127232 L26.5170579,14.5901233 C26.7409503,14.5677937 26.9274957,14.415106 26.9864514,14.205924 C27.1319634,13.8443247 27.3619663,13.3290456 27.7046236,12.4476473 L28.5401441,10.3187312 C28.6366307,10.146776 28.6851499,9.95366166 28.6809621,9.75825228 C28.8500351,9.7001818 28.9982742,9.59665186 29.1081103,9.45993283 C29.161128,9.45454578 29.2112546,9.4842498 29.2301526,9.5322527 C29.3381131,9.88029205 29.4695433,10.2418914 29.5915856,10.5899307 L30.7134362,13.7539248 C30.9528269,14.4319236 31.0560935,14.5494434 31.4081386,14.5901233 L31.6287536,14.6127232 C31.6793044,14.6700808 31.6793044,14.7542453 31.6287536,14.8116029 C31.2954842,14.8116029 31.0044602,14.7890029 30.6383332,14.7890029 C30.2722062,14.7890029 29.9342429,14.7890029 29.6995461,14.8116029 C29.6694353,14.7867008 29.6521113,14.7503838 29.6521113,14.7121631 C29.6521113,14.6739423 29.6694353,14.6376253 29.6995461,14.6127232 L29.9389368,14.5901233 C30.1126124,14.5901233 30.2252669,14.5268434 30.2252669,14.4500035 C30.2090002,14.305859 30.1726883,14.1644737 30.1173064,14.0296443 L29.708934,12.9764863 Z M28.0895263,12.2758876 C28.0238112,12.4566873 28.033199,12.4657272 28.2632019,12.4657272 L29.2677041,12.4657272 C29.5070948,12.4657272 29.5211766,12.4340873 29.4460736,12.2216477 L29.0048437,10.9515301 C28.9511562,10.7828054 28.8884876,10.6168529 28.8170863,10.454331 L28.8170863,10.454331 C28.7435075,10.6017039 28.6777085,10.7525626 28.619941,10.9063301 L28.0895263,12.2758876 Z" id="Shape" fill="#231F20" fill-rule="nonzero"></path>
                    <path d="M33.1811481,14.8107961 C32.7311396,14.821682 32.2859255,14.7222405 31.8898034,14.5223658 C31.755544,14.1745234 31.6802571,13.8092101 31.6666667,13.4396429 C31.709395,13.3863942 31.8328323,13.3686446 31.8660655,13.4174559 C31.9925196,14.0666725 32.5848204,14.5464597 33.2903427,14.5711771 C33.556618,14.5936694 33.8206998,14.5101947 34.0177106,14.3412604 C34.2147214,14.1723261 34.3264027,13.9335887 34.3253175,13.6836993 C34.3447525,13.2298195 34.0795856,12.8069295 33.646412,12.6009763 L32.858312,12.1217383 C32.339467,11.8472508 32.0038094,11.3466239 31.9657649,10.7905215 C31.9657649,10.0539149 32.5782041,9.45930477 33.6559072,9.45930477 C33.9157603,9.46400485 34.1740329,9.49827732 34.4250169,9.56136472 C34.5190398,9.58800987 34.6164163,9.60293021 34.71462,9.60573861 C34.8112789,9.91269749 34.8608316,10.2309262 34.8617953,10.5509025 C34.8285622,10.5952764 34.6956296,10.6219007 34.6529013,10.5730895 C34.5839763,10.0477047 34.0934214,9.66078254 33.5277223,9.68561162 C33.268155,9.65154543 33.0060063,9.72882914 32.8143254,9.89592724 C32.6226445,10.0630253 32.5219215,10.3020755 32.5402234,10.5464651 C32.5884473,10.9533799 32.8525371,11.3102893 33.2428668,11.4960664 L33.9075295,11.8821193 C34.5164749,12.1644248 34.9129789,12.7339201 34.9425287,13.3686446 C34.9472519,14.2339355 34.2588513,14.8107961 33.1811481,14.8107961 Z" id="Path" fill="#231F20" fill-rule="nonzero"></path>
                    <path d="M37.563042,14.8101798 C37.108716,14.824786 36.6583412,14.7267393 36.2575954,14.525984 C36.1233505,14.177893 36.0480718,13.8123186 36.0344828,13.4424873 C36.0772065,13.3892005 36.2006305,13.3714383 36.23386,13.4202845 C36.3603005,14.069965 36.9525374,14.5500951 37.6579835,14.5748301 C37.92423,14.5973385 38.1882833,14.5138041 38.3852729,14.3447491 C38.5822624,14.1756941 38.6939317,13.9367861 38.6928466,13.6867181 C38.7122795,13.2325139 38.4471412,12.8093218 38.0140144,12.6032214 L37.2259994,12.1236409 C36.7072105,11.8489573 36.3715891,11.3479726 36.3335487,10.7914728 C36.3335487,10.0543398 36.9459218,9.45930477 38.0235086,9.45930477 C38.2833336,9.46400821 38.5415783,9.49830517 38.7925352,9.56143765 C38.8865479,9.58810185 38.9839139,9.60303285 39.082107,9.60584326 C39.1787555,9.91302149 39.2283028,10.2314776 39.2292664,10.5516826 C39.1960369,10.5960882 39.0631187,10.6227315 39.020395,10.5738854 C38.9514774,10.0481251 38.4609755,9.66092652 37.8953374,9.68577334 C37.6357981,9.65168281 37.3736778,9.72902174 37.1820176,9.89623926 C36.9903573,10.0634568 36.8896452,10.3026777 36.9079452,10.547242 C36.9561638,10.9544476 37.2202252,11.311612 37.6105127,11.4975219 L38.2751037,11.8838506 C38.8839833,12.1663579 39.2804445,12.7362602 39.3099668,13.3714383 C39.3289551,14.232907 38.6311346,14.8101798 37.563042,14.8101798 Z" id="Path" fill="#231F20" fill-rule="nonzero"></path>
                    <path d="M41.4952489,12.1860306 C41.4751288,11.4540656 41.7605797,10.7464076 42.2839648,10.2307344 C42.8073499,9.71506118 43.5220923,9.43726336 44.2588355,9.46316445 C44.980458,9.42360838 45.6851782,9.68952712 46.1983349,10.1950141 C46.7114916,10.7005011 46.985053,11.3982425 46.9512185,12.1153068 C46.9620296,12.8294149 46.6824228,13.5176732 46.1756675,14.0243421 C45.6689122,14.5310111 44.977843,14.8132635 44.2588355,14.8072312 C43.5355287,14.8489652 42.8272599,14.5904482 42.3032658,14.0934514 C41.7792716,13.5964545 41.4866238,12.9056243 41.4952489,12.1860306 L41.4952489,12.1860306 Z M46.1768802,12.3495793 C46.1768802,11.076551 45.6117023,9.69743702 44.1297791,9.69743702 C43.3242893,9.69743702 42.2740374,10.2455464 42.2740374,11.934077 C42.2740374,13.0744982 42.8347651,14.5552987 44.3611905,14.5552987 C45.2912865,14.559698 46.1768802,13.8657207 46.1768802,12.3495793 Z" id="Shape" fill="#231F20" fill-rule="nonzero"></path>
                    <path d="M48.9216615,10.1188362 C49.4596177,9.67007535 50.1166601,9.43823277 50.7865073,9.46081079 C51.1993923,9.46949744 51.6099707,9.53216544 52.0099411,9.64754774 C52.0723281,9.67136069 52.1381194,9.68191499 52.2039485,9.67867056 C52.2039485,9.85651527 52.2435418,10.3455882 52.2989724,10.8168767 C52.2449083,10.8667987 52.166948,10.8667987 52.1128838,10.8168767 C52.0099411,10.2877887 51.7169505,9.68311668 50.699402,9.68311668 C49.6818534,9.68311668 48.7434915,10.4345106 48.7434915,12.0395591 C48.7434915,13.6446075 49.6620567,14.5694 50.794426,14.5694 C51.4388338,14.5944026 52.0228102,14.1458099 52.2356231,13.4623167 C52.2943377,13.4255573 52.3677965,13.4383891 52.4137931,13.4934395 C52.3653699,13.8685213 52.2524091,14.2294369 52.0812091,14.5560617 C51.9987685,14.5726879 51.9179052,14.5979942 51.8396898,14.6316457 C51.484306,14.7463396 51.1166718,14.8061705 50.746914,14.8094904 C50.1406374,14.8335082 49.5419363,14.6522636 49.0285635,14.2892946 C48.3982481,13.8128324 48.0280085,13.0081373 48.0466489,12.1551581 C48.0430623,11.3611748 48.365948,10.6097581 48.9216615,10.1188362 L48.9216615,10.1188362 Z" id="Path" fill="#231F20" fill-rule="nonzero"></path>
                    <path d="M54.2676015,10.6933839 C54.2676015,9.83831034 54.2676015,9.70427178 53.7567331,9.66267361 L53.5446745,9.66267361 C53.4964794,9.63031948 53.5109379,9.48703688 53.5446745,9.45930477 C53.9639722,9.45930477 54.253143,9.48241487 54.6049675,9.48241487 C54.956792,9.48241487 55.2266847,9.48241487 55.6459824,9.45930477 C55.6941775,9.48241487 55.7134556,9.63031948 55.6459824,9.66267361 L55.4339238,9.66267361 C54.9519724,9.70427178 54.9230554,9.83831034 54.9230554,10.6933839 L54.9230554,13.5636577 C54.9230554,14.4187312 54.9230554,14.5296597 55.4339238,14.5851239 L55.6459824,14.608234 C55.6941775,14.6405882 55.679719,14.7838708 55.6459824,14.8116029 C55.2266847,14.8116029 54.9423334,14.7884928 54.6049675,14.7884928 C54.2676015,14.7884928 53.9639722,14.7884928 53.5446745,14.8116029 C53.4927713,14.7529506 53.4927713,14.6668863 53.5446745,14.608234 L53.7567331,14.5851239 C54.2386845,14.5296597 54.2676015,14.4187312 54.2676015,13.5636577 L54.2676015,10.6933839 Z" id="Path" fill="#231F20" fill-rule="nonzero"></path>
                    <path d="M61.3802946,12.9584063 C61.3239674,12.7866466 61.2911098,12.7595267 61.0423312,12.7595267 L59.8078262,12.7595267 C59.6012931,12.7595267 59.5543537,12.7821266 59.4980265,12.9493663 L59.2116964,13.7765248 C59.1268168,13.9878315 59.0669814,14.2076899 59.0333269,14.4319236 C59.0333269,14.5268434 59.0755723,14.5720433 59.2727176,14.5901233 L59.5449658,14.6127232 C59.5766189,14.6367201 59.5950947,14.6733702 59.5950947,14.7121631 C59.5950947,14.7509559 59.5766189,14.787606 59.5449658,14.8116029 C59.3337387,14.8116029 59.0755723,14.8116029 58.6953635,14.7890029 C58.4231153,14.7890029 58.1320913,14.7890029 57.9114763,14.8116029 C57.8609255,14.7542453 57.8609255,14.6700808 57.9114763,14.6127232 L58.1837246,14.5901233 C58.407617,14.5677937 58.5941624,14.415106 58.6531181,14.205924 C58.7986301,13.8443247 59.0286329,13.3290456 59.3712902,12.4476473 L60.2068107,10.3187312 C60.3034999,10.1468509 60.3520323,9.95368421 60.3476288,9.75825228 C60.5167018,9.7001818 60.6649409,9.59665186 60.7747769,9.45993283 C60.8277947,9.45454578 60.8779212,9.4842498 60.8968192,9.5322527 C61.0047798,9.88029205 61.1362099,10.2418914 61.2582523,10.5899307 L62.3801028,13.7539248 C62.6194935,14.4319236 62.7227601,14.5494434 63.0748053,14.5901233 L63.2954202,14.6127232 C63.345971,14.6700808 63.345971,14.7542453 63.2954202,14.8116029 C62.9574569,14.8116029 62.6711268,14.7890029 62.3049999,14.7890029 C61.9388729,14.7890029 61.6009096,14.7890029 61.3662128,14.8116029 C61.3361019,14.7867008 61.318778,14.7503838 61.318778,14.7121631 C61.318778,14.6739423 61.3361019,14.6376253 61.3662128,14.6127232 L61.6056035,14.5901233 C61.7792791,14.5901233 61.8919336,14.5268434 61.8919336,14.4500035 C61.876009,14.3058008 61.8396858,14.1643716 61.783973,14.0296443 L61.3802946,12.9584063 Z M59.7608869,12.2578076 C59.6951718,12.4386073 59.7045596,12.4476473 59.9345625,12.4476473 L60.9437586,12.4476473 C61.1831493,12.4476473 61.1972311,12.4160073 61.1221281,12.2035677 L60.6762043,10.9334501 C60.6224855,10.7647355 60.5598174,10.5987846 60.4884469,10.436251 L60.4884469,10.436251 C60.4146814,10.583543 60.3488784,10.734411 60.2913016,10.8882502 L59.7608869,12.2578076 Z" id="Shape" fill="#231F20" fill-rule="nonzero"></path>
                    <path d="M65.8002321,13.6347328 C65.8002321,14.4413516 65.8002321,14.5559532 66.1905642,14.595623 L66.4091502,14.6176617 C66.4481834,14.648516 66.4364735,14.7851564 66.4091502,14.8116029 C66.0188181,14.8116029 65.7885222,14.7895641 65.519193,14.7895641 C65.2498639,14.7895641 65.007858,14.7895641 64.5745894,14.8116029 C64.551706,14.7859498 64.5388362,14.7510441 64.5388362,14.7146323 C64.5388362,14.6782205 64.551706,14.6433148 64.5745894,14.6176617 L64.8204986,14.595623 C65.2108307,14.5559532 65.2420573,14.4413516 65.2420573,13.6347328 L65.2420573,10.1966852 C65.2420573,9.95866658 65.2420573,9.94985107 65.0390846,9.94985107 L64.6487525,9.94985107 C64.3592094,9.91433643 64.067089,9.98216047 63.8134418,10.1437922 C63.6775754,10.291588 63.5734351,10.4725088 63.5089828,10.6727226 C63.4472518,10.7102498 63.3703203,10.6870835 63.3333333,10.6198296 C63.4437172,10.245389 63.5298178,9.86237163 63.5909525,9.47381372 C63.6321802,9.45446845 63.6785344,9.45446845 63.7197621,9.47381372 C63.7587953,9.7206479 63.9851879,9.71183239 64.2974536,9.71183239 L67.0492948,9.71183239 C67.416207,9.71183239 67.4786601,9.71183239 67.5801465,9.49585249 C67.6152764,9.49585249 67.6894395,9.49585249 67.7011494,9.51789125 C67.6240998,9.90090044 67.5900036,10.2933299 67.5996631,10.6859459 C67.5723398,10.7476544 67.4552402,10.7476544 67.4240136,10.6859459 C67.404497,10.4920047 67.3537539,10.2099085 67.2522675,10.1261612 C67.0152488,9.97430364 66.7431769,9.90671256 66.4716033,9.93222006 L65.9953982,9.93222006 C65.7924255,9.93222006 65.7963288,9.93222006 65.7963288,10.1922775 L65.8002321,13.6347328 Z" id="Path" fill="#231F20" fill-rule="nonzero"></path>
                    <path d="M70.6469119,10.6933839 C70.6469119,9.83831034 70.6469119,9.70427178 70.1360435,9.66267361 L69.9239849,9.66267361 C69.8757897,9.63031948 69.8902483,9.48703688 69.9239849,9.45930477 C70.3432825,9.45930477 70.6324533,9.48241487 70.9842778,9.48241487 C71.3361023,9.48241487 71.6059951,9.48241487 72.0252927,9.45930477 C72.0734879,9.48241487 72.0927659,9.63031948 72.0252927,9.66267361 L71.8132341,9.66267361 C71.3312828,9.70427178 71.3023657,9.83831034 71.3023657,10.6933839 L71.3023657,13.5636577 C71.3023657,14.4187312 71.3023657,14.5296597 71.8132341,14.5851239 L72.0252927,14.608234 C72.0734879,14.6405882 72.0590293,14.7838708 72.0252927,14.8116029 C71.6059951,14.8116029 71.3216438,14.7884928 70.9842778,14.7884928 C70.6469119,14.7884928 70.3432825,14.7884928 69.9239849,14.8116029 C69.8720817,14.7529506 69.8720817,14.6668863 69.9239849,14.608234 L70.1360435,14.5851239 C70.6179948,14.5296597 70.6469119,14.4187312 70.6469119,13.5636577 L70.6469119,10.6933839 Z" id="Path" fill="#231F20" fill-rule="nonzero"></path>
                    <path d="M73.1619156,12.1860306 C73.1417954,11.4540656 73.4272464,10.7464076 73.9506315,10.2307344 C74.4740166,9.71506118 75.1887589,9.43726336 75.9255021,9.46316445 C76.6471246,9.42360838 77.3518448,9.68952712 77.8650015,10.1950141 C78.3781582,10.7005011 78.6517197,11.3982425 78.6178852,12.1153068 C78.6286963,12.8294149 78.3490894,13.5176732 77.8423342,14.0243421 C77.3355789,14.5310111 76.6445097,14.8132635 75.9255021,14.8072312 C75.2021954,14.8489652 74.4939266,14.5904482 73.9699324,14.0934514 C73.4459383,13.5964545 73.1532905,12.9056243 73.1619156,12.1860306 Z M77.8435469,12.3495793 C77.8435469,11.076551 77.278369,9.69743702 75.7964457,9.69743702 C74.9909559,9.69743702 73.940704,10.2455464 73.940704,11.934077 C73.940704,13.0744982 74.5014318,14.5552987 76.0278572,14.5552987 C76.9490527,14.559698 77.8346465,13.8657207 77.8346465,12.3495793 L77.8435469,12.3495793 Z" id="Shape" fill="#231F20" fill-rule="nonzero"></path>
                    <path d="M84.5116773,13.3422453 C84.5116773,13.5778497 84.5116773,14.520267 84.5333892,14.7241553 C84.5101329,14.7836865 84.4511093,14.8191446 84.3900904,14.8102415 C84.2989002,14.6743159 84.0817807,14.3979339 83.4217375,13.6186273 L81.6847818,11.5344352 C81.4806895,11.2897692 80.9639452,10.6282647 80.8163039,10.4696849 L80.8163039,10.4696849 C80.7825059,10.6379249 80.7693732,10.8099701 80.7772224,10.9816712 L80.7772224,12.7033951 C80.75239,13.2524237 80.7976583,13.8024596 80.9118365,14.3390329 C80.9552604,14.4251191 81.107244,14.4749584 81.2983091,14.488551 L81.5327982,14.5112053 C81.5835294,14.5671168 81.5835294,14.6546513 81.5327982,14.7105628 C81.1940918,14.7105628 80.929206,14.6879085 80.6643203,14.6879085 C80.3994345,14.6879085 80.1432336,14.6879085 79.8783478,14.7105628 C79.8276166,14.6546513 79.8276166,14.5671168 79.8783478,14.5112053 L80.0824401,14.488551 C80.2561357,14.4658967 80.3777226,14.4160574 80.4168041,14.3299712 C80.5056953,13.7930594 80.5391781,13.2477531 80.5166791,12.7033951 L80.5166791,10.4379689 C80.5427008,10.2317865 80.4826049,10.0238729 80.3516683,9.86708149 C80.2181469,9.75424374 80.0541934,9.68771682 79.8826902,9.67678569 L79.7524185,9.67678569 C79.7269611,9.6504162 79.7126437,9.61453559 79.7126437,9.57710693 C79.7126437,9.53967828 79.7269611,9.50379767 79.7524185,9.47742818 C80.069413,9.50008244 80.4732552,9.50008244 80.6208964,9.50008244 C80.711207,9.49314792 80.8010849,9.48104746 80.8901245,9.46383562 C81.2666654,10.0883989 81.7031536,10.6713521 82.1928413,11.203683 L82.9267051,12.0645449 C83.4477919,12.6716792 83.8212374,13.1157027 84.1773133,13.4962943 L84.1773133,13.4962943 C84.2098503,13.3895487 84.2202127,13.276794 84.20771,13.1655421 L84.20771,11.4528799 C84.2351128,10.9028189 84.1838903,10.3515658 84.0557264,9.81724211 C84.0123025,9.74474848 83.8907156,9.69943995 83.5867483,9.65866228 L83.4564766,9.65866228 C83.404368,9.61335375 83.4130528,9.48648988 83.4564766,9.45930477 C83.8038678,9.45930477 84.0644112,9.48195903 84.3510089,9.48195903 C84.6376066,9.48195903 84.8720956,9.48195903 85.1326389,9.45930477 C85.1580963,9.48567426 85.1724138,9.52155487 85.1724138,9.55898352 C85.1724138,9.59641218 85.1580963,9.63229279 85.1326389,9.65866228 L85.0284216,9.65866228 C84.7852478,9.69943995 84.6332642,9.76287188 84.5941827,9.82630382 C84.4896274,10.3611683 84.4516799,10.9078776 84.4812805,11.4528799 L84.5116773,13.3422453 Z" id="Path" fill="#231F20" fill-rule="nonzero"></path>
                    <path d="M90.6302449,11.4726212 C90.5789101,12.1292124 90.3451159,12.7448101 89.9675152,13.2176382 C89.7459108,13.540349 89.420862,13.7311169 89.0755167,13.7411433 C88.6742966,13.7411433 88.412787,13.3834148 88.4521925,12.7290334 C88.5124404,12.0824688 88.7526384,11.4805091 89.1328339,11.0232794 C89.3533888,10.7224887 89.66524,10.5444216 89.9961738,10.5303121 C90.4367995,10.5128619 90.6553212,10.9142158 90.6302449,11.4726212 Z M89.4946485,11.1061677 C89.1668477,11.6716147 88.9532819,12.3233089 88.8713243,13.0082361 C88.8713243,13.2743512 88.9465531,13.4968409 89.1292516,13.4968409 C89.3119501,13.4968409 89.4230021,13.4270402 89.6236122,13.0998495 C89.923333,12.5392414 90.1211983,11.907094 90.2039485,11.245769 C90.2039485,11.0101918 90.1717076,10.7440767 89.9531859,10.7440767 C89.8242223,10.7397141 89.6737647,10.8095148 89.4946485,11.1061677 L89.4946485,11.1061677 Z" id="Shape" fill="#231F20" fill-rule="nonzero"></path>
                    <path d="M92.6587765,12.1845982 C92.6125073,12.3155851 92.5477304,12.5557278 92.450565,12.8919276 C92.2099649,13.7651737 91.9878726,14.4768693 91.7333918,15.3151856 C91.6232927,15.7650243 91.4047984,16.1848623 91.0948763,16.5420964 C90.8360353,16.7851671 90.4923082,16.9310518 90.1278492,16.9525221 C89.6929184,16.9525221 89.5402299,16.6949145 89.5402299,16.5813925 C89.5430996,16.4470436 89.6113657,16.321425 89.7253068,16.2408265 C89.7538409,16.2208625 89.78981,16.2128301 89.8247997,16.2186083 C89.8597893,16.2243864 89.8907301,16.2434684 89.9103838,16.2713901 C90.0670172,16.4446646 90.2863822,16.5567277 90.5257647,16.5857587 C90.687707,16.5857587 90.8589032,16.533364 91.0439801,15.9439228 C91.414134,14.7432094 91.6963764,13.4333402 92.085038,12.1889644 L91.414134,12.1889644 C91.3779048,12.145562 91.3632312,12.0895415 91.3738606,12.0352093 C91.3844901,11.9808772 91.4193934,11.9334936 91.4696571,11.9051594 L92.1636957,11.9051594 C92.32766,11.2444504 92.6435816,10.6258479 93.0890805,10.0931737 C93.3905259,9.70296031 93.8683486,9.46862115 94.3799922,9.46007026 C94.6955043,9.44459421 94.9683385,9.66555038 95,9.96218679 C95,10.1586672 94.7825346,10.3988099 94.6529807,10.3988099 C94.5234268,10.3988099 94.5465615,10.3289502 94.5419345,10.2765554 C94.5187999,9.83993233 94.2920807,9.7220441 94.0792422,9.7220441 C93.8288113,9.76792106 93.6141946,9.91901086 93.4962498,10.1324698 C93.1421557,10.6792064 92.8887198,11.2785743 92.7466881,11.9051594 L93.7553575,11.9051594 C93.7854545,11.9524911 93.7940761,12.0092687 93.7792753,12.0626714 C93.7644745,12.1160741 93.7274996,12.1615983 93.6766998,12.1889644 L92.6587765,12.1845982 Z" id="Path" fill="#231F20" fill-rule="nonzero"></path>
                    <path d="M26.8299877,18.1722094 C26.8299877,17.4175937 26.8104432,17.2630338 26.5290025,17.2630338 L26.3296487,17.2221209 C26.3045737,17.1970763 26.2901471,17.1605512 26.2901471,17.1221116 C26.2901471,17.083672 26.3045737,17.047147 26.3296487,17.0221023 C26.7205386,16.9811894 27.1817886,16.95846 27.8502103,16.95846 C28.2402424,16.9288993 28.6306088,17.0100226 28.9876998,17.1948457 C29.3488048,17.4014594 29.5710628,17.8364127 29.5544901,18.3040399 C29.5285271,18.9167198 29.177796,19.4460637 28.6749879,19.6314362 C28.6398078,19.6814409 28.6749879,19.7587208 28.710168,19.8223631 C29.0707294,20.6039166 29.5336002,21.3155135 30.0821914,21.9316505 C30.2142981,22.0618341 30.3785561,22.1398359 30.5512593,22.1543985 C30.5660235,22.1672761 30.5747126,22.1874863 30.5747126,22.208949 C30.5747126,22.2304117 30.5660235,22.2506219 30.5512593,22.2634995 C30.4531052,22.2936578 30.3517627,22.3074332 30.2502741,22.3044124 C29.671757,22.3044124 29.3238651,22.1043938 28.8391616,21.3043193 C28.6632612,21.0133831 28.3818205,20.4633319 28.17074,20.1087534 C28.0672026,19.9191851 27.8767841,19.8191761 27.6860365,19.8541842 C27.3811424,19.8541842 27.3655068,19.8541842 27.3655068,20.0269276 L27.3655068,21.0270208 C27.3655068,21.8589164 27.3655068,21.9361963 27.7563967,22.0180221 L27.901026,22.0407515 C27.9431224,22.0984375 27.9431224,22.1830841 27.901026,22.2407702 C27.5961319,22.2407702 27.3615979,22.2180408 27.0918839,22.2180408 C26.8221699,22.2180408 26.5602737,22.2180408 26.239744,22.2407702 C26.1959474,22.1838247 26.1959474,22.097697 26.239744,22.0407515 L26.4117356,22.0180221 C26.8026254,21.9634716 26.8026254,21.8589164 26.8026254,21.0270208 L26.8299877,18.1722094 Z M27.3889602,19.3086789 C27.3797201,19.3956876 27.3863802,19.4839848 27.4085047,19.5677939 C27.4280492,19.5905233 27.5296806,19.6087068 27.8775726,19.6087068 C28.1249928,19.6312915 28.3720012,19.5594765 28.5811743,19.4041423 C28.8266879,19.1619651 28.9538865,18.7946997 28.9212485,18.4222327 C28.9359084,18.084886 28.8243036,17.7566708 28.6152136,17.5222237 C28.4061235,17.2877766 28.1200147,17.1700462 27.8306658,17.1993915 C27.4085047,17.1993915 27.3889602,17.2312127 27.3889602,17.4539607 L27.3889602,19.3086789 Z" id="Shape" fill="#231F20" fill-rule="nonzero"></path>
                    <path d="M32.4535359,18.1685348 C32.4535359,17.3348291 32.4535359,17.2150703 31.963122,17.1551909 L31.8335787,17.1551909 C31.7873133,17.1229481 31.8011929,16.9801588 31.8335787,16.9525221 C32.1805697,16.9525221 32.4535359,16.9755527 32.7866473,16.9755527 L34.3041545,16.9755527 C34.8223276,16.9755527 35.2988619,16.9755527 35.3913928,16.9525221 C35.4559925,17.3058293 35.4992513,17.6626756 35.5209361,18.0211393 C35.4622264,18.0707442 35.3760778,18.0707442 35.3173681,18.0211393 C35.2109575,17.6480445 35.1600655,17.3670719 34.6974109,17.2473131 C34.4389949,17.2058775 34.1770455,17.190446 33.9155246,17.201252 L33.3557125,17.201252 C33.1151321,17.201252 33.1151321,17.201252 33.1151321,17.5236796 L33.1151321,19.1312114 C33.1151321,19.3569108 33.1382648,19.3569108 33.3834717,19.3569108 L33.8461264,19.3569108 C34.0753895,19.367866 34.3051562,19.3524098 34.5308552,19.3108497 C34.6280127,19.2786069 34.6835312,19.2325458 34.7251702,19.0298771 L34.7899418,18.7028433 C34.8494129,18.6505806 34.9386653,18.6505806 34.9981364,18.7028433 C34.9981364,18.8962999 34.9657506,19.2095153 34.9657506,19.5135184 C34.9657506,19.8175216 34.9981364,20.1077064 34.9981364,20.2827386 C34.9386653,20.3350014 34.8494129,20.3350014 34.7899418,20.2827386 L34.6974109,20.0109782 C34.6857292,19.8677818 34.5862478,19.7467305 34.4475774,19.706975 C34.243245,19.66922 34.0351885,19.6553078 33.8276202,19.66552 L33.3649656,19.66552 C33.1243852,19.66552 33.0966259,19.66552 33.0966259,19.8820071 L33.0966259,21.0151098 C33.0966259,21.4388718 33.1197586,21.7152383 33.2493019,21.8488155 C33.3788452,21.9823926 33.5176416,22.0330598 34.2255032,22.0330598 C34.5740739,22.0696243 34.9264511,22.0287214 35.257223,21.913301 C35.5087829,21.7037491 35.7056242,21.4366586 35.8309147,21.1348686 C35.8651998,21.1150084 35.9060558,21.1096759 35.9443243,21.1200667 C35.9825927,21.1304574 36.0150725,21.1557022 36.0344828,21.1901419 C35.9457147,21.5710948 35.8250012,21.9439618 35.6736121,22.3048202 C34.9472444,22.3048202 34.2301297,22.2817897 33.513015,22.2817897 L32.8005269,22.2817897 C32.4535359,22.2817897 32.1805697,22.2817897 31.7040355,22.3048202 C31.6542104,22.2463699 31.6542104,22.1606018 31.7040355,22.1021514 L31.9723751,22.0791209 C32.4350298,22.0376659 32.4720421,21.9179071 32.4720421,21.0749892 L32.4535359,18.1685348 Z" id="Path" fill="#231F20" fill-rule="nonzero"></path>
                    <path d="M40.6499793,20.4531874 C40.5934577,20.2815726 40.5604868,20.2544755 40.3155598,20.2544755 L39.0720847,20.2544755 C38.8648388,20.2544755 38.8177375,20.2770564 38.7612159,20.444155 L38.4691876,21.2706155 C38.3840151,21.4817439 38.3239732,21.7014168 38.2902025,21.9254613 C38.2902025,22.020301 38.3325937,22.0654628 38.5304193,22.0835275 L38.8036071,22.1061084 C38.8353694,22.130085 38.8539089,22.1667042 38.8539089,22.2054643 C38.8539089,22.2442244 38.8353694,22.2808436 38.8036071,22.3048202 C38.5916511,22.3048202 38.3325937,22.3048202 37.951073,22.2822393 C37.6778852,22.2822393 37.385857,22.2822393 37.1644807,22.3048202 C37.1137555,22.2475111 37.1137555,22.1634175 37.1644807,22.1061084 L37.4376684,22.0835275 C37.6623334,22.0612168 37.8495226,21.9086579 37.9086818,21.6996524 C38.0546959,21.3383582 38.2854924,20.8235139 38.6293321,19.9428593 L39.4488953,17.8112234 C39.5457149,17.6394132 39.5944015,17.4464619 39.5901993,17.2512174 C39.7598557,17.1931959 39.9086064,17.0897533 40.0188214,16.9531496 C40.0720221,16.9477671 40.1223217,16.9774461 40.1412849,17.0254085 C40.249618,17.3731542 40.3815017,17.7344484 40.5039652,18.0821941 L41.629687,21.2435185 C41.8699038,21.9209451 41.9735267,22.0383657 42.3267867,22.0790113 L42.548163,22.1015922 C42.5988882,22.1589013 42.5988882,22.2429949 42.548163,22.300304 C42.2137435,22.300304 41.9217153,22.2777231 41.5543249,22.2777231 C41.1869345,22.2777231 40.8478049,22.2777231 40.6122982,22.300304 C40.5820835,22.275423 40.5646997,22.2391366 40.5646997,22.2009481 C40.5646997,22.1627596 40.5820835,22.1264733 40.6122982,22.1015922 L40.852515,22.0790113 C41.0267899,22.0790113 41.1398331,22.0157848 41.1398331,21.9390098 C41.1235104,21.7949869 41.0870732,21.6537209 41.0315001,21.5190053 L40.6499793,20.4531874 Z M39.0249833,19.7531798 C38.9590415,19.9338269 38.9684617,19.9428593 39.1992583,19.9428593 L40.2072268,19.9428593 C40.4474436,19.9428593 40.461574,19.911246 40.3862118,19.6989857 L39.9434593,18.4163912 C39.8894929,18.247839 39.8266097,18.0820311 39.755054,17.9196117 L39.755054,17.9196117 C39.6812938,18.0668915 39.6152693,18.2176194 39.5572284,18.3712294 L39.0249833,19.7531798 Z" id="Shape" fill="#231F20" fill-rule="nonzero"></path>
                    <path d="M44.4871404,18.1737898 C44.4871404,17.3272292 44.4871404,17.1977008 43.9399995,17.1560667 L43.7269535,17.1560667 C43.6785339,17.1236846 43.6930598,16.9802782 43.7269535,16.9525221 C44.2111489,16.9525221 44.4871404,16.9756522 44.8260772,16.9756522 C45.165014,16.9756522 45.4410054,16.9756522 45.8622555,16.9525221 C45.910675,16.9756522 45.9300428,17.1236846 45.8622555,17.1560667 L45.6588934,17.1560667 C45.1746979,17.1977008 45.1456462,17.3272292 45.1456462,18.1737898 L45.1456462,20.9817802 C45.1456462,21.4906418 45.169856,21.6988124 45.3247985,21.8514708 C45.4797411,22.0041293 45.5765801,22.0365114 46.2447699,22.0365114 C46.9129596,22.0365114 47.1405315,22.0041293 47.2761062,21.9301131 C47.5374925,21.7192765 47.7306324,21.4416848 47.832931,21.1298127 C47.8813506,21.0881786 48.045977,21.1298127 48.045977,21.1760728 C47.9642961,21.5618007 47.8459858,21.9396128 47.6925143,22.3048202 C47.2615804,22.3048202 46.4578159,22.2816901 45.591106,22.2816901 L44.8163933,22.2816901 C44.4629306,22.2816901 44.1917811,22.2816901 43.7172696,22.3048202 C43.6651247,22.2461173 43.6651247,22.1599785 43.7172696,22.1012756 L43.9690512,22.0781455 C44.4532467,22.0318854 44.4532467,21.916235 44.4532467,21.0696745 L44.4871404,18.1737898 Z" id="Path" fill="#231F20" fill-rule="nonzero"></path>
                    <path d="M50.5106732,21.1278718 C50.5106732,21.9345443 50.5106732,22.0491535 50.9006568,22.0888259 L51.1190476,22.1108662 C51.158046,22.1417225 51.1463465,22.2783719 51.1190476,22.3048202 C50.729064,22.3048202 50.4989737,22.28278 50.2298851,22.28278 C49.9607964,22.28278 49.7190066,22.28278 49.2861248,22.3048202 C49.2622438,22.2797951 49.2486711,22.2446519 49.2486711,22.2078432 C49.2486711,22.1710345 49.2622438,22.1358913 49.2861248,22.1108662 L49.5318144,22.0888259 C49.921798,22.0491535 49.9529967,21.9345443 49.9529967,21.1278718 L49.9529967,17.6895956 C49.9529967,17.4515611 49.9529967,17.442745 49.7502053,17.442745 L49.3602217,17.442745 C49.0709371,17.407228 48.7790776,17.4750565 48.5256568,17.636699 C48.3899117,17.7845046 48.2858644,17.9654375 48.2214696,18.1656646 C48.1597938,18.2031943 48.082931,18.1800265 48.045977,18.112768 C48.1561963,17.7382806 48.2422187,17.3552433 48.3033662,16.9666759 C48.3446398,16.9478042 48.3907871,16.9478042 48.4320608,16.9666759 C48.4710591,17.2135265 48.6972496,17.2047105 49.0092365,17.2047105 L51.7625205,17.2047105 C52.1291051,17.2047105 52.1915025,17.2047105 52.2928982,16.9887162 C52.3279967,16.9887162 52.4020936,16.9887162 52.4137931,17.0107564 C52.3367714,17.3937836 52.3027051,17.7862451 52.3123974,18.1788887 C52.2850985,18.2406014 52.1681034,18.2406014 52.1369048,18.1788887 C52.1322582,17.9767231 52.0723125,17.78115 51.965312,17.6190668 C51.7284174,17.467457 51.4566595,17.3998791 51.1853448,17.4251128 L50.7017652,17.4251128 C50.4989737,17.4251128 50.5028736,17.4251128 50.5028736,17.6851875 L50.5106732,21.1278718 Z" id="Path" fill="#231F20" fill-rule="nonzero"></path>
                    <path d="M54.5986972,19.6792479 C54.578577,18.9472829 54.864028,18.2396249 55.3874131,17.7239517 C55.9107982,17.2082785 56.6255405,16.9304807 57.3622837,16.9563818 C58.0839063,16.9168257 58.7886264,17.1827445 59.3017831,17.6882315 C59.8149399,18.1937185 60.0885013,18.8914598 60.0546668,19.6085241 C60.0654779,20.3226322 59.785871,21.0108905 59.2791158,21.5175595 C58.7723605,22.0242284 58.0812913,22.3064809 57.3622837,22.3004486 C56.638977,22.3421826 55.9307082,22.0836656 55.406714,21.5866687 C54.8827199,21.0896718 54.5900721,20.3988416 54.5986972,19.6792479 Z M59.2803285,19.8427967 C59.2803285,18.5697684 58.7151506,17.1906544 57.2332274,17.1906544 C56.4277376,17.1906544 55.3774857,17.7387638 55.3774857,19.4272944 C55.3774857,20.5677156 55.9382134,22.0484951 57.4646388,22.0484951 C58.3947348,22.0573355 59.2803285,21.3633583 59.2803285,19.8427967 L59.2803285,19.8427967 Z" id="Shape" fill="#231F20" fill-rule="nonzero"></path>
                    <path d="M61.7719593,18.1641925 C61.7719593,17.4089464 61.7524323,17.2542575 61.4712432,17.2542575 L61.2525406,17.2224097 C61.2274881,17.1973441 61.2130744,17.1607886 61.2130744,17.1223169 C61.2130744,17.0838451 61.2274881,17.0472896 61.2525406,17.022224 C61.643081,16.981277 62.1039186,16.9585286 62.7717426,16.9585286 C63.1614349,16.9287598 63.5514896,17.0099588 63.9082151,17.1951117 C64.2689973,17.401898 64.4910566,17.8372146 64.4744986,18.3052324 C64.4511201,18.9083983 64.1134327,19.433527 63.6231206,19.6291878 C63.587972,19.6792343 63.6231206,19.7565787 63.6582693,19.8202742 C64.0173186,20.6021671 64.4784465,21.3143405 65.0251605,21.9313234 C65.157149,22.0616158 65.3212602,22.1396828 65.493809,22.1542575 C65.50856,22.1671459 65.5172414,22.187373 65.5172414,22.2088536 C65.5172414,22.2303343 65.50856,22.2505613 65.493809,22.2634497 C65.3957526,22.293694 65.2944932,22.3074821 65.1930929,22.3043968 C64.6150931,22.3043968 64.2675122,22.1042111 63.7832422,21.3034683 C63.607499,21.0122891 63.32631,20.4617784 63.1154182,20.1069037 C63.0119734,19.9171771 62.8217251,19.8170846 62.6311481,19.8521219 C62.3265266,19.8521219 62.310905,19.8521219 62.310905,20.0250096 L62.310905,21.0259381 C62.310905,21.8585286 62.310905,21.9358731 62.7014454,22.0177673 L62.8459453,22.0405156 C62.8880041,22.0982498 62.8880041,22.1829671 62.8459453,22.2407013 C62.5374184,22.2407013 62.3069996,22.217953 62.0336214,22.217953 C61.7602431,22.217953 61.5024865,22.217953 61.1822434,22.2407013 C61.1384859,22.1837083 61.1384859,22.0975086 61.1822434,22.0405156 L61.3540811,22.0177673 C61.7446215,21.9631712 61.7446215,21.8585286 61.7446215,21.0259381 L61.7719593,18.1641925 Z M62.330432,19.3016112 C62.3213173,19.388695 62.3279693,19.4770375 62.3499591,19.5609427 C62.3694861,19.5836911 62.4710266,19.6018898 62.8186075,19.6018898 C63.0658065,19.6244933 63.312594,19.5526183 63.5215801,19.3971544 C63.7668742,19.1547749 63.8939591,18.7872027 63.8613503,18.4144246 C63.8759971,18.0767961 63.7644921,17.7483067 63.555589,17.5136638 C63.3466858,17.2790209 63.0608328,17.1611922 62.7717426,17.190562 C62.3499591,17.190562 62.330432,17.2224097 62.330432,17.4453438 L62.330432,19.3016112 Z" id="Shape" fill="#231F20" fill-rule="nonzero"></path>
                    <path d="M67.0361367,22.3037965 C66.5852425,22.3160531 66.1387561,22.2180697 65.7410285,22.0195794 C65.6063778,21.6714625 65.5308715,21.3058609 65.5172414,20.9360019 C65.5600942,20.8827112 65.6838913,20.8649476 65.7172213,20.9137974 C65.844044,21.5635265 66.438071,22.0436923 67.1456496,22.0684293 C67.4127009,22.0909393 67.6775523,22.0073987 67.8751373,21.8383311 C68.0727223,21.6692634 68.1847291,21.4303376 68.1836407,21.1802509 C68.2031323,20.7260129 67.9371926,20.3027891 67.5027566,20.0966734 L66.7123597,19.6170571 C66.1920026,19.342353 65.8553667,18.8413309 65.8172113,18.2847896 C65.8172113,17.5476016 66.4314354,16.9525221 67.5122795,16.9525221 C67.7728861,16.9572699 68.0319057,16.9915687 68.2836307,17.0546626 C68.3777361,17.0827347 68.4753867,17.0991584 68.5740778,17.1035124 C68.6708928,17.4107392 68.7205873,17.7292023 68.721682,18.0494223 C68.688352,18.0938313 68.5550321,18.1204766 68.5121792,18.0716268 C68.4408875,17.5469229 67.9502749,17.1607753 67.3837209,17.1834485 C67.1273284,17.1553631 66.8707822,17.2347609 66.6832533,17.4002344 C66.4957244,17.5657078 66.3965207,17.8002199 66.4123897,18.0405406 C66.4607542,18.4477765 66.7256137,18.8049676 67.117081,18.9908914 L67.7789194,19.3772489 C68.3818616,19.6665223 68.7698568,20.2373684 68.7931034,20.8693885 C68.7931034,21.7220397 68.1169808,22.3037965 67.0361367,22.3037965 Z" id="Path" fill="#231F20" fill-rule="nonzero"></path>
                    <path d="M71.7583241,18.7869035 C71.4414249,19.0891955 70.9674737,19.1770496 70.5574969,19.0094953 C70.1475202,18.841941 69.8822665,18.4519795 69.8854367,18.0214689 C69.8772498,17.7261455 70.001956,17.4419197 70.2272386,17.2424468 C70.4312894,17.0537823 70.7035024,16.9497559 70.985758,16.9525781 C71.4252586,16.9609764 71.8178137,17.2205694 71.9854416,17.6136593 C72.1530694,18.0067492 72.063885,18.4585654 71.7583241,18.7642575 L71.7583241,18.7869035 Z M70.3536585,17.4054979 C70.1166949,17.665167 70.0535527,18.0328152 70.1909883,18.3526517 C70.328424,18.6724883 70.642375,18.8885155 70.9998047,18.9091918 C71.2413903,18.9129373 71.4737268,18.8194309 71.6412686,18.6510275 C71.810253,18.4829832 71.9014961,18.2557926 71.8941084,18.0214689 C71.8955778,17.7895553 71.7991912,17.567096 71.627222,17.4054979 C71.4585174,17.2349526 71.2250952,17.1384982 70.9810758,17.1384982 C70.7370564,17.1384982 70.5036342,17.2349526 70.3349297,17.4054979 L70.3536585,17.4054979 Z M70.5175362,18.6147939 L70.5175362,17.4326731 L71.1074957,17.4326731 C71.1905112,17.435684 71.271913,17.4557554 71.3462889,17.4915527 C71.4528988,17.5461867 71.5168915,17.6558405 71.5101665,17.772363 C71.5192472,17.8536513 71.4879839,17.9342956 71.4258866,17.9897645 C71.3651856,18.0359173 71.2920475,18.0642165 71.2151867,18.0712901 C71.2775977,18.0806393 71.3369066,18.1038977 71.3884288,18.1392281 C71.4656765,18.2070272 71.5055491,18.3059666 71.4961199,18.4064508 L71.4961199,18.5106224 C71.4949558,18.522674 71.4949558,18.5348043 71.4961199,18.546856 C71.4946882,18.5588941 71.4946882,18.5710514 71.4961199,18.5830895 L71.4961199,18.6147939 L71.1917756,18.6147939 C71.1864407,18.5605661 71.1864407,18.5059707 71.1917756,18.4517428 C71.1979942,18.4036186 71.1979942,18.3549326 71.1917756,18.3068084 C71.1766112,18.2668864 71.1440843,18.2354225 71.1028135,18.2207537 C71.067142,18.2152491 71.030794,18.2152491 70.9951225,18.2207537 L70.8593381,18.2207537 L70.8593381,18.6374399 L70.5175362,18.6147939 Z M71.1028135,17.6636622 C71.0422493,17.6455057 70.9788458,17.6378393 70.9155248,17.6410162 L70.835927,17.6410162 L70.835927,17.9852353 L70.9576647,17.9852353 C71.0188393,17.9876116 71.0792985,17.9718053 71.1309068,17.9399434 C71.1739267,17.9057406 71.1967075,17.8531925 71.1917756,17.7995382 C71.193603,17.7353138 71.1486767,17.6786293 71.0840846,17.6636622 L71.1028135,17.6636622 Z" id="Shape" fill="#231F20" fill-rule="nonzero"></path>
                </g>
            </g>
        </g>
    </g>
</svg>