<?xml version="1.0" encoding="UTF-8"?>
<svg width="112px" height="85px" viewBox="0 0 112 85" version="1.1" xmlns="http://www.w3.org/2000/svg" xmlns:xlink="http://www.w3.org/1999/xlink">
    <!-- Generator: Sketch 62 (91390) - https://sketch.com -->
    <title>Group 13</title>
    <desc>Created with Sketch.</desc>
    <g id="Page-1" stroke="none" stroke-width="1" fill="none" fill-rule="evenodd">
        <g id="HOME" transform="translate(-955.000000, -2269.000000)">
            <g id="Group-8" transform="translate(302.000000, 2260.000000)">
                <g id="Group-13" transform="translate(653.000000, 9.000000)">
                    <path d="M56,0 C71.4845681,2.84446901e-15 85.5116583,6.37618946 95.6620662,16.7110675 C105.747066,26.9793492 112,41.160639 112,56.8337181 C112,67.0869496 109.323935,76.7017407 104.649587,85.0002105 L7.35041323,85.0002105 C2.67606516,76.7017407 1.42108547e-14,67.0869496 1.42108547e-14,56.8337181 C1.42108547e-14,41.160639 6.2529335,26.9793492 16.3379338,16.7110675 C26.4883417,6.37618946 40.5154319,-2.84446901e-15 56,0 Z" id="Combined-Shape-Copy-3" fill="#05568B"></path>
                    <g id="Commercial-Copy-2" transform="translate(27.000000, 23.000000)" fill="#FFFFFF" fill-rule="nonzero">
                        <g id="Commercial">
                            <path d="M10.3333333,0 L10.3333333,2.48 L23.808,2.48 L23.808,0 L10.3333333,0 Z M6.77866667,2.81066667 L6.77866667,5.04266667 L27.3626667,5.04266667 L27.3626667,2.81066667 L6.77866667,2.81066667 Z M2.81066667,5.456 L2.81066667,60.6773333 L0,60.6773333 L0,62 L58.4453333,62 L58.4453333,60.6773333 L55.7173333,60.6773333 L55.7173333,17.2773333 L33.3146667,17.2773333 L33.3146667,60.5946667 L31.248,60.5946667 L31.248,5.456 L2.81066667,5.456 Z M5.78666667,10.912 L12.0693333,10.912 L12.0693333,17.1946667 L5.78666667,17.1946667 L5.78666667,10.912 Z M13.888,10.912 L20.1706667,10.912 L20.1706667,17.1946667 L13.888,17.1946667 L13.888,10.912 L13.888,10.912 Z M22.072,10.912 L28.3546667,10.912 L28.3546667,17.1946667 L22.072,17.1946667 L22.072,10.912 L22.072,10.912 Z M5.78666667,19.344 L12.0693333,19.344 L12.0693333,25.6266667 L5.78666667,25.6266667 L5.78666667,19.344 Z M13.888,19.344 L20.1706667,19.344 L20.1706667,25.6266667 L13.888,25.6266667 L13.888,19.344 L13.888,19.344 Z M22.072,19.344 L28.3546667,19.344 L28.3546667,25.6266667 L22.072,25.6266667 L22.072,19.344 L22.072,19.344 Z M35.6293333,21.576 L40.5893333,21.576 L40.5893333,26.536 L35.6293333,26.536 L35.6293333,21.576 Z M42.0773333,21.576 L47.0373333,21.576 L47.0373333,26.536 L42.0773333,26.536 L42.0773333,21.576 Z M48.4426667,21.576 L53.4026667,21.576 L53.4026667,26.536 L48.4426667,26.536 L48.4426667,21.576 L48.4426667,21.576 Z M5.78666667,27.776 L12.0693333,27.776 L12.0693333,34.0586667 L5.78666667,34.0586667 L5.78666667,27.776 Z M13.888,27.776 L20.1706667,27.776 L20.1706667,34.0586667 L13.888,34.0586667 L13.888,27.776 L13.888,27.776 Z M22.072,27.776 L28.3546667,27.776 L28.3546667,34.0586667 L22.072,34.0586667 L22.072,27.776 L22.072,27.776 Z M35.6293333,28.272 L40.5893333,28.272 L40.5893333,33.232 L35.6293333,33.232 L35.6293333,28.272 Z M42.0773333,28.272 L47.0373333,28.272 L47.0373333,33.232 L42.0773333,33.232 L42.0773333,28.272 Z M48.4426667,28.272 L53.4026667,28.272 L53.4026667,33.232 L48.4426667,33.232 L48.4426667,28.272 L48.4426667,28.272 Z M35.6293333,34.8853333 L40.5893333,34.8853333 L40.5893333,39.8453333 L35.6293333,39.8453333 L35.6293333,34.8853333 Z M42.0773333,34.8853333 L47.0373333,34.8853333 L47.0373333,39.8453333 L42.0773333,39.8453333 L42.0773333,34.8853333 Z M48.4426667,34.8853333 L53.4026667,34.8853333 L53.4026667,39.8453333 L48.4426667,39.8453333 L48.4426667,34.8853333 L48.4426667,34.8853333 Z M5.78666667,36.208 L12.0693333,36.208 L12.0693333,42.4906667 L5.78666667,42.4906667 L5.78666667,36.208 Z M13.888,36.208 L20.1706667,36.208 L20.1706667,42.4906667 L13.888,42.4906667 L13.888,36.208 L13.888,36.208 Z M22.072,36.208 L28.3546667,36.208 L28.3546667,42.4906667 L22.072,42.4906667 L22.072,36.208 L22.072,36.208 Z M35.6293333,41.4986667 L40.5893333,41.4986667 L40.5893333,46.4586667 L35.6293333,46.4586667 L35.6293333,41.4986667 Z M42.0773333,41.4986667 L47.0373333,41.4986667 L47.0373333,46.4586667 L42.0773333,46.4586667 L42.0773333,41.4986667 Z M48.4426667,41.4986667 L53.4026667,41.4986667 L53.4026667,46.4586667 L48.4426667,46.4586667 L48.4426667,41.4986667 L48.4426667,41.4986667 Z M43.3173333,57.7013333 L45.7146667,57.7013333 L45.7146667,61.1733333 L43.3173333,61.1733333 L43.3173333,57.7013333 Z M13.9706667,58.4453333 L20.1706667,58.4453333 L20.1706667,61.1733333 L13.9706667,61.1733333 L13.9706667,58.4453333 Z" id="Shape"></path>
                        </g>
                    </g>
                </g>
            </g>
        </g>
    </g>
</svg>