<?xml version="1.0" encoding="UTF-8"?>
<svg width="421px" height="168px" viewBox="0 0 421 168" version="1.1" xmlns="http://www.w3.org/2000/svg" xmlns:xlink="http://www.w3.org/1999/xlink">
    <!-- Generator: Sketch 63.1 (92452) - https://sketch.com -->
    <title>RealtorParty</title>
    <desc>Created with Sketch.</desc>
    <g id="Page-1" stroke="none" stroke-width="1" fill="none" fill-rule="evenodd">
        <g id="Missouri-REALTOR®-Party" transform="translate(-894.000000, -228.000000)">
            <g id="RealtorParty" transform="translate(894.000000, 228.000000)">
                <g>
                    <path d="M265.046957,99.5582609 L258.310957,77.426087 L276.761739,63.4747826 L253.625043,63.0365217 L246.010435,41.1965217 L238.395826,63.0365217 L215.25913,63.4747826 L233.709913,77.426087 L226.973913,99.5582609 L246.010435,86.3373913 L265.046957,99.5582609 L265.046957,99.5582609 Z M349.832696,86.2643478 C348.368348,88.1634783 346.245043,89.1130435 344.048522,89.1130435 C342.510957,89.1130435 340.973391,88.6017391 339.655478,87.6521739 L245.937217,16.2886957 L151.047478,87.6521739 L151.047478,87.6521739 C149.729565,88.6017391 148.192,89.1130435 146.727652,89.1130435 C144.53113,89.1130435 142.334609,88.0904348 140.943478,86.1913043 C138.527304,82.9773913 139.186261,78.4486957 142.407826,76.0382609 L241.617391,1.46086957 C242.935304,0.511304348 244.47287,0 246.010435,0 C247.548,0 249.158783,0.511304348 250.403478,1.46086957 L302.534261,41.1965217 L302.534261,25.1269565 C302.534261,21.84 305.170087,19.2104348 308.46487,19.2104348 L325.524522,19.2104348 C328.819304,19.2104348 331.45513,21.84 331.45513,25.1269565 L331.45513,63.1826087 L348.441565,76.1113043 C351.66313,78.5217391 352.24887,83.0504348 349.832696,86.2643478 L349.832696,86.2643478 Z" id="Shape" fill="#312D78" fill-rule="nonzero"></path>
                    <g id="Group" transform="translate(235.760000, 75.965217)" fill="#C02126" fill-rule="nonzero">
                        <path d="M28.628,6.13565217 L33.5335652,22.3513043 L33.8996522,23.52 C55.572,24.6156522 77.1711304,18.5530435 98.8434783,13.293913 L81.8570435,0.365217391 C64.1384348,4.60173913 46.3466087,7.96173913 28.628,6.13565217 Z" id="Path"></path>
                        <path d="M0,65.2278261 C0,70.9252174 0,76.6226087 0,82.2469565 C61.5758261,112.633043 123.151652,51.8608696 184.654261,82.2469565 L184.654261,65.2278261 C123.078435,34.8417391 61.5026087,95.613913 0,65.2278261 Z" id="Path"></path>
                    </g>
                    <path d="M254.942957,114.678261 C248.573043,113.290435 242.129913,111.537391 235.76,108.396522 C235.76,114.093913 235.76,119.353043 235.76,125.050435 C297.335826,155.436522 358.911652,94.6643478 420.414261,125.050435 C420.414261,119.353043 420.414261,113.728696 420.414261,108.031304 C365.281565,80.7130435 310.075652,126.657391 254.942957,114.678261 L254.942957,114.678261 Z" id="Path" fill="#C02126" fill-rule="nonzero"></path>
                    <path d="M346.904,69.3913043 L351.077391,72.6052174 C353.566783,74.5043478 355.177565,77.2069565 355.543652,80.3478261 C355.763304,81.8817391 355.61687,83.3426087 355.250783,84.8034783 C376.92313,80.8591304 398.595478,80.2747826 420.341043,90.9391304 C420.341043,85.2417391 420.341043,79.5443478 420.341043,73.92 C395.886435,61.7217391 371.431826,64.1321739 346.904,69.3913043 L346.904,69.3913043 Z" id="Path" fill="#C02126" fill-rule="nonzero"></path>
                    <path d="M11.0558261,107.885217 C11.0558261,108.469565 11.1290435,108.615652 11.4951304,108.761739 C12.5201739,109.126957 14.0577391,109.273043 15.3024348,109.273043 C17.3525217,109.273043 17.9382609,109.053913 18.890087,108.396522 C20.4276522,107.30087 21.892,104.963478 21.892,100.873043 C21.892,93.7147826 17.1328696,91.6695652 14.2041739,91.6695652 C12.9594783,91.6695652 12.0076522,91.7426087 11.5683478,91.8886957 C11.2022609,91.9617391 11.1290435,92.1808696 11.1290435,92.6191304 L11.1290435,107.885217 L11.0558261,107.885217 Z M5.12521739,103.94087 C5.12521739,96.2713043 5.12521739,94.8834783 5.052,93.2765217 C4.97878261,91.5965217 4.53947826,90.7930435 2.85547826,90.4278261 C2.41617391,90.3547826 1.61078261,90.2817391 0.878608696,90.2817391 C0.292869565,90.2817391 0,90.2086957 0,89.8434783 C0,89.4782609 0.366086957,89.4052174 1.09826087,89.4052174 C3.73408696,89.4052174 6.95565217,89.5513043 7.98069565,89.5513043 C9.66469565,89.5513043 13.5452174,89.4052174 15.0827826,89.4052174 C18.2311304,89.4052174 21.5991304,89.6973913 24.3813913,91.5965217 C25.7725217,92.546087 27.8226087,95.1026087 27.8226087,98.4626087 C27.8226087,102.187826 26.2850435,105.62087 21.1598261,109.711304 C25.626087,115.335652 29.1405217,119.791304 32.0692174,122.932174 C34.8514783,125.853913 36.9747826,126.21913 37.7069565,126.365217 C38.2926957,126.438261 38.732,126.511304 39.098087,126.511304 C39.5373913,126.511304 39.6838261,126.657391 39.6838261,126.876522 C39.6838261,127.314783 39.3177391,127.387826 38.732,127.387826 L33.9728696,127.387826 C31.1173913,127.387826 29.8726957,127.168696 28.5547826,126.438261 C26.3582609,125.269565 24.4546087,122.932174 21.6723478,119.06087 C19.6222609,116.285217 17.3525217,112.852174 16.6935652,112.121739 C16.473913,111.829565 16.1078261,111.756522 15.8149565,111.756522 L11.421913,111.683478 C11.2022609,111.683478 10.9826087,111.756522 10.9826087,112.121739 L10.9826087,112.852174 C10.9826087,117.526957 10.9826087,121.471304 11.2022609,123.589565 C11.3486957,125.050435 11.6415652,126.146087 13.1791304,126.365217 C13.9113043,126.438261 15.0095652,126.584348 15.6685217,126.584348 C16.1078261,126.584348 16.2542609,126.730435 16.2542609,126.949565 C16.2542609,127.314783 15.8881739,127.46087 15.2292174,127.46087 C12.3005217,127.46087 8.56643478,127.314783 7.83426087,127.314783 C6.88243478,127.314783 3.73408696,127.46087 1.684,127.46087 C1.02504348,127.46087 0.658956522,127.314783 0.658956522,126.949565 C0.658956522,126.730435 0.878608696,126.584348 1.46434783,126.584348 C2.19652174,126.584348 2.85547826,126.511304 3.29478261,126.365217 C4.31982609,126.146087 4.53947826,125.050435 4.75913043,123.589565 C5.12521739,121.398261 5.12521739,117.38087 5.12521739,112.77913 L5.12521739,103.94087 L5.12521739,103.94087 Z" id="Shape" fill="#312D78" fill-rule="nonzero"></path>
                    <path d="M42.1,107.373913 C42.1,100.873043 42.1,99.7043478 42.0267826,98.3165217 C41.9535652,96.8556522 41.5142609,96.4173913 40.1231304,95.9791304 C39.7570435,95.906087 39.0248696,95.8330435 38.365913,95.8330435 C37.9266087,95.8330435 37.6337391,95.6869565 37.6337391,95.3947826 C37.6337391,95.1026087 37.9998261,95.0295652 38.6587826,95.0295652 C41.0017391,95.0295652 43.784,95.1026087 45.0286957,95.1026087 C46.4198261,95.1026087 56.2309565,95.1756522 57.1095652,95.1026087 C57.9149565,95.0295652 58.6471304,94.8834783 58.94,94.8834783 C59.1596522,94.8104348 59.4525217,94.6643478 59.6721739,94.6643478 C59.8918261,94.6643478 59.9650435,94.8834783 59.9650435,95.1026087 C59.9650435,95.3947826 59.7453913,95.906087 59.5989565,97.8782609 C59.5257391,98.3165217 59.4525217,100.215652 59.3793043,100.653913 C59.306087,100.873043 59.2328696,101.384348 58.8667826,101.384348 C58.573913,101.384348 58.5006957,101.165217 58.5006957,100.8 C58.5006957,100.507826 58.4274783,99.7773913 58.2078261,99.266087 C57.8417391,98.5356522 57.4756522,97.8782609 55.2791304,97.7321739 C54.5469565,97.6591304 49.202087,97.5130435 48.3234783,97.5130435 C48.1038261,97.5130435 48.0306087,97.6591304 48.0306087,97.9513043 L48.0306087,108.469565 C48.0306087,108.688696 48.1038261,108.907826 48.3234783,108.907826 C49.3485217,108.907826 55.0594783,108.907826 56.0845217,108.834783 C57.1095652,108.761739 57.7685217,108.615652 58.2078261,108.177391 C58.573913,107.885217 58.7203478,107.593043 58.94,107.593043 C59.1596522,107.593043 59.306087,107.812174 59.306087,108.031304 C59.306087,108.250435 59.2328696,108.98087 58.94,111.172174 C58.8667826,112.048696 58.7203478,113.728696 58.7203478,114.02087 C58.7203478,114.386087 58.6471304,114.970435 58.2810435,114.970435 C57.9881739,114.970435 57.9149565,114.824348 57.9149565,114.605217 C57.8417391,114.166957 57.8417391,113.582609 57.7685217,113.071304 C57.5488696,112.194783 56.9631304,111.537391 55.2791304,111.391304 C54.4737391,111.318261 49.4217391,111.172174 48.3234783,111.172174 C48.1038261,111.172174 48.1038261,111.391304 48.1038261,111.610435 L48.1038261,115.043478 C48.1038261,116.504348 48.0306087,120.083478 48.1038261,121.398261 C48.1770435,124.32 49.5681739,124.977391 54.1076522,124.977391 C55.2791304,124.977391 57.1095652,124.904348 58.2810435,124.393043 C59.3793043,123.881739 59.8918261,123.005217 60.1846957,121.252174 C60.257913,120.813913 60.4043478,120.594783 60.6972174,120.594783 C61.0633043,120.594783 61.1365217,121.17913 61.1365217,121.617391 C61.1365217,122.566957 60.7704348,125.488696 60.5507826,126.365217 C60.257913,127.46087 59.8186087,127.46087 58.2078261,127.46087 C54.9130435,127.46087 52.204,127.387826 50.0806957,127.314783 C47.8841739,127.241739 46.2733913,127.241739 44.9554783,127.241739 C44.4429565,127.241739 43.4911304,127.314783 42.466087,127.314783 C41.4410435,127.387826 40.2695652,127.387826 39.3909565,127.387826 C38.8052174,127.387826 38.5123478,127.241739 38.5123478,126.949565 C38.5123478,126.730435 38.6587826,126.511304 39.2445217,126.511304 C39.9034783,126.511304 40.416,126.438261 40.782087,126.365217 C41.6606957,126.146087 41.9535652,125.342609 42.1,124.10087 C42.3196522,122.274783 42.3196522,118.914783 42.3196522,114.970435 L42.3196522,107.373913 L42.1,107.373913 Z" id="Path" fill="#312D78" fill-rule="nonzero"></path>
                    <path d="M82.516,114.166957 C82.7356522,114.166957 82.7356522,114.093913 82.7356522,113.947826 L78.5622609,103.210435 C78.4890435,103.064348 78.4890435,102.772174 78.3426087,102.772174 C78.1961739,102.772174 78.1229565,102.991304 78.1229565,103.210435 L73.8031304,113.874783 C73.729913,114.093913 73.8031304,114.166957 73.9495652,114.166957 L82.516,114.166957 L82.516,114.166957 Z M72.9977391,116.577391 C72.778087,116.577391 72.7048696,116.650435 72.6316522,116.869565 L70.2886957,122.64 C69.8493913,123.662609 69.6297391,124.758261 69.6297391,125.269565 C69.6297391,126 70.0690435,126.511304 71.3869565,126.511304 L72.045913,126.511304 C72.6316522,126.511304 72.7048696,126.730435 72.7048696,126.949565 C72.7048696,127.314783 72.4852174,127.387826 71.9726957,127.387826 C70.5083478,127.387826 68.4582609,127.241739 67.0671304,127.241739 C66.6278261,127.241739 64.2116522,127.387826 61.941913,127.387826 C61.3561739,127.387826 61.1365217,127.314783 61.1365217,126.949565 C61.1365217,126.657391 61.2829565,126.511304 61.6490435,126.511304 C62.0883478,126.511304 62.5276522,126.438261 62.9669565,126.438261 C64.9438261,126.146087 65.7492174,124.831304 66.6278261,122.64 L78.1961739,95.9791304 C78.7086957,94.8104348 79.0747826,94.2991304 79.514087,94.2991304 C80.1730435,94.2991304 80.3926957,94.6643478 80.832,95.6869565 C81.8570435,98.0243478 89.3252174,115.335652 92.1074783,121.836522 C93.7914783,125.707826 95.1093913,126.21913 95.9147826,126.438261 C96.5737391,126.511304 97.0862609,126.584348 97.5987826,126.584348 C98.038087,126.584348 98.1845217,126.730435 98.1845217,127.022609 C98.1845217,127.387826 97.9648696,127.46087 96.2808696,127.46087 C94.7433043,127.46087 91.5217391,127.46087 87.7876522,127.387826 C86.9822609,127.314783 86.4697391,127.314783 86.4697391,127.022609 C86.4697391,126.730435 86.5429565,126.584348 87.0554783,126.584348 C87.3483478,126.511304 87.6412174,126.146087 87.4947826,125.634783 L84.0535652,117.015652 C83.9803478,116.796522 83.833913,116.723478 83.6142609,116.723478 L72.9977391,116.723478 L72.9977391,116.577391 Z" id="Shape" fill="#312D78" fill-rule="nonzero"></path>
                    <path d="M108.874261,114.970435 C108.874261,120.448696 108.874261,123.151304 109.826087,123.954783 C110.558261,124.612174 112.315478,124.831304 115.683478,124.831304 C118.026435,124.831304 119.783652,124.758261 120.881913,123.589565 C121.467652,123.078261 121.906957,121.836522 121.980174,121.033043 C122.053391,120.594783 122.126609,120.375652 122.492696,120.375652 C122.785565,120.375652 122.858783,120.813913 122.858783,121.325217 C122.858783,121.836522 122.565913,124.977391 122.199826,126.21913 C121.906957,127.168696 121.687304,127.387826 119.344348,127.387826 C116.196,127.387826 113.633391,127.314783 111.363652,127.241739 C109.16713,127.168696 107.263478,127.168696 105.506261,127.168696 C104.993739,127.168696 104.041913,127.241739 103.01687,127.241739 C101.991826,127.314783 100.820348,127.314783 99.9417391,127.314783 C99.356,127.314783 99.0631304,127.168696 99.0631304,126.876522 C99.0631304,126.657391 99.2095652,126.438261 99.7953043,126.438261 C100.454261,126.438261 100.966783,126.365217 101.33287,126.292174 C102.211478,126.073043 102.504348,125.269565 102.650783,124.027826 C102.870435,122.201739 102.870435,118.841739 102.870435,114.897391 L102.870435,107.373913 C102.870435,100.873043 102.870435,99.7043478 102.797217,98.3165217 C102.724,96.8556522 102.284696,96.4173913 100.893565,95.9791304 C100.527478,95.906087 100.014957,95.8330435 99.4292174,95.8330435 C98.9166957,95.8330435 98.6970435,95.6869565 98.6970435,95.3947826 C98.6970435,95.1026087 98.989913,95.0295652 99.6488696,95.0295652 C101.698957,95.0295652 104.554435,95.1026087 105.725913,95.1026087 C106.750957,95.1026087 110.411826,95.0295652 112.095826,95.0295652 C112.754783,95.0295652 113.047652,95.1026087 113.047652,95.3947826 C113.047652,95.6869565 112.828,95.8330435 112.242261,95.8330435 C111.729739,95.8330435 111.070783,95.906087 110.558261,95.9791304 C109.386783,96.1982609 109.020696,96.7826087 108.874261,98.3165217 C108.801043,99.7043478 108.801043,100.873043 108.801043,107.373913 L108.801043,114.970435 L108.874261,114.970435 Z" id="Path" fill="#312D78" fill-rule="nonzero"></path>
                    <path d="M134.207478,97.6591304 L127.617913,97.8052174 C125.055304,97.8782609 123.957043,98.1704348 123.371304,99.12 C122.932,99.7043478 122.712348,100.288696 122.63913,100.58087 C122.565913,100.946087 122.419478,101.165217 122.126609,101.165217 C121.833739,101.165217 121.687304,100.946087 121.687304,100.434783 C121.687304,99.7043478 122.565913,95.613913 122.63913,95.2486957 C122.712348,94.6643478 122.858783,94.4452174 123.151652,94.4452174 C123.517739,94.4452174 123.957043,94.8104348 125.055304,94.9565217 C126.373217,95.1026087 128.057217,95.1756522 129.521565,95.1756522 L147.533043,95.1756522 C148.924174,95.1756522 149.876,95.1026087 150.534957,94.9565217 C151.26713,94.8834783 151.56,94.7373913 151.779652,94.7373913 C152.072522,94.7373913 152.145739,94.9565217 152.145739,95.613913 C152.145739,96.4904348 152.072522,99.7043478 152.072522,100.8 C151.999304,101.238261 151.926087,101.530435 151.706435,101.530435 C151.340348,101.530435 151.26713,101.311304 151.193913,100.653913 L151.120696,100.215652 C151.047478,99.12 149.876,97.8052174 145.849043,97.7321739 L140.284522,97.6591304 L140.284522,114.970435 C140.284522,118.914783 140.357739,122.274783 140.504174,124.10087 C140.650609,125.269565 140.943478,126.073043 142.188174,126.292174 C142.773913,126.365217 143.798957,126.438261 144.457913,126.438261 C144.970435,126.438261 145.190087,126.657391 145.190087,126.876522 C145.190087,127.168696 144.824,127.314783 144.311478,127.314783 C141.382783,127.314783 138.38087,127.168696 137.136174,127.168696 C136.11113,127.168696 133.109217,127.314783 131.352,127.314783 C130.766261,127.314783 130.473391,127.168696 130.473391,126.876522 C130.473391,126.657391 130.619826,126.438261 131.205565,126.438261 C131.864522,126.438261 132.450261,126.365217 132.74313,126.292174 C133.621739,126.073043 133.914609,125.269565 134.061043,124.027826 C134.280696,122.201739 134.280696,118.841739 134.280696,114.897391 L134.280696,97.6591304 L134.207478,97.6591304 Z" id="Path" fill="#312D78" fill-rule="nonzero"></path>
                    <path d="M184.873913,111.975652 C184.873913,102.553043 179.162957,96.7095652 172.06087,96.7095652 C167.155304,96.7095652 161.297913,99.3391304 161.297913,109.857391 C161.297913,118.622609 166.349913,125.561739 174.696696,125.561739 C177.771826,125.561739 184.873913,124.10087 184.873913,111.975652 L184.873913,111.975652 Z M154.708348,111.172174 C154.708348,103.867826 159.833565,94.4452174 173.305565,94.4452174 C184.507826,94.4452174 191.463478,100.653913 191.463478,110.441739 C191.463478,120.229565 184.288174,127.89913 172.866261,127.89913 C159.98,127.89913 154.708348,118.768696 154.708348,111.172174 L154.708348,111.172174 Z" id="Shape" fill="#312D78" fill-rule="nonzero"></path>
                    <path d="M205.374783,110.733913 C205.374783,111.172174 205.448,111.318261 205.814087,111.464348 C206.765913,111.756522 208.083826,111.902609 209.182087,111.902609 C210.939304,111.902609 211.525043,111.756522 212.330435,111.172174 C213.721565,110.222609 215.185913,108.323478 215.185913,104.817391 C215.185913,98.7547826 211.085739,97.2208696 208.449913,97.2208696 C207.351652,97.2208696 206.253391,97.293913 205.814087,97.3669565 C205.521217,97.44 205.374783,97.586087 205.374783,97.9513043 L205.374783,110.733913 L205.374783,110.733913 Z M199.737043,107.373913 C199.737043,100.873043 199.737043,99.7043478 199.663826,98.3165217 C199.590609,96.8556522 199.151304,96.4173913 197.760174,95.9791304 C197.394087,95.906087 196.661913,95.8330435 196.002957,95.8330435 C195.563652,95.8330435 195.270783,95.6869565 195.270783,95.3947826 C195.270783,95.1026087 195.63687,95.0295652 196.295826,95.0295652 C198.638783,95.0295652 201.421043,95.1026087 202.37287,95.1026087 C203.910435,95.1026087 207.937391,95.0295652 209.255304,95.0295652 C212.037565,95.0295652 215.332348,95.2486957 217.675304,96.8556522 C218.92,97.7321739 220.823652,99.8504348 220.823652,102.69913 C220.823652,105.84 218.993217,108.688696 214.673391,112.121739 C218.62713,116.942609 221.702261,120.813913 224.411304,123.443478 C226.900696,125.926957 228.438261,126.073043 229.170435,126.292174 C229.609739,126.365217 229.902609,126.365217 230.268696,126.365217 C230.634783,126.365217 230.854435,126.584348 230.854435,126.803478 C230.854435,127.168696 230.561565,127.241739 229.975826,127.241739 L225.509565,127.241739 C223.020174,127.241739 221.848696,127.022609 220.677217,126.365217 C218.773565,125.415652 217.089565,123.370435 214.600174,120.083478 C212.842957,117.746087 210.939304,114.897391 210.426783,114.24 C210.20713,114.02087 209.914261,113.947826 209.621391,113.947826 L205.667652,113.874783 C205.448,113.874783 205.301565,113.947826 205.301565,114.24 L205.301565,114.824348 C205.301565,118.768696 205.374783,122.128696 205.521217,123.954783 C205.667652,125.196522 205.887304,126 207.205217,126.21913 C207.864174,126.292174 208.816,126.365217 209.401739,126.365217 C209.767826,126.365217 209.987478,126.584348 209.987478,126.803478 C209.987478,127.095652 209.621391,127.241739 209.10887,127.241739 C206.546261,127.241739 202.885391,127.095652 202.226435,127.095652 C201.347826,127.095652 198.565565,127.241739 196.808348,127.241739 C196.222609,127.241739 195.929739,127.095652 195.929739,126.803478 C195.929739,126.584348 196.076174,126.365217 196.661913,126.365217 C197.32087,126.365217 197.833391,126.292174 198.199478,126.21913 C199.078087,126 199.370957,125.196522 199.517391,123.954783 C199.737043,122.128696 199.737043,118.768696 199.737043,114.824348 L199.737043,107.373913 L199.737043,107.373913 Z" id="Shape" fill="#312D78" fill-rule="nonzero"></path>
                    <path d="M79.514087,144.48 C79.514087,136.810435 79.514087,135.422609 79.4408696,133.815652 C79.3676522,132.135652 78.9283478,131.332174 77.2443478,130.966957 C76.8050435,130.893913 75.9996522,130.82087 75.2674783,130.82087 C74.6817391,130.82087 74.3888696,130.747826 74.3888696,130.382609 C74.3888696,130.017391 74.7549565,129.944348 75.4871304,129.944348 C78.1229565,129.944348 81.3445217,130.090435 82.7356522,130.090435 C84.7857391,130.090435 87.7144348,129.944348 90.0573913,129.944348 C96.354087,129.944348 98.6238261,132.062609 99.4292174,132.793043 C100.527478,133.815652 101.918609,136.08 101.918609,138.782609 C101.918609,145.94087 96.6469565,150.907826 89.5448696,150.907826 C89.3252174,150.907826 88.7394783,150.907826 88.5198261,150.834783 C88.3001739,150.761739 87.934087,150.761739 87.934087,150.396522 C87.934087,149.958261 88.3001739,149.812174 89.3252174,149.812174 C92.1806957,149.812174 96.0612174,146.671304 96.0612174,141.558261 C96.0612174,139.878261 95.9147826,136.518261 93.0593043,134.034783 C91.2288696,132.354783 89.1787826,132.062609 88.0073043,132.062609 C87.2751304,132.062609 86.4697391,132.135652 86.0304348,132.281739 C85.8107826,132.354783 85.6643478,132.646957 85.6643478,133.231304 L85.6643478,153.318261 C85.6643478,157.92 85.6643478,161.937391 85.884,164.055652 C86.0304348,165.443478 86.3233043,166.53913 87.8608696,166.758261 C88.5930435,166.831304 89.6913043,166.977391 90.4234783,166.977391 C91.0092174,166.977391 91.2288696,167.123478 91.2288696,167.415652 C91.2288696,167.78087 90.7895652,167.926957 90.2770435,167.926957 C86.9822609,167.926957 83.7606957,167.78087 82.4427826,167.78087 C81.2713043,167.78087 78.1229565,167.926957 76.0728696,167.926957 C75.413913,167.926957 75.0478261,167.78087 75.0478261,167.415652 C75.0478261,167.196522 75.2674783,166.977391 75.8532174,166.977391 C76.5853913,166.977391 77.2443478,166.904348 77.6836522,166.758261 C78.7086957,166.53913 78.9283478,165.443478 79.148,163.982609 C79.3676522,161.864348 79.3676522,157.92 79.3676522,153.245217 L79.3676522,144.48 L79.514087,144.48 Z" id="Path" fill="#312D78" fill-rule="nonzero"></path>
                    <path d="M119.344348,154.706087 C119.564,154.706087 119.564,154.633043 119.564,154.486957 L115.390609,143.822609 C115.317391,143.676522 115.317391,143.384348 115.170957,143.384348 C115.024522,143.384348 114.951304,143.603478 114.951304,143.822609 L110.704696,154.486957 C110.631478,154.706087 110.704696,154.77913 110.85113,154.77913 L119.344348,154.77913 L119.344348,154.706087 Z M109.826087,157.116522 C109.606435,157.116522 109.533217,157.189565 109.46,157.408696 L107.117043,163.17913 C106.677739,164.201739 106.458087,165.297391 106.458087,165.808696 C106.458087,166.53913 106.897391,166.977391 108.215304,166.977391 L108.874261,166.977391 C109.46,166.977391 109.533217,167.196522 109.533217,167.415652 C109.533217,167.78087 109.313565,167.853913 108.801043,167.853913 C107.336696,167.853913 105.286609,167.707826 103.895478,167.707826 C103.456174,167.707826 101.04,167.853913 98.7702609,167.853913 C98.1845217,167.853913 97.9648696,167.78087 97.9648696,167.415652 C97.9648696,167.196522 98.1113043,166.977391 98.4773913,166.977391 C98.9166957,166.977391 99.356,166.904348 99.7953043,166.904348 C101.845391,166.612174 102.577565,165.297391 103.456174,163.106087 L115.024522,136.445217 C115.537043,135.203478 115.90313,134.765217 116.342435,134.765217 C117.001391,134.765217 117.221043,135.130435 117.660348,136.153043 C118.685391,138.490435 126.153565,155.801739 128.935826,162.302609 C130.619826,166.173913 131.937739,166.758261 132.74313,166.904348 C133.402087,166.977391 133.914609,167.050435 134.42713,167.050435 C134.793217,167.050435 135.01287,167.196522 135.01287,167.488696 C135.01287,167.853913 134.793217,167.926957 133.109217,167.926957 C131.571652,167.926957 128.350087,167.926957 124.616,167.853913 C123.810609,167.78087 123.298087,167.78087 123.298087,167.488696 C123.298087,167.269565 123.371304,167.050435 123.883826,167.050435 C124.176696,166.977391 124.469565,166.612174 124.32313,166.10087 L120.881913,157.481739 C120.808696,157.262609 120.662261,157.189565 120.442609,157.189565 L109.826087,157.189565 L109.826087,157.116522 Z" id="Shape" fill="#312D78" fill-rule="nonzero"></path>
                    <path d="M145.409739,151.273043 C145.409739,151.711304 145.482957,151.857391 145.849043,152.003478 C146.80087,152.295652 148.118783,152.441739 149.217043,152.441739 C150.974261,152.441739 151.56,152.295652 152.365391,151.711304 C153.756522,150.761739 155.22087,148.862609 155.22087,145.356522 C155.22087,139.293913 151.120696,137.76 148.48487,137.76 C147.386609,137.76 146.288348,137.833043 145.849043,137.906087 C145.556174,137.97913 145.409739,138.125217 145.409739,138.490435 L145.409739,151.273043 L145.409739,151.273043 Z M139.772,147.913043 C139.772,141.412174 139.772,140.243478 139.698783,138.855652 C139.625565,137.394783 139.186261,136.956522 137.79513,136.518261 C137.429043,136.445217 136.69687,136.372174 136.037913,136.372174 C135.598609,136.372174 135.305739,136.226087 135.305739,135.933913 C135.305739,135.641739 135.671826,135.495652 136.330783,135.495652 C138.673739,135.495652 141.456,135.568696 142.407826,135.568696 C143.945391,135.568696 147.972348,135.495652 149.290261,135.495652 C152.145739,135.495652 155.367304,135.787826 157.710261,137.321739 C158.954957,138.198261 160.858609,140.316522 160.858609,143.165217 C160.858609,146.306087 159.028174,149.154783 154.708348,152.587826 C158.662087,157.408696 161.737217,161.28 164.446261,163.982609 C166.935652,166.466087 168.473217,166.612174 169.205391,166.831304 C169.644696,166.904348 169.937565,166.904348 170.230435,166.904348 C170.596522,166.904348 170.816174,167.196522 170.816174,167.342609 C170.816174,167.707826 170.523304,167.78087 169.937565,167.78087 L165.690957,167.78087 C163.201565,167.78087 162.030087,167.561739 160.858609,166.904348 C158.954957,165.954783 157.270957,163.909565 154.781565,160.622609 C153.024348,158.285217 151.120696,155.436522 150.608174,154.77913 C150.388522,154.56 150.095652,154.486957 149.802783,154.486957 L145.849043,154.413913 C145.629391,154.413913 145.482957,154.486957 145.482957,154.77913 L145.482957,155.363478 C145.482957,159.307826 145.556174,162.667826 145.702609,164.493913 C145.849043,165.735652 146.068696,166.53913 147.386609,166.758261 C148.045565,166.831304 148.997391,166.904348 149.58313,166.904348 C149.949217,166.904348 150.16887,167.196522 150.16887,167.342609 C150.16887,167.634783 149.802783,167.78087 149.290261,167.78087 C146.727652,167.78087 143.066783,167.634783 142.407826,167.634783 C141.529217,167.634783 138.746957,167.78087 136.989739,167.78087 C136.404,167.78087 136.11113,167.634783 136.11113,167.342609 C136.11113,167.123478 136.257565,166.904348 136.843304,166.904348 C137.502261,166.904348 138.014783,166.831304 138.38087,166.758261 C139.259478,166.53913 139.552348,165.735652 139.698783,164.493913 C139.918435,162.667826 139.918435,159.307826 139.918435,155.363478 L139.918435,147.913043 L139.772,147.913043 Z" id="Shape" fill="#312D78" fill-rule="nonzero"></path>
                    <path d="M178.284348,138.198261 L171.694783,138.344348 C169.132174,138.417391 168.033913,138.709565 167.448174,139.65913 C167.00887,140.243478 166.789217,140.827826 166.716,141.12 C166.642783,141.485217 166.496348,141.704348 166.203478,141.704348 C165.910609,141.704348 165.764174,141.412174 165.764174,140.973913 C165.764174,140.243478 166.642783,136.153043 166.716,135.787826 C166.789217,135.203478 166.935652,134.984348 167.228522,134.984348 C167.594609,134.984348 168.033913,135.349565 169.132174,135.495652 C170.450087,135.641739 172.134087,135.714783 173.598435,135.714783 L191.609913,135.714783 C193.001043,135.714783 193.95287,135.641739 194.611826,135.495652 C195.344,135.422609 195.710087,135.276522 195.856522,135.276522 C196.149391,135.276522 196.222609,135.568696 196.222609,136.153043 C196.222609,137.029565 196.149391,140.243478 196.149391,141.33913 C196.076174,141.777391 196.002957,142.069565 195.783304,142.069565 C195.417217,142.069565 195.344,141.850435 195.270783,141.193043 L195.197565,140.754783 C195.124348,139.65913 193.95287,138.344348 189.99913,138.271304 L184.434609,138.198261 L184.434609,155.509565 C184.434609,159.453913 184.507826,162.813913 184.654261,164.64 C184.800696,165.881739 185.020348,166.612174 186.338261,166.831304 C186.924,166.904348 187.949043,166.977391 188.608,166.977391 C189.120522,166.977391 189.340174,167.269565 189.340174,167.415652 C189.340174,167.707826 188.974087,167.853913 188.461565,167.853913 C185.53287,167.853913 182.604174,167.707826 181.286261,167.707826 C180.261217,167.707826 177.259304,167.853913 175.502087,167.853913 C174.916348,167.853913 174.623478,167.707826 174.623478,167.415652 C174.623478,167.196522 174.769913,166.977391 175.355652,166.977391 C176.014609,166.977391 176.600348,166.904348 176.893217,166.831304 C177.771826,166.612174 178.064696,165.808696 178.21113,164.566957 C178.430783,162.74087 178.430783,159.38087 178.430783,155.436522 L178.430783,138.198261 L178.284348,138.198261 Z" id="Path" fill="#312D78" fill-rule="nonzero"></path>
                    <path d="M209.328522,156.824348 C209.328522,154.486957 208.889217,153.610435 208.303478,152.368696 C208.010609,151.711304 201.933565,142.288696 200.396,140.024348 C199.297739,138.490435 198.345913,137.467826 197.540522,137.029565 C196.954783,136.737391 196.222609,136.445217 195.710087,136.445217 C195.344,136.445217 195.05113,136.29913 195.05113,136.006957 C195.05113,135.714783 195.344,135.568696 195.929739,135.568696 C196.661913,135.568696 200.029913,135.641739 201.494261,135.641739 C202.446087,135.641739 204.496174,135.568696 206.546261,135.568696 C206.985565,135.568696 207.205217,135.641739 207.205217,136.006957 C207.205217,136.372174 206.912348,136.372174 206.180174,136.591304 C205.814087,136.664348 205.594435,136.883478 205.594435,137.248696 C205.594435,137.613913 205.814087,138.125217 206.180174,138.709565 C206.985565,140.024348 212.769739,150.031304 213.501913,151.2 C214.087652,150.177391 219.432522,141.046957 220.091478,139.732174 C220.530783,138.782609 220.750435,138.052174 220.750435,137.467826 C220.750435,137.029565 220.530783,136.664348 219.798609,136.518261 C219.359304,136.445217 218.993217,136.372174 218.993217,136.006957 C218.993217,135.714783 219.21287,135.568696 219.725391,135.568696 C221.189739,135.568696 222.727304,135.641739 224.045217,135.641739 C224.997043,135.641739 227.925739,135.568696 228.804348,135.568696 C229.31687,135.568696 229.609739,135.641739 229.609739,135.933913 C229.609739,136.226087 229.243652,136.445217 228.73113,136.445217 C228.291826,136.445217 227.486435,136.664348 226.827478,136.956522 C225.875652,137.394783 225.436348,137.833043 224.484522,138.928696 C223.020174,140.608696 216.650261,150.761739 215.84487,152.587826 C215.185913,154.121739 215.25913,155.436522 215.25913,156.824348 L215.25913,160.257391 C215.25913,160.987826 215.25913,162.74087 215.332348,164.493913 C215.405565,165.735652 215.84487,166.53913 217.162783,166.758261 C217.821739,166.831304 218.773565,166.904348 219.359304,166.904348 C219.871826,166.904348 220.091478,167.196522 220.091478,167.342609 C220.091478,167.634783 219.725391,167.78087 219.139652,167.78087 C216.357391,167.78087 213.428696,167.634783 212.184,167.634783 C211.085739,167.634783 208.083826,167.78087 206.473043,167.78087 C205.887304,167.78087 205.521217,167.707826 205.521217,167.342609 C205.521217,167.123478 205.74087,166.904348 206.253391,166.904348 C206.83913,166.904348 207.42487,166.831304 207.790957,166.758261 C208.669565,166.53913 209.035652,165.735652 209.182087,164.493913 C209.328522,162.667826 209.328522,160.914783 209.328522,160.257391 L209.328522,156.824348 L209.328522,156.824348 Z" id="Path" fill="#312D78" fill-rule="nonzero"></path>
                    <path d="M220.31113,91.3773913 L221.262957,91.3773913 C221.702261,91.3773913 222.068348,91.3043478 222.214783,91.1582609 C222.361217,91.0121739 222.434435,90.866087 222.434435,90.6469565 C222.434435,90.5008696 222.361217,90.3547826 222.288,90.2817391 C222.214783,90.1356522 222.068348,90.0626087 221.921913,89.9895652 C221.775478,89.9165217 221.482609,89.9165217 221.116522,89.9165217 L220.237913,89.9165217 L220.237913,91.3773913 L220.31113,91.3773913 Z M219.505739,94.1530435 L219.505739,89.2591304 L221.189739,89.2591304 C221.775478,89.2591304 222.214783,89.3321739 222.434435,89.4052174 C222.727304,89.4782609 222.873739,89.6243478 223.020174,89.9165217 C223.166609,90.1356522 223.239826,90.3547826 223.239826,90.6469565 C223.239826,91.0121739 223.093391,91.3043478 222.873739,91.5965217 C222.654087,91.8886957 222.288,92.0347826 221.848696,92.0347826 C221.99513,92.1078261 222.141565,92.1808696 222.288,92.3269565 C222.507652,92.546087 222.727304,92.8382609 223.020174,93.2765217 L223.605913,94.226087 L222.654087,94.226087 L222.214783,93.4226087 C221.848696,92.8382609 221.629043,92.4730435 221.409391,92.253913 C221.262957,92.1078261 221.043304,92.1078261 220.750435,92.1078261 L220.31113,92.1078261 L220.31113,94.1530435 L219.505739,94.1530435 L219.505739,94.1530435 Z M221.482609,87.8713043 C220.823652,87.8713043 220.237913,88.0173913 219.578957,88.3826087 C218.993217,88.7478261 218.480696,89.186087 218.187826,89.7704348 C217.821739,90.3547826 217.675304,91.0121739 217.675304,91.6695652 C217.675304,92.3269565 217.821739,92.9843478 218.187826,93.5686957 C218.553913,94.1530435 218.993217,94.6643478 219.578957,94.9565217 C220.164696,95.3217391 220.823652,95.4678261 221.482609,95.4678261 C222.141565,95.4678261 222.800522,95.3217391 223.386261,94.9565217 C223.972,94.5913043 224.484522,94.1530435 224.777391,93.5686957 C225.143478,92.9843478 225.289913,92.3269565 225.289913,91.6695652 C225.289913,91.0121739 225.143478,90.3547826 224.777391,89.7704348 C224.411304,89.186087 223.972,88.6747826 223.386261,88.3826087 C222.727304,88.0173913 222.141565,87.8713043 221.482609,87.8713043 L221.482609,87.8713043 Z M221.482609,87.0678261 C222.214783,87.0678261 223.020174,87.2869565 223.752348,87.6521739 C224.484522,88.0173913 225.070261,88.6017391 225.436348,89.3321739 C225.875652,90.0626087 226.022087,90.7930435 226.022087,91.5965217 C226.022087,92.4 225.802435,93.1304348 225.436348,93.8608696 C224.997043,94.5913043 224.484522,95.1756522 223.752348,95.5408696 C223.020174,95.906087 222.288,96.1252174 221.482609,96.1252174 C220.677217,96.1252174 219.945043,95.906087 219.21287,95.5408696 C218.480696,95.1026087 217.894957,94.5913043 217.52887,93.8608696 C217.162783,93.1304348 216.94313,92.4 216.94313,91.5965217 C216.94313,90.7930435 217.162783,90.0626087 217.52887,89.3321739 C217.894957,88.6017391 218.480696,88.0173913 219.21287,87.6521739 C220.018261,87.2869565 220.750435,87.0678261 221.482609,87.0678261 L221.482609,87.0678261 Z" id="Shape" fill="#312D78" fill-rule="nonzero"></path>
                </g>
            </g>
        </g>
    </g>
</svg>