<?xml version="1.0" encoding="UTF-8"?>
<svg width="113px" height="114px" viewBox="0 0 113 114" version="1.1" xmlns="http://www.w3.org/2000/svg" xmlns:xlink="http://www.w3.org/1999/xlink">
    <!-- Generator: Sketch 63.1 (92452) - https://sketch.com -->
    <title>Group 4</title>
    <desc>Created with Sketch.</desc>
    <g id="Page-1" stroke="none" stroke-width="1" fill="none" fill-rule="evenodd">
        <g id="ABOUT-GSBOR" transform="translate(-340.000000, -1485.000000)">
            <g id="Group-4" transform="translate(340.000000, 1485.000000)">
                <path d="M0,57 C0,41.5154319 6.33874954,27.4883417 16.6129429,17.3379338 C26.820931,7.2529335 40.9189506,1 56.5,1 C72.0810494,1 86.179069,7.2529335 96.3870571,17.3379338 C106.66125,27.4883417 113,41.5154319 113,57 C113,72.4845681 106.66125,86.5116583 96.3870571,96.6620662 C86.179069,106.747066 72.0810494,113 56.5,113 C40.9189506,113 26.820931,106.747066 16.6129429,96.6620662 C6.33874954,86.5116583 0,72.4845681 0,57 Z" id="Oval-Copy-14" fill="#F5F5F5" transform="translate(56.500000, 57.000000) rotate(-270.000000) translate(-56.500000, -57.000000) "></path>
                <g id="noun_conference-room_46945" transform="translate(21.456522, 33.000000)" fill="#05568B" fill-rule="nonzero">
                    <path d="M67.5348282,13.294652 C66.6815509,12.5025641 62.71354,12.3394872 60.0940328,12.3006593 L59.7615569,12.3006593 C59.6453065,12.3006593 59.5368062,12.2928938 59.4283059,12.3006593 C59.0098048,12.2928938 58.6447788,12.2928938 58.358803,12.2928938 C56.2430472,12.2928938 55.3672948,14.4594872 55.2045443,15.2904029 C55.0030438,16.385348 54.2125416,19.1576557 53.6932902,20.9747985 L53.4375395,20.6719414 L53.4375395,20.6564103 L53.1972888,20.3457875 C53.7087902,18.559707 54.3907921,16.1368498 54.5760176,15.1739194 C54.7620181,14.1954579 55.800521,11.6483516 58.358803,11.6483516 C58.7618041,11.6483516 59.1725552,11.6483516 59.5825314,11.6561172 C59.8615321,10.2971429 59.6298065,9.20996337 58.9168045,8.54989011 C58.3898031,8.06065934 56.1260219,7.79663004 52.174286,7.77333333 C51.9107853,7.76556777 51.6472846,7.76556777 51.3682838,7.76556777 C49.7252793,7.76556777 49.0510274,9.45069597 48.9270271,10.0952381 C48.7805517,10.8717949 48.2923004,12.432674 47.9047993,13.6130403 L47.6637736,13.3024176 L47.431273,13.007326 C47.780024,11.9046154 48.167525,10.6310623 48.2915254,9.97875458 C48.4465258,9.18666667 49.2912781,7.12102564 51.3682838,7.12102564 C51.6860347,7.12102564 52.0115356,7.12102564 52.3370365,7.12879121 C52.523037,6.01054945 52.2905363,5.11750916 51.6860347,4.55062271 C50.9420326,3.85948718 47.0197469,3.49450549 45.5867679,3.49450549 C44.145264,3.49450549 43.5097622,4.92336996 43.3857619,5.56014652 C43.2617615,6.18915751 42.9819858,7.22197802 42.7812602,7.95194139 C42.0845333,7.59472527 41.239006,7.30739927 40.2547533,7.08996337 L40.2547533,2.80336996 C40.2547533,1.25802198 37.6739962,0 34.4964875,0 C31.3112287,0 28.7304716,1.25802198 28.7304716,2.80336996 L28.7304716,7.0821978 C27.784969,7.29186813 26.9789668,7.563663 26.2969649,7.90534799 C26.0869394,7.17538462 25.8164636,6.17362637 25.6994383,5.56014652 C25.583963,4.92336996 24.9407112,3.49450549 23.5061823,3.49450549 C22.0724283,3.49450549 18.1431675,3.85948718 17.3991655,4.55062271 C16.7869138,5.11750916 16.5621632,6.01054945 16.7636638,7.12879121 C17.0899397,7.12102564 17.4069155,7.12102564 17.7246664,7.12102564 C19.8024471,7.12102564 20.6471994,9.18666667 20.7936748,9.97875458 C20.9176752,10.6155311 21.2904512,11.8424908 21.6306771,12.9141392 L21.3904265,13.2169963 L21.1509508,13.5198535 C20.7719748,12.3472527 20.3061985,10.8484982 20.1666981,10.0952381 C20.0426978,9.45069597 19.3606959,7.76556777 17.7254414,7.76556777 C17.4472156,7.76556777 17.1829399,7.76556777 16.9194392,7.77333333 C12.9599533,7.79663004 10.6969471,8.06065934 10.1691706,8.54989011 C9.45616869,9.20996337 9.22366805,10.2971429 9.50344382,11.6561172 C9.92194496,11.6483516 10.3319211,11.6483516 10.7356972,11.6483516 C13.2854542,11.6483516 14.3317071,14.1954579 14.5177076,15.1739194 C14.6951831,16.1213187 15.3547099,18.4742857 15.8662113,20.2526007 L15.6251856,20.5632234 L15.37796,20.8660806 C14.8501835,19.0489377 14.0829314,16.3620513 13.8814308,15.2904029 C13.7186804,14.4594872 12.850678,12.2928938 10.7349222,12.2928938 C10.4481714,12.2928938 10.0839204,12.2928938 9.65689424,12.3006593 C9.54839394,12.2928938 9.44066864,12.3006593 9.33139334,12.3006593 L8.99116741,12.3006593 C6.37166021,12.3394872 2.41139933,12.5025641 1.55889699,13.294652 C0.466143991,14.3041758 0.249143395,16.0747253 0.938120288,18.2646154 C1.84487278,21.1068132 4.24815438,34.316044 4.34812965,34.8751648 C4.35587968,34.8751648 5.08438168,36.4127473 9.41664358,37.1038828 L9.41664358,41.8408791 L5.29363225,40.1945788 C4.89838117,40.0392674 4.44887993,40.2334066 4.28612948,40.6294505 C4.17762919,40.909011 4.23962936,41.2196337 4.42562987,41.429304 C4.31015455,41.5768498 4.24040436,41.770989 4.24040436,41.9728938 C4.24040436,42.4776557 4.65038048,42.8814652 5.15490687,42.8814652 C5.59665808,42.8814652 5.96090908,42.5786081 6.05390934,42.167033 L8.39441577,43.1066667 L4.72168068,44.574359 C4.32565459,44.7296703 4.13190406,45.1878388 4.28690449,45.5838828 C4.31015455,45.6382418 4.33417962,45.6848352 4.37215472,45.7314286 C4.28690449,45.8712088 4.24040436,46.0342857 4.24040436,46.2051282 C4.24040436,46.7098901 4.65038048,47.1214652 5.15490687,47.1214652 C5.65943326,47.1214652 6.06940938,46.7098901 6.06940938,46.2051282 C6.06940938,46.0420513 6.02290925,45.8867399 5.95393407,45.7547253 L10.4876965,43.945348 L14.9284587,45.723663 C14.8889336,45.8168498 14.8742086,45.9178022 14.8742086,46.0187546 C14.8742086,46.5235165 15.2772097,46.9350916 15.7809611,46.9350916 C16.2847124,46.9350916 16.6954636,46.5235165 16.6954636,46.0187546 C16.6954636,45.8945055 16.6729885,45.7857875 16.6334634,45.6770696 C16.6567135,45.6460073 16.6644635,45.6149451 16.6807385,45.5838828 C16.843489,45.1878388 16.6497384,44.7296703 16.2459623,44.574359 L12.5716772,43.1066667 L15.0594341,42.112674 C15.2221845,42.3378755 15.4856852,42.4776557 15.7801861,42.4776557 C16.2839374,42.4776557 16.6946886,42.0660806 16.6946886,41.5613187 C16.6946886,41.4603663 16.6791885,41.3671795 16.6481884,41.2817582 C16.7489387,41.087619 16.7721888,40.8468864 16.6791885,40.6294505 C16.5241881,40.2334066 16.0669368,40.0392674 15.6716858,40.1945788 L11.5486744,41.8408791 L11.5486744,37.3446154 C11.7036749,37.352381 11.8586753,37.3601465 12.0214257,37.3756777 C12.2686514,37.4921612 12.5244021,37.6164103 12.7964279,37.7251282 C13.0599286,37.8416117 13.3304043,37.9580952 13.6179301,38.0668132 C15.4469351,38.789011 17.6556912,39.4257875 20.0659478,39.9460806 C21.1897009,40.6838095 22.1972037,41.7399267 22.1972037,43.1299634 C22.1972037,46.243956 22.1972037,50.3830037 22.1972037,50.3830037 C22.1972037,50.3830037 23.3674569,53 34.7909883,53 C46.2222697,53 47.3925229,50.3830037 47.3925229,50.3830037 C47.3925229,50.3830037 47.3925229,46.243956 47.3925229,43.1299634 C47.3925229,41.8331136 48.2682753,40.8313553 49.2912781,40.1013919 C49.2912781,40.1013919 49.2912781,40.1013919 49.2990281,40.1013919 C52.0890358,39.5655678 54.6387928,38.8744322 56.6305483,38.0435165 C56.6382983,38.0435165 56.6382983,38.0435165 56.6382983,38.0435165 L56.6468233,38.0435165 C56.6468233,38.0435165 56.6545733,38.0435165 56.6545733,38.0357509 C56.7553236,38.0357509 56.8560739,38.0279853 56.9568242,38.0202198 L56.9568242,41.8486447 L52.8260628,40.1945788 C52.4385617,40.0392674 51.9813105,40.2334066 51.81856,40.6294505 C51.7100597,40.909011 51.7720599,41.2196337 51.9580604,41.429304 C51.8425851,41.5768498 51.7728349,41.770989 51.7728349,41.9728938 C51.7728349,42.4776557 52.182811,42.8814652 52.6873374,42.8814652 C53.1290886,42.8814652 53.4933396,42.5786081 53.5863399,42.167033 L55.9268463,43.1066667 L52.2533362,44.574359 C51.8580852,44.7296703 51.6643346,45.1878388 51.819335,45.5838828 C51.8425851,45.6382418 51.8658352,45.6848352 51.9045853,45.7314286 C51.819335,45.8712088 51.7728349,46.0342857 51.7728349,46.2051282 C51.7728349,46.7098901 52.182811,47.1214652 52.6873374,47.1214652 C53.1903138,47.1214652 53.6018399,46.7098901 53.6018399,46.2051282 C53.6018399,46.0420513 53.5553398,45.8867399 53.4863646,45.7547253 L58.0201271,43.945348 L62.4608893,45.7158974 C62.4213642,45.8090842 62.4066391,45.9100366 62.4066391,46.0187546 C62.4066391,46.5235165 62.8096402,46.9350916 63.3133916,46.9350916 C63.817143,46.9350916 64.2278941,46.5235165 64.2278941,46.0187546 C64.2278941,45.8945055 64.2054191,45.7857875 64.165894,45.6770696 C64.189144,45.6460073 64.196894,45.6149451 64.2131691,45.5838828 C64.3759195,45.1878388 64.182169,44.7296703 63.7869179,44.574359 L60.1134078,43.1066667 L62.5934146,42.112674 C62.7561651,42.3378755 63.0196658,42.4776557 63.3141666,42.4776557 C63.817918,42.4776557 64.2286691,42.0660806 64.2286691,41.5613187 C64.2286691,41.4603663 64.2131691,41.3671795 64.182169,41.2817582 C64.2829193,41.087619 64.3061693,40.8468864 64.2131691,40.6294505 C64.0581687,40.2334066 63.6009174,40.0392674 63.2134163,40.1945788 L59.082655,41.8486447 L59.082655,37.189304 C63.9806685,36.5447619 64.7479206,34.836337 64.7634206,34.8130403 C64.8478958,34.316044 67.2511774,21.1068132 68.1501799,18.2646154 C68.8368318,16.0747253 68.6198312,14.3041758 67.5348282,13.294652 Z M59.3404977,31.1474632 C59.3320161,31.1852024 59.3243056,31.2153938 59.3096556,31.2380374 C58.3304183,33.630706 46.85715,36.5517241 34.8518551,36.5517241 C22.5689812,36.5517241 11.7364579,33.1023564 10.7101864,30.8681927 C10.6870548,30.8153577 10.6716337,30.7700706 10.6631522,30.7172357 C10.6477311,30.6719486 10.6477311,30.6266615 10.6631522,30.5738265 L10.6631522,30.498348 L10.6939943,30.5058959 C10.7171259,30.4304174 10.7718706,30.347391 10.864397,30.2417211 L15.4521622,24.5355461 L16.9094523,22.724062 L21.1965069,17.3952795 L22.7077707,15.5234126 L26.262325,11.1003722 C27.0179569,10.202178 29.130642,9.13793103 34.8595657,9.13793103 C39.4319098,9.13793103 42.3233585,9.80214188 43.4329037,11.0777286 L47.0799843,15.5988911 L47.0799843,15.6064389 L48.0592216,16.8291907 L48.0677032,16.8442864 L48.0754137,16.8518343 L52.8783027,22.822184 L53.973969,24.1807971 L53.9816795,24.188345 L53.98939,24.1958928 L58.8470238,30.2417211 L58.9318396,30.3322953 C59.3636293,30.7323314 59.3790504,30.9965062 59.3404977,31.1474632 Z" id="Shape"></path>
                </g>
            </g>
        </g>
    </g>
</svg>