<?xml version="1.0" encoding="UTF-8"?>
<svg width="113px" height="114px" viewBox="0 0 113 114" version="1.1" xmlns="http://www.w3.org/2000/svg" xmlns:xlink="http://www.w3.org/1999/xlink">
    <!-- Generator: Sketch 63.1 (92452) - https://sketch.com -->
    <title>Group 3</title>
    <desc>Created with Sketch.</desc>
    <g id="Page-1" stroke="none" stroke-width="1" fill="none" fill-rule="evenodd">
        <g id="ABOUT-GSBOR" transform="translate(-340.000000, -982.000000)">
            <g id="Group-3" transform="translate(340.000000, 982.000000)">
                <path d="M0,57 C0,41.5154319 6.33874954,27.4883417 16.6129429,17.3379338 C26.820931,7.2529335 40.9189506,1 56.5,1 C72.0810494,1 86.179069,7.2529335 96.3870571,17.3379338 C106.66125,27.4883417 113,41.5154319 113,57 C113,72.4845681 106.66125,86.5116583 96.3870571,96.6620662 C86.179069,106.747066 72.0810494,113 56.5,113 C40.9189506,113 26.820931,106.747066 16.6129429,96.6620662 C6.33874954,86.5116583 0,72.4845681 0,57 Z" id="Oval-Copy-10" fill="#F5F5F5" transform="translate(56.500000, 57.000000) rotate(-270.000000) translate(-56.500000, -57.000000) "></path>
                <g id="Committee" transform="translate(28.000000, 39.000000)" fill="#05568B" fill-rule="nonzero">
                    <path d="M34.3591828,9.42846673 C33.6563335,8.72800365 32.8363425,8.14428442 31.89921,7.79405288 C33.773475,6.27638287 34.1248997,3.59127439 32.7192009,1.72337284 C31.1963606,-0.144528709 28.5021046,-0.49476025 26.6278396,0.906165912 C24.7535746,2.30709207 24.2850083,5.1089444 25.8078487,6.97684595 C26.0421318,7.21033364 26.2764149,7.56056518 26.6278396,7.79405288 C24.4021499,8.72800365 22.6450264,10.712649 22.1764602,13.047526 L36.3505894,13.047526 C36.1163063,11.6465998 35.4134569,10.3624175 34.3591828,9.42846673 Z M56.8503631,15.9661222 L1.55954492,15.9661222 C0.739553974,15.9661222 0.153846154,16.6665852 0.153846154,17.3670483 C0.153846154,17.3670483 0.153846154,17.3670483 0.153846154,17.3670483 L0.153846154,20.2856445 C0.153846154,21.1028514 0.856695538,21.6865706 1.55954492,21.6865706 C1.55954492,21.6865706 1.55954492,21.6865706 1.55954492,21.6865706 L2.96524369,21.6865706 L2.96524369,40.48233 C3.08238525,41.2995369 3.66809307,42 4.48808402,42 C4.48808402,42 4.48808402,42 4.48808402,42 L53.921824,42 C54.741815,42 55.3275228,41.2995369 55.3275228,40.5990738 C55.3275228,40.5990738 55.3275228,40.5990738 55.3275228,40.5990738 L55.3275228,21.6865706 L56.7332216,21.6865706 C57.5532125,21.6865706 58.1389203,20.9861076 58.1389203,20.2856445 C58.1389203,20.2856445 58.1389203,20.2856445 58.1389203,20.2856445 L58.1389203,17.3670483 C58.2560619,16.5498414 57.6703541,15.9661222 56.8503631,15.9661222 C56.8503631,15.9661222 56.8503631,15.9661222 56.8503631,15.9661222 Z M51.8132759,9.42846673 C51.1104265,8.6112598 50.2904355,8.14428442 49.353303,7.79405288 C51.2275681,6.27638287 51.5789927,3.59127439 50.173294,1.72337284 C48.6504536,-0.144528709 45.9561977,-0.49476025 44.0819326,0.906165912 C42.0905261,2.30709207 41.7391014,5.1089444 43.2619417,6.97684595 C43.4962248,7.21033364 43.730508,7.56056518 44.0819326,7.79405288 C41.8562429,8.72800365 40.0991195,10.712649 39.6305532,13.047526 L53.8046825,13.047526 C53.5703993,11.6465998 52.8675499,10.3624175 51.8132759,9.42846673 Z M16.9050898,9.42846673 C16.2022404,8.6112598 15.3822495,8.14428442 14.445117,7.79405288 C16.319382,6.27638287 16.6708067,3.59127439 15.2651079,1.72337284 C13.8594091,-0.144528709 11.0480116,-0.611504097 9.05660502,0.906165912 C7.06519843,2.42383592 6.8309153,5.1089444 8.35375563,6.97684595 C8.58803876,7.21033364 8.82232189,7.56056518 9.17374658,7.79405288 C6.94805687,8.72800365 5.19093341,10.712649 4.72236715,13.047526 L18.8964964,13.047526 C18.6622133,11.6465998 17.9593639,10.3624175 16.9050898,9.42846673 Z" id="Shape"></path>
                </g>
            </g>
        </g>
    </g>
</svg>