<?xml version="1.0" encoding="UTF-8"?>
<svg width="113px" height="114px" viewBox="0 0 113 114" version="1.1" xmlns="http://www.w3.org/2000/svg" xmlns:xlink="http://www.w3.org/1999/xlink">
    <!-- Generator: Sketch 63.1 (92452) - https://sketch.com -->
    <title>Group 8</title>
    <desc>Created with Sketch.</desc>
    <g id="Page-1" stroke="none" stroke-width="1" fill="none" fill-rule="evenodd">
        <g id="ABOUT-GSBOR" transform="translate(-1003.000000, -1485.000000)">
            <g id="Group-8" transform="translate(1003.000000, 1485.000000)">
                <path d="M0,57 C0,41.5154319 6.33874954,27.4883417 16.6129429,17.3379338 C26.820931,7.2529335 40.9189506,1 56.5,1 C72.0810494,1 86.179069,7.2529335 96.3870571,17.3379338 C106.66125,27.4883417 113,41.5154319 113,57 C113,72.4845681 106.66125,86.5116583 96.3870571,96.6620662 C86.179069,106.747066 72.0810494,113 56.5,113 C40.9189506,113 26.820931,106.747066 16.6129429,96.6620662 C6.33874954,86.5116583 0,72.4845681 0,57 Z" id="Oval-Copy-17" fill="#F5F5F5" transform="translate(56.500000, 57.000000) rotate(-270.000000) translate(-56.500000, -57.000000) "></path>
                <g id="Governing-Docs" transform="translate(28.000000, 24.000000)" fill="#05568B">
                    <g>
                        <path d="M25.888654,15.6631579 C30.0324172,15.6631579 33.4855532,12.2022329 33.4855532,7.85135566 C33.4855532,3.50047847 30.1310782,0.039553429 25.888654,0.039553429 C21.7448908,0.039553429 18.2917548,3.50047847 18.2917548,7.85135566 C18.2917548,12.2022329 21.7448908,15.6631579 25.888654,15.6631579 Z" id="Path" fill-rule="nonzero"></path>
                        <path d="M34.0775194,43.0539075 L14.3453136,43.0539075 C13.7533474,43.0539075 13.1613813,42.8561404 12.7667371,42.3617225 C12.372093,42.7572568 11.8787879,42.9550239 11.2868217,43.0539075 L11.2868217,46.3170654 C11.2868217,46.7125997 11.5828048,47.0092504 11.9774489,47.0092504 L16.3185342,47.0092504 L16.3185342,61.1496013 C16.3185342,61.5451356 16.6145173,61.8417863 17.0091614,61.8417863 L25.0007047,61.8417863 L25.0007047,47.0092504 C25.0007047,46.6137161 25.2966878,46.3170654 25.6913319,46.3170654 C26.085976,46.3170654 26.3819591,46.6137161 26.3819591,47.0092504 L26.3819591,61.9406699 L34.3735025,61.9406699 C34.7681466,61.9406699 35.0641297,61.6440191 35.0641297,61.2484848 L35.0641297,47.108134 L37.4319944,47.108134 C36.248062,46.0204147 34.9654686,44.6360447 34.0775194,43.0539075 Z" id="Path" fill-rule="nonzero"></path>
                        <path d="M40.3918252,25.1559809 C40.0958421,21.200638 37.1360113,18.0363636 33.6828753,18.0363636 L18.0944327,18.0363636 C14.3453136,18.0363636 11.2868217,21.5961722 11.2868217,25.9470494 L11.2868217,30.5945774 L33.9788584,30.5945774 C35.5574348,28.0236045 37.7279774,26.1448166 40.3918252,25.1559809 Z" id="Path" fill-rule="nonzero"></path>
                        <path d="M44.9302326,25.7492823 C40.6878083,25.7492823 36.8400282,28.2213716 34.9654686,31.9789474 L5.16983791,31.9789474 C4.97251586,31.9789474 4.7751938,32.0778309 4.67653277,32.1767145 L0.335447498,36.3298246 C0.236786469,36.4287081 0.13812544,36.6264753 0.13812544,36.8242424 C0.13812544,37.0220096 0.236786469,37.2197767 0.335447498,37.3186603 L4.67653277,41.3728868 C5.07117689,41.6695375 5.56448203,41.5706539 5.76180409,41.2740032 L6.74841438,39.691866 L7.83368569,41.2740032 C8.12966878,41.6695375 8.62297393,41.6695375 9.01761804,41.3728868 L10.0042283,40.1862839 L10.6948555,41.2740032 C10.9908386,41.6695375 11.5828048,41.6695375 11.8787879,41.3728868 L12.9640592,40.1862839 L13.8520085,41.3728868 C13.9506695,41.5706539 14.2466526,41.6695375 14.4439746,41.6695375 L35.0641297,41.6695375 C36.9386892,45.5259968 40.6878083,47.8992026 44.9302326,47.8992026 L44.9302326,47.8992026 C50.9485553,47.8992026 55.8816068,42.9550239 55.8816068,36.8242424 C55.8816068,30.6934609 50.9485553,25.7492823 44.9302326,25.7492823 Z M46.8047921,39.7907496 C45.1275546,39.7907496 43.8449612,38.4063796 43.8449612,36.8242424 C43.8449612,35.2421053 45.1275546,33.8577352 46.8047921,33.8577352 C48.3833686,33.8577352 49.764623,35.1432217 49.764623,36.8242424 C49.764623,38.4063796 48.4820296,39.7907496 46.8047921,39.7907496 Z" id="Shape" fill-rule="nonzero"></path>
                    </g>
                </g>
            </g>
        </g>
    </g>
</svg>