<?xml version="1.0" encoding="UTF-8"?>
<svg width="221px" height="282px" viewBox="0 0 221 282" version="1.1" xmlns="http://www.w3.org/2000/svg" xmlns:xlink="http://www.w3.org/1999/xlink">
    <!-- Generator: Sketch 63.1 (92452) - https://sketch.com -->
    <title>noun_books_483366 2</title>
    <desc>Created with Sketch.</desc>
    <g id="Page-1" stroke="none" stroke-width="1" fill="none" fill-rule="evenodd">
        <g id="REALTOR-EDUCATION" transform="translate(-1219.000000, -195.000000)" fill="#F5F5F5" fill-rule="nonzero">
            <g id="noun_books_483366-2" transform="translate(1219.000000, 195.000000)">
                <g id="noun_books_483366" transform="translate(0.720542, 0.000000)">
                    <path d="M121.423924,200.398773 L271,112.165644 L271,93.1349693 L121.423924,181.368098 L98.9590766,168.392638 L98.9590766,168.392638 L16.7775446,120.239264 L16.7775446,98.0368098 L121.139559,159.165644 L270.715635,70.9325153 L149.29171,0 L6.26201891e-14,87.9447853 L6.26201891e-14,87.9447853 L6.26201891e-14,87.9447853 L6.26201891e-14,87.9447853 L6.26201891e-14,87.9447853 L6.26201891e-14,128.889571 L6.26201891e-14,128.889571 L6.26201891e-14,128.889571 L6.26201891e-14,128.889571 L6.26201891e-14,169.834356 L6.26201891e-14,169.834356 L6.26201891e-14,169.834356 L6.26201891e-14,169.834356 L6.26201891e-14,210.779141 L6.26201891e-14,210.779141 L90.7124869,263.834356 L90.7124869,263.834356 L121.70829,282 L271,194.055215 L271,175.02454 L121.423924,262.969325 L98.9590766,249.993865 L98.9590766,249.993865 L16.7775446,201.840491 L16.7775446,179.92638 L90.4281217,222.889571 L90.4281217,222.889571 L121.423924,241.055215 L270.715635,153.110429 L270.715635,134.079755 L121.423924,222.312883 L98.9590766,209.337423 L98.9590766,209.337423 L16.7775446,161.184049 L16.7775446,139.269939 L90.4281217,182.233129 L90.4281217,182.233129 L121.423924,200.398773 Z M139.856135,29.7421875 L220.325203,77.2105389 L204.686338,86.4726562 L123.932927,39.0043048 L139.856135,29.7421875 Z M111.213858,46.8164062 L191.682927,94.2847577 L175.759719,103.546875 L95.2906504,56.0785236 L111.213858,46.8164062 Z" id="Shape"></path>
                </g>
            </g>
        </g>
    </g>
</svg>