<?xml version="1.0" encoding="UTF-8"?>
<svg width="178px" height="214px" viewBox="0 0 178 214" version="1.1" xmlns="http://www.w3.org/2000/svg" xmlns:xlink="http://www.w3.org/1999/xlink">
    <!-- Generator: Sketch 63.1 (92452) - https://sketch.com -->
    <title>noun_event_2080360</title>
    <desc>Created with Sketch.</desc>
    <g id="Page-1" stroke="none" stroke-width="1" fill="none" fill-rule="evenodd">
        <g id="MARKET-STATISTICS" transform="translate(-1262.000000, -186.000000)" fill="#F5F5F5" fill-rule="nonzero">
            <g id="noun_event_2080360-2-copy" transform="translate(1262.000000, 186.000000)">
                <g id="noun_event_2080360" transform="translate(0.369718, 0.000000)">
                    <path d="M124.815593,109.597618 L98.6809202,135.703006 L88.5424695,125.575916 C84.2617903,121.300033 77.2775243,121.300033 72.9968451,125.575916 C68.7161659,129.851798 68.7161659,136.828238 72.9968451,141.10412 L90.7954585,158.882789 C93.0484476,161.133254 95.7520344,162.033439 98.6809202,162.033439 C101.609806,162.033439 104.313393,160.908207 106.566382,158.882789 L140.586516,124.900776 C144.867196,120.624894 144.867196,113.648454 140.586516,109.372572 C136.080538,105.321736 129.096272,105.321736 124.815593,109.597618 Z" id="Path"></path>
                    <path d="M184.069205,22.9547373 L172.128363,22.9547373 L172.128363,11.2523222 C172.128363,4.95102176 166.946488,1.53508911e-13 160.863418,1.53508911e-13 L142.614207,1.53508911e-13 C136.305837,1.53508911e-13 131.349261,5.17606821 131.349261,11.2523222 L131.349261,22.7296908 L79.7558122,22.7296908 L79.7558122,11.2523222 C79.7558122,4.95102176 74.5739374,1.53508911e-13 68.490867,1.53508911e-13 L50.2416557,1.53508911e-13 C43.9332864,1.53508911e-13 38.9767105,5.17606821 38.9767105,11.2523222 L38.9767105,22.7296908 L27.0358685,22.7296908 C11.9408419,22.9547373 9.9892728e-13,34.8821988 9.9892728e-13,49.7352641 L9.9892728e-13,187.013595 C9.9892728e-13,201.86666 12.1661408,213.794122 26.8105696,213.794122 L184.069205,213.794122 C198.938933,213.794122 210.879775,201.641614 210.879775,187.013595 L210.879775,49.7352641 C210.879775,34.8821988 198.938933,22.9547373 184.069205,22.9547373 Z M182.041515,179.136969 C182.041515,182.287619 179.563227,184.76313 176.409042,184.76313 L34.6960313,184.76313 C31.5418466,184.76313 29.0635587,182.287619 29.0635587,179.136969 L29.0635587,87.9931595 C29.0635587,84.8425093 31.5418466,82.3669984 34.6960313,82.3669984 L176.409042,82.3669984 C179.563227,82.3669984 182.041515,84.8425093 182.041515,87.9931595 L182.041515,179.136969 Z" id="Shape"></path>
                </g>
            </g>
        </g>
    </g>
</svg>