<?xml version="1.0" encoding="UTF-8"?>
<svg width="113px" height="112px" viewBox="0 0 113 112" version="1.1" xmlns="http://www.w3.org/2000/svg" xmlns:xlink="http://www.w3.org/1999/xlink">
    <!-- Generator: Sketch 63.1 (92452) - https://sketch.com -->
    <title>Group 4 Copy 2</title>
    <desc>Created with Sketch.</desc>
    <g id="Mobile" stroke="none" stroke-width="1" fill="none" fill-rule="evenodd">
        <g id="HOME-MOBILE" transform="translate(-24.000000, -2942.000000)">
            <g id="Group-11" transform="translate(24.000000, 2165.000000)">
                <g id="Group-4-Copy-2" transform="translate(0.000000, 777.000000)">
                    <path d="M0,56 C0,40.5154319 6.33874954,26.4883417 16.6129429,16.3379338 C26.820931,6.2529335 40.9189506,0 56.5,0 C72.0810494,0 86.179069,6.2529335 96.3870571,16.3379338 C106.66125,26.4883417 113,40.5154319 113,56 C113,71.4845681 106.66125,85.5116583 96.3870571,95.6620662 C86.179069,105.747066 72.0810494,112 56.5,112 C40.9189506,112 26.820931,105.747066 16.6129429,95.6620662 C6.33874954,85.5116583 0,71.4845681 0,56 Z" id="Oval-Copy-2" fill="#F5F5F5" transform="translate(56.500000, 56.000000) rotate(-360.000000) translate(-56.500000, -56.000000) "></path>
                    <g id="Group-22-Copy" transform="translate(56.500000, 56.000000) rotate(-360.000000) translate(-56.500000, -56.000000) translate(15.000000, 15.000000)">
                        <ellipse id="Oval" fill="#FFFFFF" cx="41.5" cy="41" rx="41.5" ry="41"></ellipse>
                        <text id="03" font-family="Lato-Black, Lato" font-size="32" font-weight="700" fill="#05568B">
                            <tspan x="23.94" y="58">03</tspan>
                        </text>
                        <text id="STEP-Copy-2" font-family="Lato-Black, Lato" font-size="12" font-weight="700" line-spacing="12" letter-spacing="0.75" fill="#48ABFD">
                            <tspan x="23" y="31">STEP</tspan>
                        </text>
                    </g>
                </g>
            </g>
        </g>
    </g>
</svg>