<?xml version="1.0" encoding="UTF-8"?>
<svg width="112px" height="86px" viewBox="0 0 112 86" version="1.1" xmlns="http://www.w3.org/2000/svg" xmlns:xlink="http://www.w3.org/1999/xlink">
    <!-- Generator: Sketch 62 (91390) - https://sketch.com -->
    <title>Group 5</title>
    <desc>Created with Sketch.</desc>
    <g id="Page-1" stroke="none" stroke-width="1" fill="none" fill-rule="evenodd">
        <g id="HOME" transform="translate(-302.000000, -2269.000000)">
            <g id="Group-8" transform="translate(302.000000, 2260.000000)">
                <g id="Group-5" transform="translate(0.000000, 9.000000)">
                    <path d="M56,0 C71.4845681,2.84446901e-15 85.5116583,6.37618946 95.6620662,16.7110675 C105.747066,26.9793492 112,41.160639 112,56.8337181 C112,67.0869496 109.323935,76.7017407 104.649587,85.0002105 L7.35041323,85.0002105 C2.67606516,76.7017407 1.42108547e-14,67.0869496 1.42108547e-14,56.8337181 C1.42108547e-14,41.160639 6.2529335,26.9793492 16.3379338,16.7110675 C26.4883417,6.37618946 40.5154319,-2.84446901e-15 56,0 Z" id="Combined-Shape" fill="#FFD100"></path>
                    <g id="Residential" transform="translate(23.000000, 28.000000)" fill="#FFFFFF" fill-rule="nonzero">
                        <g id="Shape">
                            <path d="M62.8886364,53.0670455 L62.8886364,33.0431818 L43.8545455,33.0431818 L43.8545455,16.9022727 L29.6170455,9.06022727 L29.1602273,8.83181818 L28.7034091,9.06022727 L14.4659091,16.5977273 L14.4659091,28.3227273 L0,35.175 L1.90340909,35.175 L1.90340909,53.0670455 L1.29431818,53.0670455 L1.29431818,57.1022727 L65.1727273,57.1022727 L65.1727273,53.0670455 L62.8886364,53.0670455 Z M5.48181818,53.0670455 L3.57840909,53.0670455 L3.57840909,45.3772727 L5.48181818,45.3772727 L5.48181818,53.0670455 Z M8.45113636,53.0670455 L7.08068182,53.0670455 L7.08068182,45.3772727 L8.45113636,45.3772727 L8.45113636,53.0670455 L8.45113636,53.0670455 Z M11.4204545,53.0670455 L10.05,53.0670455 L10.05,45.3772727 L11.4204545,45.3772727 L11.4204545,53.0670455 Z M14.4659091,53.0670455 L13.0193182,53.0670455 L13.0193182,45.3772727 L14.4659091,45.3772727 L14.4659091,53.0670455 Z M14.4659091,43.7784091 L3.57840909,43.7784091 L3.57840909,35.2511364 L14.4659091,35.2511364 L14.4659091,43.7784091 Z M24.7443182,17.0545455 L24.7443182,17.0545455 C24.9727273,15.075 26.4954545,13.4761364 28.3988636,13.1715909 L28.3988636,20.9375 L24.7443182,20.9375 L24.7443182,17.0545455 Z M24.7443182,22.4602273 L28.3988636,22.4602273 L28.3988636,24.5920455 L24.7443182,24.5920455 L24.7443182,22.4602273 Z M24.7443182,26.1147727 L28.3988636,26.1147727 L28.3988636,28.3988636 L24.7443182,28.3988636 L24.7443182,26.1147727 Z M24.2875,37.6875 L27.9420455,37.6875 L27.9420455,40.6568182 L24.2875,40.6568182 L24.2875,37.6875 L24.2875,37.6875 Z M24.2875,42.2556818 L27.9420455,42.2556818 L27.9420455,44.6920455 L24.2875,44.6920455 L24.2875,42.2556818 L24.2875,42.2556818 Z M24.2875,46.2147727 L27.9420455,46.2147727 L27.9420455,48.6511364 L24.2875,48.6511364 L24.2875,46.2147727 L24.2875,46.2147727 Z M24.2875,53.0670455 L24.2875,50.0977273 L27.9420455,50.0977273 L27.9420455,53.0670455 L24.2875,53.0670455 Z M33.2715909,53.0670455 L29.6170455,53.0670455 L29.6170455,50.0977273 L33.2715909,50.0977273 L33.2715909,53.0670455 Z M33.2715909,48.575 L29.6170455,48.575 L29.6170455,46.1386364 L33.2715909,46.1386364 L33.2715909,48.575 Z M33.2715909,44.6159091 L29.6170455,44.6159091 L29.6170455,42.1795455 L33.2715909,42.1795455 L33.2715909,44.6159091 Z M33.2715909,40.6568182 L29.6170455,40.6568182 L29.6170455,37.6875 L33.2715909,37.6875 L33.2715909,40.6568182 Z M33.6522727,28.475 L29.9977273,28.475 L29.9977273,26.1909091 L33.6522727,26.1909091 L33.6522727,28.475 Z M33.6522727,24.5159091 L29.9977273,24.5159091 L29.9977273,22.3840909 L33.6522727,22.3840909 L33.6522727,24.5159091 Z M33.6522727,20.8613636 L29.9977273,20.8613636 L29.9977273,13.0954545 C31.9011364,13.4 33.4238636,14.9988636 33.6522727,16.9784091 L33.6522727,16.9784091 L33.6522727,20.8613636 Z M49.8693182,47.2806818 L47.2045455,47.2806818 L47.2045455,37.6875 L49.8693182,37.6875 L49.8693182,47.2806818 Z M54.4375,47.2806818 L51.3920455,47.2806818 L51.3920455,37.6875 L54.4375,37.6875 L54.4375,47.2806818 Z M59.0818182,47.2806818 L56.1125,47.2806818 L56.1125,37.6875 L59.0818182,37.6875 L59.0818182,47.2806818 Z M29.0840909,7.5375 L48.8034091,18.425 L50.4022727,15.6079545 L29.2363636,3.88295455 L22.2318182,7.61363636 L22.2318182,0 L17.6636364,0 L17.6636364,9.97386364 L7.30909091,15.5318182 L8.75568182,18.425 L29.0840909,7.5375 Z M44.9965909,31.9011364 L66.6954545,31.9011364 L52.8386364,23.7545455 L44.9965909,23.7545455 L44.9965909,31.9011364 Z"></path>
                        </g>
                    </g>
                </g>
            </g>
        </g>
    </g>
</svg>