<?xml version="1.0" encoding="UTF-8"?>
<svg width="275px" height="265px" viewBox="0 0 275 265" version="1.1" xmlns="http://www.w3.org/2000/svg" xmlns:xlink="http://www.w3.org/1999/xlink">
    <!-- Generator: Sketch 62 (91390) - https://sketch.com -->
    <title>gsbor_logomark_large copy 3</title>
    <desc>Created with Sketch.</desc>
    <g id="Symbols" stroke="none" stroke-width="1" fill="none" fill-rule="evenodd">
        <g id="FOOTER-DARK-BLUE" transform="translate(-229.000000, -614.000000)" fill-rule="nonzero">
            <g id="Group-3" transform="translate(0.000000, 557.000000)">
                <g id="gsbor_logomark_large-copy-3" transform="translate(229.000000, 57.000000)">
                    <path d="M222.9,60.6 L222.9,0 L142,0 L142,64 C148.9,65.9 155.3,68.9 160.7,72.8 C171.6,80.7 177.8,92 177.8,103.9 L177.8,176.2 C194.9,172.5 214.7,169.3 232.6,169.3 C259.6,169.3 274.5,177.3 274.5,177.3 L274.5,60.6 L222.9,60.6 Z" id="Path" fill="#05568B"></path>
                    <path d="M97,196.3 L96.9,150.6 L49,123.5 L0,151.2 L0,184 C0,184 29.3,199.4 62.9,199.4 C74.3,199.4 86.2,198.1 97,196.3 Z" id="Path" fill="#FFD100"></path>
                    <path d="M107.1,194.5 C123.1,191.3 134.7,187.8 134.7,187.8 C134.7,187.8 147.8,183.3 166.3,178.8 L166.3,103.9 C166.3,87 147.4,73.2 124.1,73.2 C100.8,73.2 81.9,86.9 81.9,103.9 L81.9,130.6 L107.1,144.8 L107.1,194.5 Z" id="Path" fill="#05568B"></path>
                    <path d="M104.4,204.2 C91.9,206.6 77,208.6 62.9,208.6 C29.3,208.6 0,193.2 0,193.2 L0,265 L168.9,265 C154.3,221.6 112.5,206.7 104.4,204.2 Z" id="Path" fill="#01835E"></path>
                    <path d="M134.6,197 C134.6,197 125.7,199.7 112.7,202.5 C139.1,205.1 230.1,217.1 274.4,265 L274.4,265 L274.4,186.3 C274.4,186.3 259.5,178.3 232.5,178.3 C189.4,178.4 134.6,197 134.6,197 Z" id="Path" fill="#01835E"></path>
                </g>
            </g>
        </g>
    </g>
</svg>