<?xml version="1.0" encoding="UTF-8"?>
<svg width="112px" height="85px" viewBox="0 0 112 85" version="1.1" xmlns="http://www.w3.org/2000/svg" xmlns:xlink="http://www.w3.org/1999/xlink">
    <!-- Generator: Sketch 62 (91390) - https://sketch.com -->
    <title>Group 14</title>
    <desc>Created with Sketch.</desc>
    <g id="Page-1" stroke="none" stroke-width="1" fill="none" fill-rule="evenodd">
        <g id="HOME" transform="translate(-628.000000, -2269.000000)">
            <g id="Group-8" transform="translate(302.000000, 2260.000000)">
                <g id="Group-14" transform="translate(326.000000, 9.000000)">
                    <path d="M56,0 C71.4845681,2.84446901e-15 85.5116583,6.37618946 95.6620662,16.7110675 C105.747066,26.9793492 112,41.160639 112,56.8337181 C112,67.0869496 109.323935,76.7017407 104.649587,85.0002105 L7.35041323,85.0002105 C2.67606516,76.7017407 1.42108547e-14,67.0869496 1.42108547e-14,56.8337181 C1.42108547e-14,41.160639 6.2529335,26.9793492 16.3379338,16.7110675 C26.4883417,6.37618946 40.5154319,-2.84446901e-15 56,0 Z" id="Combined-Shape-Copy-2" fill="#01835E"></path>
                    <g id="Agricultural" transform="translate(21.000000, 31.000000)" fill="#FFFFFF" fill-rule="nonzero">
                        <g id="Shape">
                            <path d="M70.1684685,5.78117647 L64.9873874,7.17882353 L68.5693694,3.62117647 C68.7612613,3.43058824 68.7612613,3.11294118 68.5693694,2.85882353 L66.5225225,0.825882353 C66.2666667,0.571764706 65.8828829,0.635294118 65.690991,0.952941176 L63.0045045,5.52705882 L63.0045045,0.508235294 C63.0045045,0.190588235 62.7486486,0 62.4927928,0 L59.4864865,0 C59.1666667,0 58.9108108,0.317647059 58.9747748,0.635294118 L60.318018,5.71764706 L56.736036,2.16 C56.5441441,1.96941176 56.2243243,1.96941176 55.9684685,2.16 L53.9216216,4.19294118 C53.6657658,4.44705882 53.7297297,4.82823529 54.0495495,5.01882353 L58.654955,7.62352941 L53.5378378,7.62352941 C53.218018,7.62352941 53.0261261,7.87764706 53.0261261,8.13176471 L53.0261261,11.0541176 C53.0261261,11.3717647 53.3459459,11.6258824 53.6657658,11.5623529 L58.8468468,10.1647059 L55.2648649,13.7223529 C55.072973,13.9129412 55.072973,14.2305882 55.2648649,14.4847059 L57.3117117,16.5176471 C57.5675676,16.7717647 57.9513514,16.7082353 58.1432432,16.3905882 L60.8297297,11.8164706 L60.8297297,16.8352941 C60.8297297,17.1529412 61.0855856,17.3435294 61.3414414,17.3435294 L64.2837838,17.3435294 C64.6036036,17.3435294 64.8594595,17.0258824 64.7954955,16.7082353 L63.3882883,11.5623529 L66.9702703,15.12 C67.1621622,15.3105882 67.481982,15.3105882 67.7378378,15.12 L69.7846847,13.0870588 C70.0405405,12.8329412 69.9765766,12.4517647 69.6567568,12.2611765 L65.0513514,9.65647059 L70.1684685,9.65647059 C70.4882883,9.65647059 70.6801802,9.40235294 70.6801802,9.14823529 L70.6801802,6.28941176 C70.8081081,5.90823529 70.4882883,5.65411765 70.1684685,5.78117647 Z M61.9171171,11.3717647 C60.381982,11.3717647 59.2306306,10.1647059 59.2306306,8.70352941 C59.2306306,7.24235294 60.4459459,6.03529412 61.9171171,6.03529412 C63.3882883,6.03529412 64.6036036,7.24235294 64.6036036,8.70352941 C64.6036036,10.1647059 63.4522523,11.3717647 61.9171171,11.3717647 Z M68.3774775,20.3929412 C68.3774775,19.8211765 67.9297297,19.3764706 67.3540541,19.3764706 L56.4801802,19.3764706 C55.9045045,19.3764706 55.4567568,19.8211765 55.4567568,20.3929412 C55.4567568,20.9647059 55.9045045,21.4094118 56.4801802,21.4094118 L59.4864865,21.4094118 L55.4567568,52.92 C55.3927928,53.4917647 55.7765766,53.9364706 56.3522523,54 C56.4162162,54 56.4162162,54 56.4801802,54 C56.9918919,54 57.3756757,53.6188235 57.4396396,53.1105882 L58.654955,43.7717647 L65.2432432,43.7717647 L66.4585586,53.1105882 C66.5225225,53.6188235 66.9702703,54 67.418018,54 C67.481982,54 67.481982,54 67.5459459,54 C68.1216216,53.9364706 68.5054054,53.4282353 68.4414414,52.92 L64.4117117,21.4094118 L67.418018,21.4094118 C67.9297297,21.4094118 68.3774775,20.9647059 68.3774775,20.3929412 Z M58.9108108,41.8023529 L60.1261261,32.4635294 L63.836036,32.4635294 L65.0513514,41.8023529 L58.9108108,41.8023529 Z M63.5801802,30.5576471 L60.381982,30.5576471 L61.5972973,21.4729412 L62.4927928,21.4729412 L63.5801802,30.5576471 Z M10.0423423,14.8658824 L0,29.0329412 L3.70990991,29.0329412 C4.34954955,29.0329412 4.7972973,29.5411765 4.7972973,30.1129412 L4.7972973,54 L15.990991,54 L15.990991,38.3717647 C15.990991,37.7364706 16.5027027,37.2917647 17.0783784,37.2917647 L34.0288288,37.2917647 C34.6684685,37.2917647 35.1162162,37.8 35.1162162,38.3717647 L35.1162162,54 L46.3099099,54 L46.3099099,30.1129412 C46.3099099,29.5411765 46.8216216,29.0329412 47.3972973,29.0329412 L51.1711712,29.0329412 L41.1288288,14.8658824 L25.5855856,6.35294118 C25.5855856,6.35294118 10.0423423,14.8658824 10.0423423,14.8658824 Z M21.8756757,26.9364706 L29.2954955,26.9364706 L29.2954955,21.9811765 L21.8756757,21.9811765 L21.8756757,26.9364706 Z M18.2936937,52.4752941 L23.9864865,46.7576471 L18.2936937,41.04 C18.2936937,41.04 18.2936937,52.4752941 18.2936937,52.4752941 Z M31.3423423,54 L25.5855856,48.3458824 L19.8288288,54 C19.8288288,54 31.3423423,54 31.3423423,54 Z M32.9414414,41.04 L27.1846847,46.7576471 L32.9414414,52.4752941 C32.9414414,52.4752941 32.9414414,41.04 32.9414414,41.04 Z M31.3423423,39.4517647 L19.8288288,39.4517647 L25.5855856,45.1694118 C25.5855856,45.1694118 31.3423423,39.4517647 31.3423423,39.4517647 Z M20.7882883,29.16 C20.1486486,29.16 19.7009009,28.6517647 19.7009009,28.08 L19.7009009,20.8376471 C19.7009009,20.2023529 20.2126126,19.7576471 20.7882883,19.7576471 L30.4468468,19.7576471 C31.0864865,19.7576471 31.5981982,20.2658824 31.5981982,20.8376471 L31.5981982,28.0164706 C31.5981982,28.6517647 31.0864865,29.0964706 30.4468468,29.0964706 L20.7882883,29.0964706 L20.7882883,29.16 Z"></path>
                        </g>
                    </g>
                </g>
            </g>
        </g>
    </g>
</svg>