<?xml version="1.0" encoding="UTF-8"?>
<svg width="255px" height="280px" viewBox="0 0 255 280" version="1.1" xmlns="http://www.w3.org/2000/svg" xmlns:xlink="http://www.w3.org/1999/xlink">
    <!-- Generator: Sketch 63.1 (92452) - https://sketch.com -->
    <title>Combined Shape</title>
    <desc>Created with Sketch.</desc>
    <g id="Page-1" stroke="none" stroke-width="1" fill="none" fill-rule="evenodd">
        <g id="NEW-MEMBERS" transform="translate(-1185.000000, -214.000000)" fill="#F5F5F5" fill-rule="nonzero">
            <path d="M1325,214 C1344.0436,214 1359.66177,228.665991 1361.17598,247.319436 L1361.2963,250.296296 L1361.28477,317.703704 L1428.7037,317.703704 C1448.74959,317.703704 1465,333.954109 1465,354 C1465,373.043596 1450.33401,388.661767 1431.68056,390.175975 L1428.7037,390.296296 L1361.28477,390.296296 L1361.2963,457.703704 C1361.2963,477.749595 1345.04589,494 1325,494 C1305.9564,494 1290.33823,479.334009 1288.82402,460.680564 L1288.7037,457.703704 L1288.69218,390.296296 L1221.2963,390.296296 C1201.25041,390.296296 1185,374.045891 1185,354 C1185,334.956404 1199.66599,319.338233 1218.31944,317.824025 L1221.2963,317.703704 L1288.69218,317.703704 L1288.7037,250.296296 C1288.7037,230.250405 1304.95411,214 1325,214 Z" id="Combined-Shape"></path>
        </g>
    </g>
</svg>