<?xml version="1.0" encoding="UTF-8"?>
<svg width="540px" height="330px" viewBox="0 0 540 330" version="1.1" xmlns="http://www.w3.org/2000/svg" xmlns:xlink="http://www.w3.org/1999/xlink">
    <!-- Generator: Sketch 63.1 (92452) - https://sketch.com -->
    <title>noun_step_2079059</title>
    <desc>Created with Sketch.</desc>
    <g id="Page-1" stroke="none" stroke-width="1" fill="none" fill-rule="evenodd">
        <g id="BENEFITS-OF-MEMBERSHIP" transform="translate(-133.000000, -774.000000)" fill="#FFFFFF" fill-rule="nonzero">
            <g id="noun_step_2079059" transform="translate(133.000000, 774.000000)">
                <g id="Group">
                    <path d="M55.6052835,129.132654 C56.9960857,128.204914 57.9232871,127.741044 58.8504885,127.277174 L49.5784744,170.417083 C47.7240716,178.766743 49.5784744,188.044143 54.2144814,195.002192 C58.8504885,201.496372 65.804499,206.135072 73.6857109,207.990552 L50.5056758,314.21678 C50.5056758,315.14452 50.0420751,316.07226 50.0420751,317 L87.593732,317 L109.846566,214.484732 L131.635799,218.195692 L141.835014,260.871731 L179.850272,260.871731 L166.869452,206.135072 C164.087848,193.610582 153.888632,184.333183 141.371413,182.013833 L117.727778,177.839003 L126.536191,137.018443 C127.463392,137.946183 127.926993,139.337793 128.854195,140.265533 C134.881004,149.079063 144.616618,155.109373 155.279435,156.500983 L187.731484,161.139683 C191.440289,161.603553 194.685494,161.139683 197.467098,159.284203 C201.639505,156.964853 204.88471,152.790023 205.811911,147.223583 C207.202713,138.410053 200.712303,130.060394 191.90389,129.132654 L159.451841,124.493954 C157.597438,124.030084 156.206636,123.102344 154.815834,121.710734 C126.999792,82.2817846 121.436583,79.9624346 113.555371,79.4985646 L87.1301313,78.1069546 C82.0305236,77.6430846 77.3945166,77.6430846 37.9884569,101.300454 C29.6436442,106.403024 23.1532344,113.824944 18.5172274,122.174604 L1.82760209,155.109373 C-2.34480423,162.995163 0.900400687,172.736433 8.78161262,176.911263 C16.6628246,181.086093 26.3984393,177.839003 30.5708456,169.953213 L47.2604709,137.482313 C50.0420751,133.771354 52.3600786,130.988134 55.6052835,129.132654 Z" id="Path"></path>
                    <path d="M142.82892,38.9547836 C144.736944,19.4431599 130.466407,2.07910442 110.954784,0.171080129 C91.4431599,-1.73694416 74.0791044,12.5335927 72.1710801,32.0452164 C70.2630558,51.5568401 84.5335927,68.9208956 104.045216,70.8289199 C123.55684,72.7369442 140.920896,58.4664073 142.82892,38.9547836 Z" id="Oval"></path>
                </g>
                <path d="M532.112791,48.3237115 L468.087209,48.3237115 C463.447674,48.3237115 460.2,52.039414 460.2,56.2195793 L460.2,96.6278437 C460.2,101.272472 456.488372,104.523712 452.312791,104.523712 L388.287209,104.523712 C383.647674,104.523712 380.4,108.239414 380.4,112.419579 L380.4,152.827844 C380.4,157.472472 376.688372,160.723712 372.512791,160.723712 L308.487209,160.723712 C303.847674,160.723712 300.6,164.439414 300.6,168.619579 L300.6,209.027844 C300.6,213.672472 296.888372,216.923712 292.712791,216.923712 L228.687209,216.923712 C224.047674,216.923712 220.8,220.639414 220.8,224.819579 L220.8,265.227844 C220.8,269.872472 217.088372,273.123712 212.912791,273.123712 L148.887209,273.123712 C144.247674,273.123712 141,276.839414 141,281.019579 L141,321.427844 C141,326.072472 144.711628,329.323712 148.887209,329.323712 L532.112791,329.323712 C536.752326,329.323712 540,325.608009 540,321.427844 L540,56.2195793 C540,52.039414 536.288372,48.3237115 532.112791,48.3237115 Z" id="Path"></path>
            </g>
        </g>
    </g>
</svg>