<?xml version="1.0" encoding="utf-8"?>
<!-- Generator: Adobe Illustrator 24.0.3, SVG Export Plug-In . SVG Version: 6.00 Build 0)  -->
<svg version="1.2" baseProfile="tiny" id="Layer_1" xmlns="http://www.w3.org/2000/svg" xmlns:xlink="http://www.w3.org/1999/xlink"
	 x="0px" y="0px" viewBox="0 0 2560 523" xml:space="preserve">
<title>LOGO EXTENDED Copy</title>
<desc>Created with Sketch.</desc>
<path d="M1629.7,165.3l0.5,2.2v130.4c52.8-12.7,108.6-19.7,164.9,0.4V102.1l-87.2-1.7L1708.1,0h-137.6v108.1
	C1610.3,118.5,1625.7,147.6,1629.7,165.3z M1541.1,122.3c-60.6,0-71.2,46.6-71.2,46.6V220l40.9,24.7v83.4
	c33.2-7,68.6-17.1,101.3-25.7V168.9C1612.3,168.9,1601.7,122.3,1541.1,122.3z M1494.8,331.3v-77.8l-82.1-46.7l-82,46.7v56.2
	C1388.7,338.8,1442.6,340.1,1494.8,331.3z M0.1,523h834.2h792.3c3.1-45.1-8.9-73.7-8.9-73.7c-10.9-26.6-34.8-79.8-110.6-104.2
	c-55.9,10.8-113.7,11.5-176.1-20.1c-94.3-42.6-232-31.4-232-31.4c-81.8,4.2-175.8,29.8-264.6,72.4c-7.6,3-15.1,6-22.7,8.8
	c-52.4,19.4-101.6,17.6-149.6,8.4l-17.4-3.7c-28.5-6.4-56.5-14.9-84.6-22.4l0,0C469.3,328.4,359,337.4,359,337.4
	c-81.8,4.2-175.8,29.8-264.6,72.4c-7.6,3-15.1,6-22.7,8.8c-24.6,9-48.4,13.4-71.7,14.6 M2000,328.1c-3.5,0.8-7,1.6-10.4,2.4
	l-17.4,3.7c-47.9,9.2-97.2,11.1-149.5-8.4c-12.6-4.7-24.9-10.2-37.5-14.7c-3.9-1.4-7.8-2.7-11.9-3.7
	c-86.4-20.7-166.3,15.5-249.6,34.2c140.5,18.8,212.5,52,272.5,107.8c0,0,36.3,37.3,36.3,73.5H2560V372.3
	c-66.3,10.8-134.8,11.5-208.6-20.1C2212.5,276.8,2000,328.1,2000,328.1z"/>
</svg>
