<?xml version="1.0" encoding="UTF-8"?>
<svg width="231px" height="265px" viewBox="0 0 231 265" version="1.1" xmlns="http://www.w3.org/2000/svg" xmlns:xlink="http://www.w3.org/1999/xlink">
    <!-- Generator: Sketch 63.1 (92452) - https://sketch.com -->
    <title>Stroke 1 Copy 2</title>
    <desc>Created with Sketch.</desc>
    <g id="Page-1" stroke="none" stroke-width="1" fill="none" fill-rule="evenodd">
        <g id="SUPRA" transform="translate(-1209.000000, -199.000000)" fill="#F5F5F5" fill-rule="nonzero">
            <path d="M1339.07858,199 C1390.57863,199 1432.83589,238.006703 1432.83589,286.796896 C1432.83589,306.813857 1425.6254,325.603502 1413.09025,340.665337 L1411.26474,342.778772 L1413.26608,343.960426 C1449.42335,365.669867 1472.91425,402.988242 1473.96334,444.803566 L1474,447.72807 C1474,456.714809 1466.71481,464 1457.72807,464 C1448.74133,464 1441.45614,456.714809 1441.45614,447.72807 C1441.45614,409.452803 1415.08255,375.457129 1375.81094,362.358527 C1362.59803,357.951509 1360.66891,340.061572 1372.63856,332.939051 C1389.86768,322.686893 1400.29203,305.470085 1400.29203,286.796896 C1400.29203,256.587764 1373.16114,231.54386 1339.07858,231.54386 C1304.99603,231.54386 1277.86513,256.587764 1277.86513,286.796896 C1277.86513,305.992456 1288.90865,323.637617 1306.95958,333.730143 C1319.12012,340.529273 1317.66902,358.470699 1304.57386,363.227148 C1266.67535,376.992722 1241.54386,410.35494 1241.54386,447.72807 C1241.54386,456.714809 1234.25867,464 1225.27193,464 C1216.28519,464 1209,456.714809 1209,447.72807 C1209,405.919199 1231.44368,368.236601 1266.81122,345.735112 L1268.59246,344.619825 L1266.7512,342.603042 C1253.80999,327.946744 1246.0487,309.470289 1245.36986,289.638902 L1245.32127,286.796896 C1245.32127,238.006703 1287.57853,199 1339.07858,199 Z" id="Stroke-1-Copy-2"></path>
        </g>
    </g>
</svg>