<svg width="700" height="155" viewBox="0 0 700 155" fill="none" xmlns="http://www.w3.org/2000/svg">
<path d="M493.611 73.7061C493.611 53.175 510.255 36.5312 530.786 36.5312H658.301C678.832 36.5312 695.476 53.175 695.476 73.7061V84.0091C695.476 104.54 678.832 121.184 658.301 121.184H493.611V73.7061Z" stroke="#1D1D23" stroke-width="7.44201"/>
<path d="M522.503 93.7007H543.666V86.9508H530.206V65.9069H522.503V93.7007ZM561.739 94.2566C570.315 94.2566 576.747 87.7846 576.747 79.8038V79.7244C576.747 71.7436 570.394 65.3511 561.818 65.3511C553.242 65.3511 546.809 71.823 546.809 79.8038V79.8832C546.809 87.864 553.162 94.2566 561.739 94.2566ZM561.818 87.3081C557.609 87.3081 554.711 83.814 554.711 79.8038V79.7244C554.711 75.7142 557.53 72.2995 561.739 72.2995C565.987 72.2995 568.886 75.7936 568.886 79.8038V79.8832C568.886 83.8935 566.066 87.3081 561.818 87.3081ZM596.523 94.2566C602.677 94.2566 606.211 91.5963 608.831 87.9831L603.034 83.8538C601.367 85.8787 599.659 87.2287 596.761 87.2287C592.87 87.2287 590.13 83.9729 590.13 79.8038V79.7244C590.13 75.6745 592.87 72.3789 596.761 72.3789C599.421 72.3789 601.248 73.6495 602.836 75.6347L608.633 71.148C606.171 67.7334 602.518 65.3511 596.84 65.3511C588.423 65.3511 582.189 71.7039 582.189 79.8038V79.8832C582.189 88.1816 588.582 94.2566 596.523 94.2566ZM612.072 93.7007H620.172L622.157 88.7375H632.877L634.902 93.7007H643.161L631.329 65.7084H623.904L612.072 93.7007ZM624.42 82.742L627.557 74.8406L630.654 82.742H624.42ZM648.24 93.7007H669.403V86.9508H655.943V65.9069H648.24V93.7007Z" fill="#1D1D23"/>
<g clip-path="url(#clip0_91_6953)">
<path fill-rule="evenodd" clip-rule="evenodd" d="M156.797 96.6477C156.797 108.081 153.401 119.258 147.039 128.765C140.676 138.272 131.632 145.681 121.052 150.057C110.471 154.432 98.8283 155.577 87.5958 153.346C76.3634 151.116 66.0458 145.61 57.9476 137.525C49.8495 129.44 44.3345 119.14 42.1003 107.926C39.866 96.7119 41.0127 85.0884 45.3954 74.5252C49.7781 63.9619 57.2 54.9333 66.7224 48.5812C76.2448 42.229 87.44 38.8385 98.8925 38.8385C114.232 38.8953 128.928 45.0042 139.775 55.8332C150.622 66.6623 156.74 81.3332 156.797 96.6477Z" fill="#0064FF"/>
<path d="M339.872 31.3334C313.781 31.3334 295.211 52.8906 295.211 78.9748V79.4419C295.211 107.682 315.113 127.083 342.5 127.083C349.546 127.325 356.55 125.89 362.932 122.898C369.315 119.905 374.893 115.441 379.207 109.873L364.632 96.6516C361.87 99.6032 358.526 101.951 354.809 103.546C351.093 105.142 347.085 105.951 343.039 105.921C337.773 106.229 332.583 104.554 328.492 101.229C324.401 97.9032 321.708 93.1679 320.943 87.957L383.526 87.957C383.526 85.7653 383.958 83.1066 383.958 80.7712C383.526 55.1541 369.922 31.3334 339.872 31.3334ZM320.403 71.9328C322.634 60.0045 329.256 52.4954 339.872 52.4954C350.489 52.4954 357.543 60.4357 358.874 71.9328H320.403Z" fill="#1D1D23"/>
<path d="M251.02 89.1386L233.781 32.6588L211.685 32.6588L194.878 88.7075L180.267 33.09L154.212 33.09L182.066 125.786L205.027 125.786L222.733 69.2701L239.971 125.786H262.932L291.218 33.09H265.595L251.02 89.1386Z" fill="#1D1D23"/>
<path d="M25.6235 0L0 0L0 125.319H25.6235L25.6235 0Z" fill="#1D1D23"/>
<path d="M424.91 51.6304V33.0913L399.287 33.0913V124.889H424.91V90.8645C424.91 68.8043 435.527 58.5287 452.333 58.5287H453.665V31.1871C438.622 30.8637 430.309 38.8398 424.91 51.6304Z" fill="#1D1D23"/>
<path fill-rule="evenodd" clip-rule="evenodd" d="M481.524 13.4144C481.524 19.5059 476.586 24.4441 470.495 24.4441C464.403 24.4441 459.465 19.5059 459.465 13.4144C459.465 7.32292 464.403 2.38479 470.495 2.38479C476.586 2.38479 481.524 7.32292 481.524 13.4144ZM483.909 13.4144C483.909 20.823 477.903 26.8288 470.495 26.8288C463.086 26.8288 457.08 20.823 457.08 13.4144C457.08 6.00584 463.086 0 470.495 0C477.903 0 483.909 6.00584 483.909 13.4144ZM468.598 19.6745H464.84V6.11209H471.253C473.326 6.11209 474.76 6.65458 475.67 7.58458C476.465 8.35957 476.871 9.40581 476.871 10.7427V10.7814C476.871 12.8545 475.767 14.2301 474.081 14.947L477.317 19.6745H472.977L470.245 15.567H468.598V19.6745ZM468.598 9.36706V12.622H471.078C472.357 12.622 473.093 12.002 473.093 11.0139V10.9752C473.093 9.90956 472.318 9.36706 471.059 9.36706H468.598Z" fill="#1D1D23"/>
</g>
<defs>
<clipPath id="clip0_91_6953">
<rect width="485.365" height="155" fill="white"/>
</clipPath>
</defs>
</svg>
